M48
METRIC,LZ,000.000
;FILE_FORMAT=3:3
;TYPE=PLATED
;Layer: PTH_Through
;EasyEDA v6.5.22, 2023-02-12 16:25:32
;49dac008d54d4cb88ac5759986a8b4bd,6fd1a78a72754d5b9b51f237f625c95f,10
;Gerber Generator version 0.2
;Holesize 1 = 0.701 mm
T01C0.701
;Holesize 2 = 0.800 mm
T02C0.800
;Holesize 3 = 0.889 mm
T03C0.889
;Holesize 4 = 0.900 mm
T04C0.900
;Holesize 5 = 0.901 mm
T05C0.901
;Holesize 6 = 0.915 mm
T06C0.915
;Holesize 7 = 1.000 mm
T07C1.000
;Holesize 8 = 1.016 mm
T08C1.016
;Holesize 9 = 1.200 mm
T09C1.200
;Holesize 10 = 1.829 mm
T10C1.829
;Holesize 11 = 1.830 mm
T11C1.830
;Holesize 12 = 1.851 mm
T12C1.851
%
G05
G90
T01
X032639Y-113538
X033909Y-113538
X035179Y-113538
X037084Y-093726
X038354Y-093726
X039624Y-093726
T02
X009271Y-062230
X006731Y-062230
X014351Y-062230
X011811Y-062230
X019431Y-062230
X016891Y-062230
X024511Y-062230
X021971Y-062230
T03
X007747Y-079883
X010287Y-079883
X012827Y-079883
X015367Y-079883
X017907Y-079883
X020447Y-079883
X027432Y-104648
X029972Y-104648
X037084Y-104648
X039624Y-104648
T04
X021463Y-038227
X029083Y-038227
X006604Y-031877
X006604Y-024257
X006604Y-049022
X006604Y-041402
X006985Y-018034
X006985Y-010414
X041402Y-111760
X041402Y-119380
X026543Y-092583
X034163Y-092583
X034163Y-097790
X041783Y-097790
X024130Y-097790
X031750Y-097790
T05
X006985Y-003302
X006985Y-005842
T06
X001651Y-028448
X001651Y-053848
X023114Y-079883
X023114Y-025146
X020574Y-025146
X018034Y-025146
X025654Y-025146
X028194Y-025146
X030734Y-025146
X021082Y-056134
X023622Y-056134
X026162Y-056134
X028702Y-056134
X042037Y-028321
X042037Y-053721
X029210Y-082042
X029210Y-084582
X029210Y-087122
T07
X022860Y-123063
X025400Y-123063
X020320Y-123063
X027940Y-123063
X017780Y-123063
X011557Y-048514
X011557Y-045974
X011557Y-043434
X011557Y-040894
X011557Y-038354
X011557Y-035814
X011557Y-033274
X011557Y-030734
X011557Y-028194
X011557Y-025654
X011557Y-023114
X011557Y-020574
X011557Y-018034
X011557Y-015494
X011557Y-012954
X036957Y-045974
X036957Y-043434
X036957Y-040894
X036957Y-038354
X036957Y-035814
X036957Y-033274
X036957Y-030734
X036957Y-028194
X036957Y-025654
X036957Y-023114
X036957Y-020574
X036957Y-018034
X036957Y-015494
X036957Y-012954
X036957Y-048514
X011557Y-010414
X011557Y-007874
X011557Y-051054
X036957Y-051054
X036957Y-010414
X036957Y-007874
T08
X009017Y-094234
X009017Y-091694
X009017Y-089154
X009017Y-086614
X016764Y-094234
X016764Y-091694
X016764Y-089154
X016764Y-086614
T09
X008763Y-113284
X011303Y-113284
X016256Y-113284
X018796Y-113284
X023749Y-113284
X026289Y-113284
T10
X021717Y-074956
X021717Y-085064
T11
X021717Y-003276
X021717Y-156744
T12
X030279Y-064311G85X030279Y-064311
X030279Y-069011G85X030279Y-069011
X030279Y-073711G85X030279Y-073711
X039809Y-075616G85X039809Y-075616
X039809Y-062406G85X039809Y-062406
M30
