G04 Layer: BottomLayer*
G04 EasyEDA v6.5.22, 2023-02-12 16:25:32*
G04 49dac008d54d4cb88ac5759986a8b4bd,6fd1a78a72754d5b9b51f237f625c95f,10*
G04 Gerber Generator version 0.2*
G04 Scale: 100 percent, Rotated: No, Reflected: No *
G04 Dimensions in millimeters *
G04 leading zeros omitted , absolute positions ,4 integer and 5 decimal *
%FSLAX45Y45*%
%MOMM*%

%ADD10C,0.4000*%
%ADD11C,1.5240*%
%ADD12C,4.0000*%
%ADD13C,1.9300*%
%ADD14C,1.7000*%
%ADD15R,1.7000X1.7000*%
%ADD16R,1.8796X1.8796*%
%ADD17C,1.8796*%
%ADD18C,1.6510*%
%ADD19R,2.0000X2.0000*%
%ADD20C,2.0000*%
%ADD21R,0.9000X1.6000*%
%ADD22O,0.8999982X1.5999968*%
%ADD23C,2.7750*%
%ADD24R,1.5748X1.5748*%
%ADD25C,1.5748*%
%ADD26R,1.5240X1.5240*%
%ADD27C,1.4986*%
%ADD28R,1.4986X1.4986*%
%ADD29C,1.8000*%
%ADD30C,0.6100*%
%ADD31C,0.0121*%

%LPD*%
G36*
X2851505Y-8438337D02*
G01*
X2847594Y-8437676D01*
X2844292Y-8435644D01*
X2841955Y-8432444D01*
X2841040Y-8428634D01*
X2840888Y-8424976D01*
X2841548Y-8420963D01*
X2843682Y-8417509D01*
X2847035Y-8415223D01*
X2851048Y-8414410D01*
X2859379Y-8414410D01*
X2863240Y-8415121D01*
X2866542Y-8417306D01*
X2868726Y-8420557D01*
X2869539Y-8424418D01*
X2868828Y-8428278D01*
X2866745Y-8431580D01*
X2863494Y-8433816D01*
X2855315Y-8437473D01*
G37*

%LPD*%
G36*
X2851048Y-8502040D02*
G01*
X2847136Y-8501227D01*
X2843834Y-8499043D01*
X2841650Y-8495741D01*
X2840888Y-8491880D01*
X2840888Y-8489543D01*
X2841701Y-8485530D01*
X2844038Y-8482177D01*
X2847543Y-8480044D01*
X2851607Y-8479434D01*
X2855569Y-8480450D01*
X2860192Y-8482736D01*
X2863646Y-8485581D01*
X2865577Y-8489696D01*
X2865526Y-8494166D01*
X2863596Y-8498230D01*
X2860040Y-8501024D01*
X2855671Y-8502040D01*
G37*

%LPD*%
G36*
X296265Y-15976092D02*
G01*
X291947Y-15975126D01*
X288442Y-15972383D01*
X286410Y-15968370D01*
X286308Y-15963950D01*
X288137Y-15959886D01*
X291490Y-15956940D01*
X296113Y-15954501D01*
X311556Y-15944138D01*
X325780Y-15932251D01*
X338785Y-15918942D01*
X350316Y-15904362D01*
X360273Y-15888665D01*
X368604Y-15872053D01*
X375158Y-15854680D01*
X379882Y-15836696D01*
X382727Y-15818307D01*
X383692Y-15799765D01*
X382727Y-15781223D01*
X379882Y-15762833D01*
X375158Y-15744850D01*
X368604Y-15727476D01*
X360273Y-15710865D01*
X350316Y-15695168D01*
X338785Y-15680588D01*
X325780Y-15667278D01*
X311556Y-15655391D01*
X296113Y-15645028D01*
X279704Y-15636290D01*
X262483Y-15629280D01*
X244652Y-15624098D01*
X226364Y-15620746D01*
X207822Y-15619323D01*
X189280Y-15619831D01*
X170840Y-15622219D01*
X152755Y-15626486D01*
X135178Y-15632582D01*
X118364Y-15640456D01*
X102463Y-15650006D01*
X87579Y-15661182D01*
X73914Y-15673781D01*
X61671Y-15687751D01*
X50901Y-15702889D01*
X44907Y-15713506D01*
X41960Y-15716757D01*
X37896Y-15718485D01*
X33477Y-15718282D01*
X29565Y-15716300D01*
X26873Y-15712795D01*
X25908Y-15708477D01*
X25908Y-294487D01*
X26873Y-290169D01*
X29565Y-286664D01*
X33477Y-284683D01*
X37896Y-284480D01*
X41960Y-286207D01*
X44907Y-289458D01*
X50901Y-300075D01*
X61671Y-315214D01*
X73914Y-329184D01*
X87579Y-341782D01*
X102463Y-352958D01*
X118364Y-362508D01*
X135178Y-370382D01*
X152755Y-376478D01*
X170840Y-380746D01*
X189280Y-383133D01*
X207822Y-383641D01*
X226364Y-382219D01*
X244652Y-378866D01*
X262483Y-373684D01*
X279704Y-366674D01*
X296113Y-357936D01*
X311556Y-347573D01*
X325780Y-335686D01*
X338785Y-322376D01*
X350316Y-307797D01*
X360273Y-292100D01*
X368604Y-275488D01*
X375158Y-258114D01*
X379882Y-240131D01*
X382727Y-221742D01*
X383692Y-203200D01*
X382727Y-184658D01*
X379882Y-166268D01*
X375158Y-148285D01*
X368604Y-130911D01*
X360273Y-114300D01*
X350316Y-98602D01*
X338785Y-84023D01*
X325780Y-70713D01*
X311556Y-58826D01*
X296113Y-48463D01*
X289712Y-45059D01*
X286308Y-42113D01*
X284480Y-38049D01*
X284581Y-33629D01*
X286613Y-29616D01*
X290118Y-26873D01*
X294436Y-25908D01*
X1160830Y-25908D01*
X1164742Y-26670D01*
X1167993Y-28905D01*
X1170228Y-32156D01*
X1170990Y-36068D01*
X1170228Y-39979D01*
X1167993Y-43230D01*
X811885Y-399389D01*
X808380Y-401675D01*
X804265Y-402336D01*
X800252Y-401320D01*
X796950Y-398729D01*
X794969Y-395020D01*
X794664Y-390855D01*
X796036Y-386892D01*
X798728Y-382473D01*
X804570Y-369214D01*
X808685Y-355346D01*
X811022Y-341071D01*
X811479Y-326593D01*
X810107Y-312166D01*
X806856Y-298043D01*
X801878Y-284429D01*
X795172Y-271627D01*
X786892Y-259740D01*
X777138Y-249021D01*
X766114Y-239623D01*
X753973Y-231698D01*
X740918Y-225399D01*
X727151Y-220878D01*
X712978Y-218084D01*
X698500Y-217170D01*
X684022Y-218084D01*
X669848Y-220878D01*
X656082Y-225399D01*
X643026Y-231698D01*
X630885Y-239623D01*
X619861Y-249021D01*
X610108Y-259740D01*
X601827Y-271627D01*
X595122Y-284429D01*
X590143Y-298043D01*
X586892Y-312166D01*
X585520Y-326593D01*
X585978Y-341071D01*
X588314Y-355346D01*
X589686Y-360070D01*
X590092Y-363677D01*
X589178Y-367182D01*
X587146Y-370128D01*
X519938Y-437337D01*
X516788Y-440791D01*
X514096Y-444246D01*
X511759Y-447954D01*
X509727Y-451866D01*
X508000Y-455980D01*
X506679Y-460146D01*
X505764Y-464464D01*
X505155Y-468833D01*
X504951Y-473456D01*
X504951Y-898144D01*
X505155Y-902766D01*
X505764Y-907135D01*
X506679Y-911453D01*
X508000Y-915619D01*
X509727Y-919734D01*
X511759Y-923645D01*
X514096Y-927353D01*
X516788Y-930808D01*
X519938Y-934262D01*
X577951Y-992276D01*
X580034Y-995324D01*
X580948Y-998880D01*
X580491Y-1002487D01*
X577646Y-1011631D01*
X574954Y-1026414D01*
X574040Y-1041400D01*
X574954Y-1056386D01*
X577646Y-1071168D01*
X582117Y-1085545D01*
X588264Y-1099261D01*
X596087Y-1112113D01*
X605332Y-1123950D01*
X615950Y-1134567D01*
X627786Y-1143812D01*
X640638Y-1151636D01*
X654354Y-1157782D01*
X668731Y-1162253D01*
X683514Y-1164945D01*
X698500Y-1165860D01*
X713486Y-1164945D01*
X728268Y-1162253D01*
X742645Y-1157782D01*
X756361Y-1151636D01*
X769213Y-1143812D01*
X781050Y-1134567D01*
X791667Y-1123950D01*
X800912Y-1112113D01*
X808736Y-1099261D01*
X814882Y-1085545D01*
X819353Y-1071168D01*
X822045Y-1056386D01*
X822960Y-1041400D01*
X822045Y-1026414D01*
X819353Y-1011631D01*
X814882Y-997254D01*
X808736Y-983538D01*
X800912Y-970686D01*
X791667Y-958850D01*
X781050Y-948232D01*
X769213Y-938987D01*
X756361Y-931164D01*
X742645Y-925017D01*
X728268Y-920546D01*
X713486Y-917854D01*
X698500Y-916940D01*
X683514Y-917854D01*
X668731Y-920546D01*
X659587Y-923391D01*
X655980Y-923848D01*
X652424Y-922934D01*
X649376Y-920851D01*
X608939Y-880414D01*
X606755Y-877112D01*
X605993Y-873252D01*
X605993Y-675640D01*
X606755Y-671728D01*
X608939Y-668477D01*
X612190Y-666242D01*
X616051Y-665480D01*
X619912Y-666191D01*
X623214Y-668324D01*
X625246Y-670255D01*
X636828Y-678942D01*
X649478Y-686054D01*
X662889Y-691489D01*
X676910Y-695147D01*
X691235Y-697026D01*
X705764Y-697026D01*
X720090Y-695147D01*
X734110Y-691489D01*
X747522Y-686054D01*
X760171Y-678942D01*
X771753Y-670255D01*
X782167Y-660196D01*
X791210Y-648868D01*
X798728Y-636473D01*
X804570Y-623214D01*
X808685Y-609346D01*
X811022Y-595071D01*
X811479Y-580593D01*
X810107Y-566166D01*
X807212Y-553618D01*
X807059Y-550214D01*
X807974Y-546963D01*
X809955Y-544169D01*
X1227378Y-126746D01*
X1230680Y-124510D01*
X1234592Y-123748D01*
X2028901Y-123748D01*
X2032914Y-124612D01*
X2036318Y-127000D01*
X2038451Y-130505D01*
X2039010Y-134620D01*
X2037892Y-138633D01*
X2035302Y-141833D01*
X2018233Y-155600D01*
X2003247Y-170281D01*
X1989632Y-186232D01*
X1977542Y-203403D01*
X1967230Y-221234D01*
X2065375Y-221234D01*
X2065375Y-133908D01*
X2066137Y-130048D01*
X2068322Y-126746D01*
X2071624Y-124510D01*
X2075535Y-123748D01*
X2257145Y-123748D01*
X2261057Y-124510D01*
X2264359Y-126746D01*
X2275078Y-137464D01*
X2277313Y-140766D01*
X2278075Y-144678D01*
X2278075Y-221234D01*
X2354630Y-221234D01*
X2358542Y-222046D01*
X2361844Y-224231D01*
X3389325Y-1251712D01*
X3390950Y-1253896D01*
X3391966Y-1256385D01*
X3393338Y-1261770D01*
X3397402Y-1271016D01*
X3402888Y-1279448D01*
X3409746Y-1286865D01*
X3417671Y-1293012D01*
X3426510Y-1297838D01*
X3436061Y-1301089D01*
X3445967Y-1302766D01*
X3456076Y-1302766D01*
X3465982Y-1301089D01*
X3475532Y-1297838D01*
X3484372Y-1293012D01*
X3492296Y-1286865D01*
X3499154Y-1279448D01*
X3504641Y-1271016D01*
X3508705Y-1261770D01*
X3511143Y-1252016D01*
X3512007Y-1242009D01*
X3511143Y-1231950D01*
X3508705Y-1222197D01*
X3504641Y-1212951D01*
X3499154Y-1204518D01*
X3492296Y-1197102D01*
X3484372Y-1190955D01*
X3475532Y-1186129D01*
X3463036Y-1181862D01*
X3460496Y-1180033D01*
X2323744Y-43230D01*
X2321509Y-39979D01*
X2320747Y-36068D01*
X2321509Y-32156D01*
X2323744Y-28905D01*
X2326995Y-26670D01*
X2330907Y-25908D01*
X4048658Y-25908D01*
X4052925Y-26822D01*
X4056379Y-29514D01*
X4058462Y-33375D01*
X4058665Y-37693D01*
X4057040Y-41757D01*
X4053890Y-44754D01*
X4039463Y-53441D01*
X4024579Y-64617D01*
X4010914Y-77216D01*
X3998671Y-91186D01*
X3987901Y-106324D01*
X3978757Y-122478D01*
X3971290Y-139547D01*
X3965651Y-157226D01*
X3961841Y-175412D01*
X3959961Y-193903D01*
X3959961Y-212496D01*
X3961841Y-230987D01*
X3965651Y-249174D01*
X3971290Y-266852D01*
X3978757Y-283921D01*
X3987901Y-300075D01*
X3998671Y-315214D01*
X4010914Y-329184D01*
X4024579Y-341782D01*
X4039463Y-352958D01*
X4055364Y-362508D01*
X4072178Y-370382D01*
X4089755Y-376478D01*
X4107840Y-380746D01*
X4126280Y-383133D01*
X4144822Y-383641D01*
X4163364Y-382219D01*
X4181652Y-378866D01*
X4199483Y-373684D01*
X4216704Y-366674D01*
X4233113Y-357936D01*
X4248556Y-347573D01*
X4262780Y-335686D01*
X4275785Y-322376D01*
X4287316Y-307797D01*
X4297273Y-292100D01*
X4298492Y-289712D01*
X4301337Y-286207D01*
X4305401Y-284327D01*
X4309872Y-284378D01*
X4313936Y-286359D01*
X4316730Y-289864D01*
X4317746Y-294233D01*
X4319676Y-2783027D01*
X4318711Y-2787446D01*
X4315917Y-2790952D01*
X4311853Y-2792933D01*
X4307332Y-2792984D01*
X4303268Y-2791053D01*
X4300423Y-2787548D01*
X4296105Y-2778760D01*
X4288332Y-2767177D01*
X4279138Y-2756662D01*
X4268622Y-2747467D01*
X4257040Y-2739694D01*
X4244543Y-2733548D01*
X4231335Y-2729026D01*
X4217619Y-2726334D01*
X4203700Y-2725420D01*
X4189780Y-2726334D01*
X4176064Y-2729026D01*
X4162856Y-2733548D01*
X4150360Y-2739694D01*
X4138777Y-2747467D01*
X4128262Y-2756662D01*
X4119067Y-2767177D01*
X4111294Y-2778760D01*
X4105148Y-2791256D01*
X4100626Y-2804464D01*
X4097934Y-2818180D01*
X4097020Y-2832100D01*
X4097934Y-2846019D01*
X4100626Y-2859735D01*
X4105148Y-2872943D01*
X4111294Y-2885440D01*
X4119067Y-2897022D01*
X4128262Y-2907538D01*
X4138777Y-2916732D01*
X4150360Y-2924505D01*
X4162856Y-2930652D01*
X4176064Y-2935173D01*
X4189780Y-2937865D01*
X4203700Y-2938780D01*
X4217619Y-2937865D01*
X4231335Y-2935173D01*
X4244543Y-2930652D01*
X4257040Y-2924505D01*
X4268622Y-2916732D01*
X4279138Y-2907538D01*
X4288332Y-2897022D01*
X4296105Y-2885440D01*
X4300524Y-2876499D01*
X4303369Y-2872994D01*
X4307433Y-2871063D01*
X4311904Y-2871114D01*
X4315968Y-2873044D01*
X4318762Y-2876600D01*
X4319778Y-2880969D01*
X4321708Y-5327142D01*
X4320743Y-5331561D01*
X4317898Y-5335066D01*
X4313885Y-5337048D01*
X4309364Y-5337048D01*
X4305300Y-5335117D01*
X4302455Y-5331663D01*
X4296105Y-5318760D01*
X4288332Y-5307177D01*
X4279138Y-5296662D01*
X4268622Y-5287467D01*
X4257040Y-5279694D01*
X4244543Y-5273548D01*
X4231335Y-5269026D01*
X4217619Y-5266334D01*
X4203700Y-5265420D01*
X4189780Y-5266334D01*
X4176064Y-5269026D01*
X4162856Y-5273548D01*
X4150360Y-5279694D01*
X4138777Y-5287467D01*
X4128262Y-5296662D01*
X4119067Y-5307177D01*
X4112412Y-5317083D01*
X4110177Y-5319471D01*
X4107230Y-5321046D01*
X4103979Y-5321604D01*
X3816553Y-5321604D01*
X3812641Y-5320842D01*
X3809339Y-5318607D01*
X3807155Y-5315305D01*
X3806393Y-5311444D01*
X3807155Y-5307533D01*
X3809339Y-5304231D01*
X3874008Y-5239613D01*
X3877106Y-5236159D01*
X3879799Y-5232704D01*
X3882186Y-5228996D01*
X3884218Y-5225084D01*
X3885895Y-5220970D01*
X3887215Y-5216804D01*
X3888181Y-5212486D01*
X3888740Y-5208117D01*
X3888943Y-5203494D01*
X3888943Y-930351D01*
X3888740Y-925728D01*
X3888181Y-921359D01*
X3887215Y-917092D01*
X3885895Y-912876D01*
X3884218Y-908812D01*
X3882186Y-904900D01*
X3879799Y-901192D01*
X3877106Y-897686D01*
X3874008Y-894283D01*
X3809085Y-829360D01*
X3807053Y-826465D01*
X3806139Y-823112D01*
X3806444Y-819658D01*
X3809136Y-809040D01*
X3810965Y-794664D01*
X3810965Y-780135D01*
X3809136Y-765759D01*
X3805529Y-751687D01*
X3800195Y-738225D01*
X3793185Y-725525D01*
X3784701Y-713790D01*
X3774744Y-703224D01*
X3763568Y-693978D01*
X3751326Y-686206D01*
X3738219Y-680008D01*
X3724401Y-675538D01*
X3710178Y-672846D01*
X3695700Y-671931D01*
X3681222Y-672846D01*
X3666998Y-675538D01*
X3653180Y-680008D01*
X3640074Y-686206D01*
X3627831Y-693978D01*
X3616655Y-703224D01*
X3606698Y-713790D01*
X3598214Y-725525D01*
X3591204Y-738225D01*
X3585870Y-751687D01*
X3582263Y-765759D01*
X3580434Y-780135D01*
X3580434Y-794664D01*
X3582263Y-809040D01*
X3585870Y-823112D01*
X3591204Y-836574D01*
X3598214Y-849274D01*
X3606698Y-861009D01*
X3616655Y-871575D01*
X3627831Y-880821D01*
X3640074Y-888593D01*
X3653180Y-894791D01*
X3666998Y-899261D01*
X3681222Y-901953D01*
X3695700Y-902868D01*
X3710178Y-901953D01*
X3724401Y-899261D01*
X3727348Y-898296D01*
X3731006Y-897839D01*
X3734612Y-898702D01*
X3737660Y-900785D01*
X3758793Y-921918D01*
X3761028Y-925271D01*
X3761740Y-929233D01*
X3760876Y-933145D01*
X3758590Y-936447D01*
X3755136Y-938580D01*
X3751173Y-939241D01*
X3747262Y-938276D01*
X3738219Y-934008D01*
X3724401Y-929538D01*
X3710178Y-926846D01*
X3695700Y-925931D01*
X3681222Y-926846D01*
X3666998Y-929538D01*
X3653180Y-934008D01*
X3640074Y-940206D01*
X3627831Y-947978D01*
X3616655Y-957224D01*
X3606698Y-967790D01*
X3598214Y-979525D01*
X3591204Y-992225D01*
X3585870Y-1005687D01*
X3582263Y-1019759D01*
X3580434Y-1034135D01*
X3580434Y-1048664D01*
X3582263Y-1063040D01*
X3585870Y-1077112D01*
X3591204Y-1090574D01*
X3598214Y-1103274D01*
X3606698Y-1115009D01*
X3616655Y-1125575D01*
X3627831Y-1134821D01*
X3640074Y-1142593D01*
X3653180Y-1148791D01*
X3666998Y-1153261D01*
X3681222Y-1155954D01*
X3695700Y-1156868D01*
X3710178Y-1155954D01*
X3724401Y-1153261D01*
X3738219Y-1148791D01*
X3751326Y-1142593D01*
X3763568Y-1134821D01*
X3771290Y-1128420D01*
X3774643Y-1126591D01*
X3778402Y-1126134D01*
X3782110Y-1127099D01*
X3785209Y-1129334D01*
X3787241Y-1132535D01*
X3787952Y-1136294D01*
X3787952Y-1200505D01*
X3787241Y-1204264D01*
X3785209Y-1207465D01*
X3782110Y-1209700D01*
X3778402Y-1210665D01*
X3774643Y-1210208D01*
X3771290Y-1208379D01*
X3763568Y-1201978D01*
X3751326Y-1194206D01*
X3738219Y-1188008D01*
X3724401Y-1183538D01*
X3710178Y-1180846D01*
X3695700Y-1179931D01*
X3681222Y-1180846D01*
X3666998Y-1183538D01*
X3653180Y-1188008D01*
X3640074Y-1194206D01*
X3627831Y-1201978D01*
X3616655Y-1211224D01*
X3606698Y-1221790D01*
X3598214Y-1233525D01*
X3591204Y-1246225D01*
X3585870Y-1259687D01*
X3582263Y-1273759D01*
X3580434Y-1288135D01*
X3580434Y-1302664D01*
X3582263Y-1317040D01*
X3585870Y-1331112D01*
X3591204Y-1344574D01*
X3598214Y-1357274D01*
X3606698Y-1369009D01*
X3616655Y-1379575D01*
X3627831Y-1388821D01*
X3640074Y-1396593D01*
X3653180Y-1402791D01*
X3666998Y-1407261D01*
X3681222Y-1409954D01*
X3695700Y-1410868D01*
X3710178Y-1409954D01*
X3724401Y-1407261D01*
X3738219Y-1402791D01*
X3751326Y-1396593D01*
X3763568Y-1388821D01*
X3771290Y-1382420D01*
X3774643Y-1380591D01*
X3778402Y-1380134D01*
X3782110Y-1381099D01*
X3785209Y-1383334D01*
X3787241Y-1386535D01*
X3787952Y-1390294D01*
X3787952Y-1454505D01*
X3787241Y-1458264D01*
X3785209Y-1461465D01*
X3782110Y-1463700D01*
X3778402Y-1464665D01*
X3774643Y-1464208D01*
X3771290Y-1462379D01*
X3763568Y-1455978D01*
X3751326Y-1448206D01*
X3744569Y-1445006D01*
X3744569Y-1500530D01*
X3777792Y-1500530D01*
X3781653Y-1501343D01*
X3784955Y-1503527D01*
X3787190Y-1506829D01*
X3787952Y-1510690D01*
X3787952Y-1588109D01*
X3787190Y-1591970D01*
X3784955Y-1595272D01*
X3781653Y-1597456D01*
X3777792Y-1598269D01*
X3744569Y-1598269D01*
X3744569Y-1653793D01*
X3751326Y-1650593D01*
X3763568Y-1642821D01*
X3771290Y-1636420D01*
X3774643Y-1634591D01*
X3778402Y-1634134D01*
X3782110Y-1635099D01*
X3785209Y-1637334D01*
X3787241Y-1640535D01*
X3787952Y-1644294D01*
X3787952Y-1708505D01*
X3787241Y-1712264D01*
X3785209Y-1715465D01*
X3782110Y-1717700D01*
X3778402Y-1718665D01*
X3774643Y-1718208D01*
X3771290Y-1716379D01*
X3763568Y-1709978D01*
X3751326Y-1702206D01*
X3738219Y-1696008D01*
X3724401Y-1691538D01*
X3710178Y-1688846D01*
X3695700Y-1687931D01*
X3681222Y-1688846D01*
X3666998Y-1691538D01*
X3653180Y-1696008D01*
X3640074Y-1702206D01*
X3627831Y-1709978D01*
X3616655Y-1719224D01*
X3606698Y-1729790D01*
X3598214Y-1741525D01*
X3591204Y-1754225D01*
X3585870Y-1767687D01*
X3582263Y-1781759D01*
X3580434Y-1796135D01*
X3580434Y-1810664D01*
X3582263Y-1825040D01*
X3585870Y-1839112D01*
X3591204Y-1852574D01*
X3598214Y-1865274D01*
X3606698Y-1877009D01*
X3616655Y-1887575D01*
X3627831Y-1896821D01*
X3640074Y-1904593D01*
X3653180Y-1910791D01*
X3666998Y-1915261D01*
X3681222Y-1917954D01*
X3695700Y-1918868D01*
X3710178Y-1917954D01*
X3724401Y-1915261D01*
X3738219Y-1910791D01*
X3751326Y-1904593D01*
X3763568Y-1896821D01*
X3771290Y-1890420D01*
X3774643Y-1888591D01*
X3778402Y-1888134D01*
X3782110Y-1889099D01*
X3785209Y-1891334D01*
X3787241Y-1894535D01*
X3787952Y-1898294D01*
X3787952Y-1962505D01*
X3787241Y-1966264D01*
X3785209Y-1969465D01*
X3782110Y-1971700D01*
X3778402Y-1972665D01*
X3774643Y-1972208D01*
X3771290Y-1970379D01*
X3763568Y-1963978D01*
X3751326Y-1956206D01*
X3738219Y-1950008D01*
X3724401Y-1945538D01*
X3710178Y-1942846D01*
X3695700Y-1941931D01*
X3681222Y-1942846D01*
X3666998Y-1945538D01*
X3653180Y-1950008D01*
X3640074Y-1956206D01*
X3627831Y-1963978D01*
X3616655Y-1973224D01*
X3606698Y-1983790D01*
X3598214Y-1995525D01*
X3591204Y-2008225D01*
X3585870Y-2021687D01*
X3582263Y-2035759D01*
X3580434Y-2050135D01*
X3580434Y-2064664D01*
X3582263Y-2079040D01*
X3585870Y-2093112D01*
X3591204Y-2106574D01*
X3598214Y-2119274D01*
X3606698Y-2131009D01*
X3616655Y-2141575D01*
X3627831Y-2150821D01*
X3640074Y-2158593D01*
X3653180Y-2164791D01*
X3666998Y-2169261D01*
X3681222Y-2171954D01*
X3695700Y-2172868D01*
X3710178Y-2171954D01*
X3724401Y-2169261D01*
X3738219Y-2164791D01*
X3751326Y-2158593D01*
X3763568Y-2150821D01*
X3771290Y-2144420D01*
X3774643Y-2142591D01*
X3778402Y-2142134D01*
X3782110Y-2143099D01*
X3785209Y-2145334D01*
X3787241Y-2148535D01*
X3787952Y-2152294D01*
X3787952Y-2216505D01*
X3787241Y-2220264D01*
X3785209Y-2223465D01*
X3782110Y-2225700D01*
X3778402Y-2226665D01*
X3774643Y-2226208D01*
X3771290Y-2224379D01*
X3763568Y-2217978D01*
X3751326Y-2210206D01*
X3738219Y-2204008D01*
X3724401Y-2199538D01*
X3710178Y-2196846D01*
X3695700Y-2195931D01*
X3681222Y-2196846D01*
X3666998Y-2199538D01*
X3653180Y-2204008D01*
X3640074Y-2210206D01*
X3627831Y-2217978D01*
X3616655Y-2227224D01*
X3606698Y-2237790D01*
X3598214Y-2249525D01*
X3591204Y-2262225D01*
X3585870Y-2275687D01*
X3582263Y-2289759D01*
X3580434Y-2304135D01*
X3580434Y-2318664D01*
X3582263Y-2333040D01*
X3585870Y-2347112D01*
X3591204Y-2360574D01*
X3598214Y-2373274D01*
X3606698Y-2385009D01*
X3616655Y-2395575D01*
X3627831Y-2404821D01*
X3640074Y-2412593D01*
X3653180Y-2418791D01*
X3666998Y-2423261D01*
X3681222Y-2425954D01*
X3695700Y-2426868D01*
X3710178Y-2425954D01*
X3724401Y-2423261D01*
X3738219Y-2418791D01*
X3751326Y-2412593D01*
X3763568Y-2404821D01*
X3771290Y-2398420D01*
X3774643Y-2396591D01*
X3778402Y-2396134D01*
X3782110Y-2397099D01*
X3785209Y-2399334D01*
X3787241Y-2402535D01*
X3787952Y-2406294D01*
X3787952Y-2470505D01*
X3787241Y-2474264D01*
X3785209Y-2477465D01*
X3782110Y-2479700D01*
X3778402Y-2480665D01*
X3774643Y-2480208D01*
X3771290Y-2478379D01*
X3763568Y-2471978D01*
X3751326Y-2464206D01*
X3738219Y-2458008D01*
X3724401Y-2453538D01*
X3710178Y-2450846D01*
X3695700Y-2449931D01*
X3681222Y-2450846D01*
X3666998Y-2453538D01*
X3653180Y-2458008D01*
X3640074Y-2464206D01*
X3627831Y-2471978D01*
X3616655Y-2481224D01*
X3606698Y-2491790D01*
X3598214Y-2503525D01*
X3591204Y-2516225D01*
X3585870Y-2529687D01*
X3582263Y-2543759D01*
X3580434Y-2558135D01*
X3580434Y-2572664D01*
X3582263Y-2587040D01*
X3585870Y-2601112D01*
X3591204Y-2614574D01*
X3598214Y-2627274D01*
X3606698Y-2639009D01*
X3616655Y-2649575D01*
X3627831Y-2658821D01*
X3640074Y-2666593D01*
X3653180Y-2672791D01*
X3666998Y-2677261D01*
X3681222Y-2679954D01*
X3695700Y-2680868D01*
X3710178Y-2679954D01*
X3724401Y-2677261D01*
X3738219Y-2672791D01*
X3751326Y-2666593D01*
X3763568Y-2658821D01*
X3771290Y-2652420D01*
X3774643Y-2650591D01*
X3778402Y-2650134D01*
X3782110Y-2651099D01*
X3785209Y-2653334D01*
X3787241Y-2656535D01*
X3787952Y-2660294D01*
X3787952Y-2724505D01*
X3787241Y-2728264D01*
X3785209Y-2731465D01*
X3782110Y-2733700D01*
X3778402Y-2734665D01*
X3774643Y-2734208D01*
X3771290Y-2732379D01*
X3763568Y-2725978D01*
X3751326Y-2718206D01*
X3738219Y-2712008D01*
X3724401Y-2707538D01*
X3710178Y-2704846D01*
X3695700Y-2703931D01*
X3681222Y-2704846D01*
X3666998Y-2707538D01*
X3653180Y-2712008D01*
X3640074Y-2718206D01*
X3627831Y-2725978D01*
X3616655Y-2735224D01*
X3606698Y-2745790D01*
X3598214Y-2757525D01*
X3591204Y-2770225D01*
X3585870Y-2783687D01*
X3582263Y-2797759D01*
X3580434Y-2812135D01*
X3580434Y-2826664D01*
X3582263Y-2841040D01*
X3585870Y-2855112D01*
X3591204Y-2868574D01*
X3598214Y-2881274D01*
X3606698Y-2893009D01*
X3616655Y-2903575D01*
X3627831Y-2912821D01*
X3640074Y-2920593D01*
X3653180Y-2926791D01*
X3666998Y-2931261D01*
X3681222Y-2933954D01*
X3695700Y-2934868D01*
X3710178Y-2933954D01*
X3724401Y-2931261D01*
X3738219Y-2926791D01*
X3751326Y-2920593D01*
X3763568Y-2912821D01*
X3771290Y-2906420D01*
X3774643Y-2904591D01*
X3778402Y-2904134D01*
X3782110Y-2905099D01*
X3785209Y-2907334D01*
X3787241Y-2910535D01*
X3787952Y-2914294D01*
X3787952Y-2978505D01*
X3787241Y-2982264D01*
X3785209Y-2985465D01*
X3782110Y-2987700D01*
X3778402Y-2988665D01*
X3774643Y-2988208D01*
X3771290Y-2986379D01*
X3763568Y-2979978D01*
X3751326Y-2972206D01*
X3738219Y-2966008D01*
X3724401Y-2961538D01*
X3710178Y-2958846D01*
X3695700Y-2957931D01*
X3681222Y-2958846D01*
X3666998Y-2961538D01*
X3653180Y-2966008D01*
X3640074Y-2972206D01*
X3627831Y-2979978D01*
X3616655Y-2989224D01*
X3606698Y-2999790D01*
X3598214Y-3011525D01*
X3594811Y-3017621D01*
X3592576Y-3020415D01*
X3589477Y-3022244D01*
X3585921Y-3022904D01*
X3453028Y-3022904D01*
X3449116Y-3022142D01*
X3445814Y-3019907D01*
X3031947Y-2606040D01*
X3029712Y-2602738D01*
X3028950Y-2598826D01*
X3028950Y-2559050D01*
X3006953Y-2559050D01*
X3003092Y-2558288D01*
X2999790Y-2556052D01*
X2997555Y-2552750D01*
X2996793Y-2548890D01*
X2996793Y-2480310D01*
X2997555Y-2476398D01*
X2999790Y-2473147D01*
X3003092Y-2470912D01*
X3006953Y-2470150D01*
X3028950Y-2470150D01*
X3028950Y-2417826D01*
X3020060Y-2422194D01*
X3008477Y-2429967D01*
X3003550Y-2434285D01*
X2999892Y-2436317D01*
X2995726Y-2436723D01*
X2991764Y-2435453D01*
X2988665Y-2432659D01*
X2984906Y-2427579D01*
X2981858Y-2424226D01*
X2903728Y-2346147D01*
X2900324Y-2342997D01*
X2896819Y-2340305D01*
X2893110Y-2337968D01*
X2889199Y-2335936D01*
X2885135Y-2334209D01*
X2880969Y-2332939D01*
X2875737Y-2331821D01*
X2872130Y-2330246D01*
X2869387Y-2327452D01*
X2867863Y-2323846D01*
X2867863Y-2319934D01*
X2869336Y-2316327D01*
X2873044Y-2310638D01*
X2877058Y-2301443D01*
X2879547Y-2291689D01*
X2880360Y-2281631D01*
X2879547Y-2271572D01*
X2877058Y-2261819D01*
X2873044Y-2252624D01*
X2867507Y-2244191D01*
X2860700Y-2236774D01*
X2852724Y-2230577D01*
X2843885Y-2225802D01*
X2834386Y-2222500D01*
X2824429Y-2220874D01*
X2814370Y-2220874D01*
X2804414Y-2222500D01*
X2794914Y-2225802D01*
X2787345Y-2229916D01*
X2784957Y-2230831D01*
X2782468Y-2231136D01*
X1693672Y-2231136D01*
X1689049Y-2231339D01*
X1684680Y-2231898D01*
X1680413Y-2232863D01*
X1676196Y-2234184D01*
X1672132Y-2235860D01*
X1668221Y-2237892D01*
X1664512Y-2240280D01*
X1661007Y-2242972D01*
X1657604Y-2246071D01*
X1275384Y-2628290D01*
X1271930Y-2630525D01*
X1267866Y-2631236D01*
X1263853Y-2630271D01*
X1260602Y-2627833D01*
X1258519Y-2624226D01*
X1258062Y-2620162D01*
X1259281Y-2616200D01*
X1260195Y-2614574D01*
X1265529Y-2601112D01*
X1269136Y-2587040D01*
X1270965Y-2572664D01*
X1270965Y-2558135D01*
X1269136Y-2543759D01*
X1265529Y-2529687D01*
X1260195Y-2516225D01*
X1253185Y-2503525D01*
X1244701Y-2491790D01*
X1234744Y-2481224D01*
X1223568Y-2471978D01*
X1211326Y-2464206D01*
X1198219Y-2458008D01*
X1184402Y-2453538D01*
X1170178Y-2450846D01*
X1155700Y-2449931D01*
X1141222Y-2450846D01*
X1126998Y-2453538D01*
X1113180Y-2458008D01*
X1104138Y-2462276D01*
X1100226Y-2463241D01*
X1096264Y-2462580D01*
X1092809Y-2460447D01*
X1090523Y-2457145D01*
X1089660Y-2453233D01*
X1090371Y-2449271D01*
X1092606Y-2445918D01*
X1113739Y-2424785D01*
X1116787Y-2422702D01*
X1120394Y-2421839D01*
X1124051Y-2422296D01*
X1126998Y-2423261D01*
X1141222Y-2425954D01*
X1155700Y-2426868D01*
X1170178Y-2425954D01*
X1184402Y-2423261D01*
X1198219Y-2418791D01*
X1211326Y-2412593D01*
X1223568Y-2404821D01*
X1234744Y-2395575D01*
X1244701Y-2385009D01*
X1253185Y-2373274D01*
X1260195Y-2360574D01*
X1265529Y-2347112D01*
X1269136Y-2333040D01*
X1270965Y-2318664D01*
X1270965Y-2304135D01*
X1269136Y-2289759D01*
X1265529Y-2275687D01*
X1260195Y-2262225D01*
X1253185Y-2249525D01*
X1244701Y-2237790D01*
X1234744Y-2227224D01*
X1223568Y-2217978D01*
X1211326Y-2210206D01*
X1198219Y-2204008D01*
X1184402Y-2199538D01*
X1170178Y-2196846D01*
X1155700Y-2195931D01*
X1141222Y-2196846D01*
X1126998Y-2199538D01*
X1113180Y-2204008D01*
X1100074Y-2210206D01*
X1087831Y-2217978D01*
X1076655Y-2227224D01*
X1066698Y-2237790D01*
X1058214Y-2249525D01*
X1051204Y-2262225D01*
X1045870Y-2275687D01*
X1042263Y-2289759D01*
X1040434Y-2304135D01*
X1040434Y-2318664D01*
X1042263Y-2333040D01*
X1044956Y-2343658D01*
X1045260Y-2347112D01*
X1044346Y-2350465D01*
X1042314Y-2353360D01*
X1023467Y-2372207D01*
X1020165Y-2374442D01*
X1016253Y-2375204D01*
X780491Y-2375204D01*
X776681Y-2374442D01*
X773430Y-2372360D01*
X762812Y-2354986D01*
X753567Y-2343150D01*
X742950Y-2332532D01*
X731113Y-2323287D01*
X718261Y-2315464D01*
X704545Y-2309317D01*
X690168Y-2304846D01*
X675386Y-2302154D01*
X660400Y-2301240D01*
X645414Y-2302154D01*
X630631Y-2304846D01*
X616254Y-2309317D01*
X602538Y-2315464D01*
X589686Y-2323287D01*
X577850Y-2332532D01*
X567232Y-2343150D01*
X557987Y-2354986D01*
X550164Y-2367838D01*
X544017Y-2381554D01*
X539546Y-2395931D01*
X536854Y-2410714D01*
X535940Y-2425700D01*
X536854Y-2440686D01*
X539546Y-2455468D01*
X544017Y-2469845D01*
X550164Y-2483561D01*
X557987Y-2496413D01*
X567232Y-2508250D01*
X577850Y-2518867D01*
X589686Y-2528112D01*
X602538Y-2535936D01*
X616254Y-2542082D01*
X630631Y-2546553D01*
X645414Y-2549245D01*
X660400Y-2550160D01*
X675386Y-2549245D01*
X690168Y-2546553D01*
X704545Y-2542082D01*
X718261Y-2535936D01*
X731113Y-2528112D01*
X742950Y-2518867D01*
X753567Y-2508250D01*
X762812Y-2496413D01*
X773430Y-2479040D01*
X776681Y-2476957D01*
X780491Y-2476195D01*
X1041196Y-2476195D01*
X1045819Y-2475992D01*
X1050188Y-2475433D01*
X1054455Y-2474468D01*
X1057910Y-2473401D01*
X1062278Y-2472994D01*
X1066444Y-2474518D01*
X1069543Y-2477668D01*
X1071016Y-2481834D01*
X1070610Y-2486253D01*
X1068374Y-2490063D01*
X1066698Y-2491790D01*
X1058214Y-2503525D01*
X1054811Y-2509621D01*
X1052576Y-2512415D01*
X1049477Y-2514244D01*
X1045921Y-2514904D01*
X946353Y-2514904D01*
X941730Y-2515108D01*
X937361Y-2515666D01*
X933094Y-2516632D01*
X928878Y-2517952D01*
X924966Y-2519578D01*
X919175Y-2522880D01*
X915822Y-2524048D01*
X912926Y-2524506D01*
X903427Y-2527808D01*
X894587Y-2532583D01*
X886612Y-2538780D01*
X879805Y-2546197D01*
X874268Y-2554630D01*
X870254Y-2563825D01*
X867765Y-2573578D01*
X866952Y-2583637D01*
X867765Y-2593695D01*
X870254Y-2603449D01*
X874268Y-2612644D01*
X879805Y-2621076D01*
X886612Y-2628493D01*
X894587Y-2634691D01*
X903427Y-2639466D01*
X912926Y-2642768D01*
X922883Y-2644394D01*
X932942Y-2644394D01*
X942898Y-2642768D01*
X952398Y-2639466D01*
X961237Y-2634691D01*
X969213Y-2628493D01*
X978662Y-2618028D01*
X981608Y-2616454D01*
X984910Y-2615895D01*
X1045921Y-2615895D01*
X1049477Y-2616555D01*
X1052576Y-2618384D01*
X1054811Y-2621178D01*
X1058214Y-2627274D01*
X1066698Y-2639009D01*
X1076655Y-2649575D01*
X1087831Y-2658821D01*
X1100074Y-2666593D01*
X1113180Y-2672791D01*
X1126998Y-2677261D01*
X1141222Y-2679954D01*
X1155700Y-2680868D01*
X1170178Y-2679954D01*
X1184402Y-2677261D01*
X1198219Y-2672791D01*
X1207262Y-2668524D01*
X1211173Y-2667558D01*
X1215136Y-2668219D01*
X1218590Y-2670352D01*
X1220876Y-2673654D01*
X1221740Y-2677566D01*
X1221028Y-2681528D01*
X1218793Y-2684881D01*
X1197660Y-2706014D01*
X1194612Y-2708097D01*
X1191006Y-2708960D01*
X1187348Y-2708503D01*
X1184402Y-2707538D01*
X1170178Y-2704846D01*
X1155700Y-2703931D01*
X1141222Y-2704846D01*
X1126998Y-2707538D01*
X1113180Y-2712008D01*
X1100074Y-2718206D01*
X1087831Y-2725978D01*
X1076655Y-2735224D01*
X1066698Y-2745790D01*
X1058214Y-2757525D01*
X1051204Y-2770225D01*
X1045870Y-2783687D01*
X1042263Y-2797759D01*
X1040434Y-2812135D01*
X1040434Y-2826664D01*
X1042263Y-2841040D01*
X1045870Y-2855112D01*
X1051204Y-2868574D01*
X1058214Y-2881274D01*
X1066698Y-2893009D01*
X1076655Y-2903575D01*
X1087831Y-2912821D01*
X1100074Y-2920593D01*
X1113180Y-2926791D01*
X1126998Y-2931261D01*
X1141222Y-2933954D01*
X1155700Y-2934868D01*
X1170178Y-2933954D01*
X1184402Y-2931261D01*
X1198219Y-2926791D01*
X1211326Y-2920593D01*
X1223568Y-2912821D01*
X1234744Y-2903575D01*
X1244701Y-2893009D01*
X1253185Y-2881274D01*
X1260195Y-2868574D01*
X1265529Y-2855112D01*
X1269136Y-2841040D01*
X1270965Y-2826664D01*
X1270965Y-2812135D01*
X1269136Y-2797759D01*
X1266444Y-2787142D01*
X1266139Y-2783687D01*
X1267053Y-2780334D01*
X1269085Y-2777439D01*
X1711401Y-2335123D01*
X1714703Y-2332888D01*
X1718614Y-2332126D01*
X2143912Y-2332126D01*
X2147773Y-2332888D01*
X2151075Y-2335123D01*
X2153310Y-2338425D01*
X2154072Y-2342286D01*
X2153310Y-2346198D01*
X2151075Y-2349500D01*
X2092198Y-2408377D01*
X2089505Y-2410307D01*
X2086356Y-2411272D01*
X2083054Y-2411171D01*
X2071319Y-2408834D01*
X2057400Y-2407920D01*
X2043480Y-2408834D01*
X2029764Y-2411526D01*
X2016556Y-2416048D01*
X2004060Y-2422194D01*
X1992477Y-2429967D01*
X1981962Y-2439162D01*
X1972767Y-2449626D01*
X1964994Y-2461260D01*
X1958848Y-2473756D01*
X1954326Y-2486964D01*
X1951634Y-2500680D01*
X1950720Y-2514600D01*
X1951634Y-2528519D01*
X1954326Y-2542235D01*
X1958848Y-2555443D01*
X1964994Y-2567940D01*
X1972767Y-2579522D01*
X1981962Y-2590038D01*
X1992477Y-2599232D01*
X2004060Y-2607005D01*
X2016556Y-2613152D01*
X2029764Y-2617673D01*
X2043480Y-2620365D01*
X2057400Y-2621280D01*
X2071319Y-2620365D01*
X2085035Y-2617673D01*
X2098243Y-2613152D01*
X2110740Y-2607005D01*
X2122373Y-2599232D01*
X2132838Y-2590038D01*
X2142032Y-2579522D01*
X2149805Y-2567940D01*
X2155952Y-2555443D01*
X2160473Y-2542235D01*
X2163165Y-2528519D01*
X2164080Y-2514600D01*
X2163165Y-2500680D01*
X2160828Y-2488946D01*
X2160727Y-2485644D01*
X2161692Y-2482494D01*
X2163622Y-2479802D01*
X2208276Y-2435148D01*
X2211578Y-2432964D01*
X2215438Y-2432202D01*
X2219655Y-2432202D01*
X2223414Y-2432913D01*
X2226665Y-2434996D01*
X2228900Y-2438146D01*
X2229815Y-2441905D01*
X2229256Y-2445715D01*
X2218994Y-2461260D01*
X2212848Y-2473756D01*
X2208326Y-2486964D01*
X2205634Y-2500680D01*
X2204720Y-2514600D01*
X2205634Y-2528519D01*
X2207971Y-2540203D01*
X2208072Y-2543556D01*
X2207107Y-2546705D01*
X2205177Y-2549398D01*
X1734667Y-3019907D01*
X1731365Y-3022142D01*
X1727454Y-3022904D01*
X1265478Y-3022904D01*
X1261922Y-3022244D01*
X1258824Y-3020415D01*
X1256588Y-3017621D01*
X1253185Y-3011525D01*
X1244701Y-2999790D01*
X1234744Y-2989224D01*
X1223568Y-2979978D01*
X1211326Y-2972206D01*
X1198219Y-2966008D01*
X1184402Y-2961538D01*
X1170178Y-2958846D01*
X1155700Y-2957931D01*
X1141222Y-2958846D01*
X1126998Y-2961538D01*
X1113180Y-2966008D01*
X1100074Y-2972206D01*
X1087831Y-2979978D01*
X1076655Y-2989224D01*
X1066698Y-2999790D01*
X1058214Y-3011525D01*
X1051204Y-3024225D01*
X1045870Y-3037687D01*
X1042263Y-3051759D01*
X1040434Y-3066135D01*
X1040434Y-3080664D01*
X1042263Y-3095040D01*
X1045870Y-3109112D01*
X1051204Y-3122574D01*
X1058214Y-3135274D01*
X1066698Y-3147009D01*
X1076655Y-3157575D01*
X1087831Y-3166821D01*
X1100074Y-3174593D01*
X1113180Y-3180791D01*
X1126998Y-3185261D01*
X1141222Y-3187954D01*
X1155700Y-3188868D01*
X1170178Y-3187954D01*
X1184402Y-3185261D01*
X1198219Y-3180791D01*
X1211326Y-3174593D01*
X1223568Y-3166821D01*
X1234744Y-3157575D01*
X1244701Y-3147009D01*
X1253185Y-3135274D01*
X1256588Y-3129178D01*
X1258824Y-3126384D01*
X1261922Y-3124555D01*
X1265478Y-3123895D01*
X1752396Y-3123895D01*
X1757019Y-3123692D01*
X1761388Y-3123133D01*
X1765655Y-3122168D01*
X1769872Y-3120847D01*
X1773936Y-3119170D01*
X1777847Y-3117138D01*
X1781556Y-3114751D01*
X1785061Y-3112058D01*
X1788464Y-3108960D01*
X2276602Y-2620822D01*
X2279294Y-2618892D01*
X2282444Y-2617927D01*
X2285796Y-2618028D01*
X2297480Y-2620365D01*
X2311400Y-2621280D01*
X2325319Y-2620365D01*
X2339035Y-2617673D01*
X2352243Y-2613152D01*
X2364740Y-2607005D01*
X2376373Y-2599232D01*
X2386838Y-2590038D01*
X2396032Y-2579522D01*
X2403805Y-2567940D01*
X2409952Y-2555443D01*
X2414473Y-2542235D01*
X2417165Y-2528519D01*
X2418080Y-2514600D01*
X2417165Y-2500680D01*
X2414473Y-2486964D01*
X2409952Y-2473756D01*
X2403805Y-2461260D01*
X2393543Y-2445715D01*
X2392984Y-2441905D01*
X2393899Y-2438146D01*
X2396134Y-2434996D01*
X2399385Y-2432913D01*
X2403144Y-2432202D01*
X2473655Y-2432202D01*
X2477414Y-2432913D01*
X2480665Y-2434996D01*
X2482900Y-2438146D01*
X2483815Y-2441905D01*
X2483256Y-2445715D01*
X2472994Y-2461260D01*
X2466848Y-2473756D01*
X2462326Y-2486964D01*
X2459634Y-2500680D01*
X2458720Y-2514600D01*
X2459634Y-2528519D01*
X2461971Y-2540203D01*
X2462072Y-2543556D01*
X2461107Y-2546705D01*
X2459177Y-2549398D01*
X1734667Y-3273907D01*
X1731365Y-3276142D01*
X1727454Y-3276904D01*
X1265478Y-3276904D01*
X1261922Y-3276244D01*
X1258824Y-3274415D01*
X1256588Y-3271621D01*
X1253185Y-3265525D01*
X1244701Y-3253790D01*
X1234744Y-3243224D01*
X1223568Y-3233978D01*
X1211326Y-3226206D01*
X1198219Y-3220008D01*
X1184402Y-3215538D01*
X1170178Y-3212846D01*
X1155700Y-3211931D01*
X1141222Y-3212846D01*
X1126998Y-3215538D01*
X1113180Y-3220008D01*
X1100074Y-3226206D01*
X1087831Y-3233978D01*
X1076655Y-3243224D01*
X1066698Y-3253790D01*
X1058214Y-3265525D01*
X1051001Y-3278784D01*
X1048816Y-3282137D01*
X1045514Y-3284372D01*
X1041603Y-3285185D01*
X1037691Y-3284423D01*
X1034338Y-3282238D01*
X561390Y-2809240D01*
X557936Y-2806141D01*
X554482Y-2803448D01*
X550773Y-2801061D01*
X546862Y-2799029D01*
X542747Y-2797352D01*
X538581Y-2796032D01*
X534263Y-2795066D01*
X529894Y-2794508D01*
X525272Y-2794304D01*
X264820Y-2794304D01*
X261569Y-2793746D01*
X258622Y-2792171D01*
X256387Y-2789783D01*
X249732Y-2779877D01*
X240538Y-2769362D01*
X230022Y-2760167D01*
X218440Y-2752394D01*
X205943Y-2746248D01*
X192735Y-2741726D01*
X179019Y-2739034D01*
X165100Y-2738120D01*
X151180Y-2739034D01*
X137464Y-2741726D01*
X124256Y-2746248D01*
X111760Y-2752394D01*
X100177Y-2760167D01*
X89662Y-2769362D01*
X80467Y-2779877D01*
X72694Y-2791460D01*
X66548Y-2803956D01*
X62026Y-2817164D01*
X59334Y-2830880D01*
X58419Y-2844800D01*
X59334Y-2858719D01*
X62026Y-2872435D01*
X66548Y-2885643D01*
X72694Y-2898140D01*
X80467Y-2909722D01*
X89662Y-2920238D01*
X100177Y-2929432D01*
X111760Y-2937205D01*
X124256Y-2943352D01*
X137464Y-2947873D01*
X151180Y-2950565D01*
X165100Y-2951480D01*
X179019Y-2950565D01*
X192735Y-2947873D01*
X205943Y-2943352D01*
X218440Y-2937205D01*
X230022Y-2929432D01*
X240538Y-2920238D01*
X249732Y-2909722D01*
X256387Y-2899816D01*
X258622Y-2897428D01*
X261569Y-2895854D01*
X264820Y-2895295D01*
X500380Y-2895295D01*
X504240Y-2896057D01*
X507542Y-2898292D01*
X655828Y-3046577D01*
X658012Y-3049778D01*
X658825Y-3053537D01*
X658164Y-3057347D01*
X656132Y-3060649D01*
X653034Y-3062935D01*
X649274Y-3063900D01*
X645414Y-3064154D01*
X630631Y-3066846D01*
X616254Y-3071317D01*
X602538Y-3077464D01*
X589686Y-3085287D01*
X577850Y-3094532D01*
X567232Y-3105150D01*
X557987Y-3116986D01*
X550164Y-3129838D01*
X544017Y-3143554D01*
X539546Y-3157931D01*
X536854Y-3172714D01*
X535940Y-3187700D01*
X536854Y-3202686D01*
X539546Y-3217468D01*
X544017Y-3231845D01*
X550164Y-3245561D01*
X557987Y-3258413D01*
X567232Y-3270250D01*
X577850Y-3280867D01*
X589686Y-3290112D01*
X602538Y-3297936D01*
X616254Y-3304082D01*
X630631Y-3308553D01*
X645414Y-3311245D01*
X660400Y-3312160D01*
X675386Y-3311245D01*
X690168Y-3308553D01*
X699312Y-3305708D01*
X702919Y-3305251D01*
X706475Y-3306165D01*
X709523Y-3308248D01*
X762863Y-3361588D01*
X765048Y-3364890D01*
X765810Y-3368751D01*
X765810Y-4045407D01*
X765048Y-4049268D01*
X762863Y-4052570D01*
X759561Y-4054754D01*
X755650Y-4055567D01*
X751789Y-4054754D01*
X748487Y-4052570D01*
X742950Y-4047032D01*
X731113Y-4037787D01*
X718261Y-4029964D01*
X704545Y-4023817D01*
X690168Y-4019346D01*
X675386Y-4016654D01*
X660400Y-4015740D01*
X645414Y-4016654D01*
X630631Y-4019346D01*
X616254Y-4023817D01*
X602538Y-4029964D01*
X589686Y-4037787D01*
X577850Y-4047032D01*
X567232Y-4057650D01*
X557987Y-4069486D01*
X550164Y-4082338D01*
X544017Y-4096054D01*
X539546Y-4110431D01*
X536854Y-4125214D01*
X535940Y-4140200D01*
X536854Y-4155186D01*
X539546Y-4169968D01*
X544017Y-4184345D01*
X550164Y-4198061D01*
X557987Y-4210913D01*
X567232Y-4222750D01*
X577850Y-4233367D01*
X589686Y-4242612D01*
X602538Y-4250436D01*
X616254Y-4256582D01*
X630631Y-4261053D01*
X645414Y-4263745D01*
X660400Y-4264660D01*
X675386Y-4263745D01*
X690168Y-4261053D01*
X704545Y-4256582D01*
X718261Y-4250436D01*
X731113Y-4242612D01*
X742950Y-4233367D01*
X748487Y-4227830D01*
X751789Y-4225645D01*
X755650Y-4224832D01*
X759561Y-4225645D01*
X762863Y-4227830D01*
X765048Y-4231132D01*
X765810Y-4234992D01*
X765810Y-4721148D01*
X765048Y-4725009D01*
X762863Y-4728311D01*
X709523Y-4781651D01*
X706475Y-4783734D01*
X702919Y-4784648D01*
X699312Y-4784191D01*
X690168Y-4781346D01*
X675386Y-4778654D01*
X660400Y-4777740D01*
X645414Y-4778654D01*
X630631Y-4781346D01*
X616254Y-4785817D01*
X602538Y-4791964D01*
X589686Y-4799787D01*
X577850Y-4809032D01*
X567232Y-4819650D01*
X557987Y-4831486D01*
X550164Y-4844338D01*
X544017Y-4858054D01*
X539546Y-4872431D01*
X536854Y-4887214D01*
X535940Y-4902200D01*
X536854Y-4917186D01*
X539546Y-4931968D01*
X544017Y-4946345D01*
X550164Y-4960061D01*
X557987Y-4972913D01*
X567232Y-4984750D01*
X577850Y-4995367D01*
X589686Y-5004612D01*
X602538Y-5012436D01*
X616254Y-5018582D01*
X630631Y-5023053D01*
X645414Y-5025745D01*
X660400Y-5026660D01*
X675386Y-5025745D01*
X690168Y-5023053D01*
X699312Y-5020208D01*
X702919Y-5019751D01*
X706475Y-5020665D01*
X709523Y-5022748D01*
X962914Y-5276138D01*
X966317Y-5279237D01*
X969822Y-5281930D01*
X973531Y-5284317D01*
X977442Y-5286349D01*
X981506Y-5288026D01*
X985723Y-5289346D01*
X989990Y-5290312D01*
X994359Y-5290870D01*
X998982Y-5291074D01*
X1265275Y-5291074D01*
X1269898Y-5290870D01*
X1274267Y-5290312D01*
X1278585Y-5289346D01*
X1282750Y-5288026D01*
X1286865Y-5286349D01*
X1290777Y-5284317D01*
X1294485Y-5281930D01*
X1297940Y-5279237D01*
X1301394Y-5276138D01*
X1639417Y-4938064D01*
X1642567Y-4934661D01*
X1645259Y-4931156D01*
X1647596Y-4927447D01*
X1649628Y-4923536D01*
X1651355Y-4919472D01*
X1652676Y-4915255D01*
X1653590Y-4910988D01*
X1654200Y-4906619D01*
X1654403Y-4901996D01*
X1654403Y-3792423D01*
X1655165Y-3788511D01*
X1657350Y-3785209D01*
X1931974Y-3510635D01*
X1934464Y-3508806D01*
X1946960Y-3504539D01*
X1955800Y-3499713D01*
X1963775Y-3493566D01*
X1970582Y-3486150D01*
X1976120Y-3477717D01*
X1980133Y-3468471D01*
X1981504Y-3463086D01*
X1982520Y-3460597D01*
X1984146Y-3458413D01*
X2196033Y-3246526D01*
X2199335Y-3244342D01*
X2203246Y-3243580D01*
X3523640Y-3243580D01*
X3526129Y-3243884D01*
X3528466Y-3244799D01*
X3536035Y-3248914D01*
X3545586Y-3252165D01*
X3555492Y-3253841D01*
X3565601Y-3253841D01*
X3575507Y-3252165D01*
X3585057Y-3248914D01*
X3587242Y-3247694D01*
X3590950Y-3246526D01*
X3594811Y-3246831D01*
X3598316Y-3248609D01*
X3600856Y-3251504D01*
X3602126Y-3255213D01*
X3601923Y-3259074D01*
X3600297Y-3262629D01*
X3598214Y-3265525D01*
X3591204Y-3278225D01*
X3585870Y-3291687D01*
X3582263Y-3305759D01*
X3580434Y-3320135D01*
X3580434Y-3334664D01*
X3582263Y-3349040D01*
X3585870Y-3363112D01*
X3591204Y-3376574D01*
X3598214Y-3389274D01*
X3606698Y-3401009D01*
X3616655Y-3411575D01*
X3627831Y-3420821D01*
X3640074Y-3428593D01*
X3653180Y-3434791D01*
X3666998Y-3439261D01*
X3681222Y-3441954D01*
X3695700Y-3442868D01*
X3710178Y-3441954D01*
X3724401Y-3439261D01*
X3738219Y-3434791D01*
X3751326Y-3428593D01*
X3763568Y-3420821D01*
X3771290Y-3414420D01*
X3774643Y-3412591D01*
X3778402Y-3412134D01*
X3782110Y-3413099D01*
X3785209Y-3415334D01*
X3787241Y-3418535D01*
X3787952Y-3422294D01*
X3787952Y-3486505D01*
X3787241Y-3490264D01*
X3785209Y-3493465D01*
X3782110Y-3495700D01*
X3778402Y-3496665D01*
X3774643Y-3496208D01*
X3771290Y-3494379D01*
X3763568Y-3487978D01*
X3751326Y-3480206D01*
X3738219Y-3474008D01*
X3724401Y-3469538D01*
X3710178Y-3466846D01*
X3695700Y-3465931D01*
X3681222Y-3466846D01*
X3666998Y-3469538D01*
X3653180Y-3474008D01*
X3640074Y-3480206D01*
X3627831Y-3487978D01*
X3616655Y-3497224D01*
X3606698Y-3507790D01*
X3598214Y-3519525D01*
X3591204Y-3532225D01*
X3585870Y-3545687D01*
X3582263Y-3559759D01*
X3580434Y-3574135D01*
X3580434Y-3588664D01*
X3582263Y-3603040D01*
X3585870Y-3617112D01*
X3591204Y-3630574D01*
X3598214Y-3643274D01*
X3606698Y-3655009D01*
X3616655Y-3665575D01*
X3627831Y-3674821D01*
X3640074Y-3682593D01*
X3653180Y-3688791D01*
X3666998Y-3693261D01*
X3681222Y-3695954D01*
X3695700Y-3696868D01*
X3710178Y-3695954D01*
X3724401Y-3693261D01*
X3738219Y-3688791D01*
X3751326Y-3682593D01*
X3763568Y-3674821D01*
X3771290Y-3668420D01*
X3774643Y-3666591D01*
X3778402Y-3666134D01*
X3782110Y-3667099D01*
X3785209Y-3669334D01*
X3787241Y-3672535D01*
X3787952Y-3676294D01*
X3787952Y-3740505D01*
X3787241Y-3744264D01*
X3785209Y-3747465D01*
X3782110Y-3749700D01*
X3778402Y-3750665D01*
X3774643Y-3750208D01*
X3771290Y-3748379D01*
X3763568Y-3741978D01*
X3751326Y-3734206D01*
X3738219Y-3728008D01*
X3724401Y-3723538D01*
X3710178Y-3720846D01*
X3695700Y-3719931D01*
X3681222Y-3720846D01*
X3666998Y-3723538D01*
X3653180Y-3728008D01*
X3640074Y-3734206D01*
X3627831Y-3741978D01*
X3616655Y-3751224D01*
X3606698Y-3761790D01*
X3598214Y-3773525D01*
X3591204Y-3786225D01*
X3585870Y-3799687D01*
X3582263Y-3813759D01*
X3580434Y-3828135D01*
X3580434Y-3842664D01*
X3582263Y-3857040D01*
X3585870Y-3871112D01*
X3591204Y-3884574D01*
X3598214Y-3897274D01*
X3606698Y-3909009D01*
X3616655Y-3919575D01*
X3627831Y-3928821D01*
X3640074Y-3936593D01*
X3653180Y-3942791D01*
X3666998Y-3947261D01*
X3681222Y-3949954D01*
X3695700Y-3950868D01*
X3710178Y-3949954D01*
X3724401Y-3947261D01*
X3738219Y-3942791D01*
X3751326Y-3936593D01*
X3763568Y-3928821D01*
X3771290Y-3922420D01*
X3774643Y-3920591D01*
X3778402Y-3920134D01*
X3782110Y-3921099D01*
X3785209Y-3923334D01*
X3787241Y-3926535D01*
X3787952Y-3930294D01*
X3787952Y-3994505D01*
X3787241Y-3998264D01*
X3785209Y-4001465D01*
X3782110Y-4003700D01*
X3778402Y-4004665D01*
X3774643Y-4004208D01*
X3771290Y-4002379D01*
X3763568Y-3995978D01*
X3751326Y-3988206D01*
X3738219Y-3982008D01*
X3724401Y-3977538D01*
X3710178Y-3974846D01*
X3695700Y-3973931D01*
X3681222Y-3974846D01*
X3666998Y-3977538D01*
X3653180Y-3982008D01*
X3640074Y-3988206D01*
X3627831Y-3995978D01*
X3616655Y-4005224D01*
X3606698Y-4015790D01*
X3598214Y-4027525D01*
X3591204Y-4040225D01*
X3585870Y-4053687D01*
X3582263Y-4067759D01*
X3580434Y-4082135D01*
X3580434Y-4096664D01*
X3582263Y-4111040D01*
X3585870Y-4125112D01*
X3591204Y-4138574D01*
X3598214Y-4151274D01*
X3606698Y-4163009D01*
X3616655Y-4173575D01*
X3627831Y-4182821D01*
X3640074Y-4190593D01*
X3653180Y-4196791D01*
X3666998Y-4201261D01*
X3681222Y-4203954D01*
X3695700Y-4204868D01*
X3710178Y-4203954D01*
X3724401Y-4201261D01*
X3738219Y-4196791D01*
X3751326Y-4190593D01*
X3763568Y-4182821D01*
X3771290Y-4176420D01*
X3774643Y-4174591D01*
X3778402Y-4174134D01*
X3782110Y-4175099D01*
X3785209Y-4177334D01*
X3787241Y-4180535D01*
X3787952Y-4184294D01*
X3787952Y-4248505D01*
X3787241Y-4252264D01*
X3785209Y-4255465D01*
X3782110Y-4257700D01*
X3778402Y-4258665D01*
X3774643Y-4258208D01*
X3771290Y-4256379D01*
X3763568Y-4249978D01*
X3751326Y-4242206D01*
X3738219Y-4236008D01*
X3724401Y-4231538D01*
X3710178Y-4228846D01*
X3695700Y-4227931D01*
X3681222Y-4228846D01*
X3666998Y-4231538D01*
X3653180Y-4236008D01*
X3640074Y-4242206D01*
X3627831Y-4249978D01*
X3616655Y-4259224D01*
X3606698Y-4269790D01*
X3598214Y-4281525D01*
X3591204Y-4294225D01*
X3585870Y-4307687D01*
X3582263Y-4321759D01*
X3580434Y-4336135D01*
X3580434Y-4350664D01*
X3582263Y-4365040D01*
X3584956Y-4375658D01*
X3585260Y-4379112D01*
X3584346Y-4382465D01*
X3582314Y-4385360D01*
X3394608Y-4573066D01*
X3392119Y-4574895D01*
X3379622Y-4579162D01*
X3370783Y-4583938D01*
X3362807Y-4590135D01*
X3356000Y-4597552D01*
X3350463Y-4605985D01*
X3346450Y-4615180D01*
X3343960Y-4624933D01*
X3343148Y-4634992D01*
X3343960Y-4645050D01*
X3346450Y-4654804D01*
X3350463Y-4663998D01*
X3356000Y-4672431D01*
X3362807Y-4679848D01*
X3370783Y-4686046D01*
X3379622Y-4690821D01*
X3389122Y-4694123D01*
X3399078Y-4695748D01*
X3409137Y-4695748D01*
X3419094Y-4694123D01*
X3428593Y-4690821D01*
X3437432Y-4686046D01*
X3445408Y-4679848D01*
X3452215Y-4672431D01*
X3457752Y-4663998D01*
X3461765Y-4654804D01*
X3463137Y-4649419D01*
X3464153Y-4646879D01*
X3465779Y-4644745D01*
X3576015Y-4534509D01*
X3579469Y-4532274D01*
X3583533Y-4531563D01*
X3587546Y-4532528D01*
X3590798Y-4534966D01*
X3592880Y-4538573D01*
X3593337Y-4542637D01*
X3592118Y-4546600D01*
X3591204Y-4548225D01*
X3585870Y-4561687D01*
X3582263Y-4575759D01*
X3580434Y-4590135D01*
X3580434Y-4604664D01*
X3582263Y-4619040D01*
X3585870Y-4633112D01*
X3591204Y-4646574D01*
X3598214Y-4659274D01*
X3606698Y-4671009D01*
X3616655Y-4681575D01*
X3627831Y-4690821D01*
X3640074Y-4698593D01*
X3653180Y-4704791D01*
X3666998Y-4709261D01*
X3681222Y-4711954D01*
X3695700Y-4712868D01*
X3710178Y-4711954D01*
X3724401Y-4709261D01*
X3738219Y-4704791D01*
X3751326Y-4698593D01*
X3763568Y-4690821D01*
X3771290Y-4684420D01*
X3774643Y-4682591D01*
X3778402Y-4682134D01*
X3782110Y-4683099D01*
X3785209Y-4685334D01*
X3787241Y-4688535D01*
X3787952Y-4692294D01*
X3787952Y-4756505D01*
X3787241Y-4760264D01*
X3785209Y-4763465D01*
X3782110Y-4765700D01*
X3778402Y-4766665D01*
X3774643Y-4766208D01*
X3771290Y-4764379D01*
X3763568Y-4757978D01*
X3751326Y-4750206D01*
X3738219Y-4744008D01*
X3724401Y-4739538D01*
X3710178Y-4736846D01*
X3695700Y-4735931D01*
X3681222Y-4736846D01*
X3666998Y-4739538D01*
X3653180Y-4744008D01*
X3640074Y-4750206D01*
X3627831Y-4757978D01*
X3616655Y-4767224D01*
X3606698Y-4777790D01*
X3598214Y-4789525D01*
X3591204Y-4802225D01*
X3585870Y-4815687D01*
X3582263Y-4829759D01*
X3580434Y-4844135D01*
X3580434Y-4858664D01*
X3582263Y-4873040D01*
X3585870Y-4887112D01*
X3591204Y-4900574D01*
X3598214Y-4913274D01*
X3606698Y-4925009D01*
X3616655Y-4935575D01*
X3627831Y-4944821D01*
X3640074Y-4952593D01*
X3653180Y-4958791D01*
X3666998Y-4963261D01*
X3681222Y-4965954D01*
X3695700Y-4966868D01*
X3710178Y-4965954D01*
X3724401Y-4963261D01*
X3738219Y-4958791D01*
X3751326Y-4952593D01*
X3763568Y-4944821D01*
X3771290Y-4938420D01*
X3774643Y-4936591D01*
X3778402Y-4936134D01*
X3782110Y-4937099D01*
X3785209Y-4939334D01*
X3787241Y-4942535D01*
X3787952Y-4946294D01*
X3787952Y-4979771D01*
X3787190Y-4983632D01*
X3784955Y-4986934D01*
X3781653Y-4989169D01*
X3777792Y-4989931D01*
X3611219Y-4989931D01*
X3604768Y-4990541D01*
X3599078Y-4992268D01*
X3593795Y-4995113D01*
X3589172Y-4998872D01*
X3585413Y-5003495D01*
X3582568Y-5008778D01*
X3580841Y-5014468D01*
X3580231Y-5020919D01*
X3580231Y-5189931D01*
X3580841Y-5196382D01*
X3582568Y-5202072D01*
X3585413Y-5207355D01*
X3589172Y-5211978D01*
X3593795Y-5215737D01*
X3599078Y-5218582D01*
X3604768Y-5220309D01*
X3611219Y-5220919D01*
X3725265Y-5220919D01*
X3729177Y-5221732D01*
X3732479Y-5223916D01*
X3734663Y-5227218D01*
X3735425Y-5231079D01*
X3734663Y-5234990D01*
X3732479Y-5238292D01*
X3283102Y-5687618D01*
X3279800Y-5689854D01*
X3275939Y-5690616D01*
X2964129Y-5690616D01*
X2959862Y-5689650D01*
X2956407Y-5687060D01*
X2954375Y-5683199D01*
X2954121Y-5678830D01*
X2955696Y-5674817D01*
X2961487Y-5666130D01*
X2967583Y-5653735D01*
X2972003Y-5640679D01*
X2974695Y-5627166D01*
X2975610Y-5613400D01*
X2974695Y-5599633D01*
X2972003Y-5586120D01*
X2967583Y-5573064D01*
X2961487Y-5560669D01*
X2953816Y-5549239D01*
X2944723Y-5538876D01*
X2934360Y-5529783D01*
X2925216Y-5523636D01*
X2922828Y-5521401D01*
X2921254Y-5518454D01*
X2920695Y-5515203D01*
X2920695Y-4546803D01*
X2920492Y-4542180D01*
X2919933Y-4537811D01*
X2918968Y-4533544D01*
X2917647Y-4529328D01*
X2915970Y-4525264D01*
X2913938Y-4521352D01*
X2911551Y-4517644D01*
X2908858Y-4514138D01*
X2905760Y-4510735D01*
X2266848Y-3871823D01*
X2264765Y-3868775D01*
X2263851Y-3865219D01*
X2264308Y-3861612D01*
X2267153Y-3852468D01*
X2269845Y-3837686D01*
X2270760Y-3822700D01*
X2269845Y-3807714D01*
X2267153Y-3792931D01*
X2262682Y-3778554D01*
X2256536Y-3764838D01*
X2248712Y-3751986D01*
X2239467Y-3740150D01*
X2228850Y-3729532D01*
X2217013Y-3720287D01*
X2204161Y-3712464D01*
X2190445Y-3706317D01*
X2176068Y-3701846D01*
X2161286Y-3699154D01*
X2146300Y-3698240D01*
X2131314Y-3699154D01*
X2116531Y-3701846D01*
X2102154Y-3706317D01*
X2088438Y-3712464D01*
X2075586Y-3720287D01*
X2063750Y-3729532D01*
X2053132Y-3740150D01*
X2043887Y-3751986D01*
X2036064Y-3764838D01*
X2029917Y-3778554D01*
X2025446Y-3792931D01*
X2022754Y-3807714D01*
X2021839Y-3822700D01*
X2022754Y-3837686D01*
X2025446Y-3852468D01*
X2029917Y-3866845D01*
X2036064Y-3880561D01*
X2043887Y-3893413D01*
X2053132Y-3905250D01*
X2063750Y-3915867D01*
X2075586Y-3925112D01*
X2088438Y-3932936D01*
X2102154Y-3939082D01*
X2116531Y-3943553D01*
X2131314Y-3946245D01*
X2146300Y-3947160D01*
X2161286Y-3946245D01*
X2176068Y-3943553D01*
X2185212Y-3940708D01*
X2188819Y-3940251D01*
X2192375Y-3941165D01*
X2195423Y-3943248D01*
X2816707Y-4564532D01*
X2818942Y-4567834D01*
X2819704Y-4571746D01*
X2819704Y-5515203D01*
X2819146Y-5518454D01*
X2817571Y-5521401D01*
X2815183Y-5523636D01*
X2806039Y-5529783D01*
X2795676Y-5538876D01*
X2786583Y-5549239D01*
X2778912Y-5560669D01*
X2772816Y-5573064D01*
X2768396Y-5586120D01*
X2765704Y-5599633D01*
X2764790Y-5613400D01*
X2765704Y-5627166D01*
X2768396Y-5640679D01*
X2772816Y-5653735D01*
X2778912Y-5666130D01*
X2784703Y-5674817D01*
X2786278Y-5678830D01*
X2786024Y-5683199D01*
X2783992Y-5687060D01*
X2780538Y-5689650D01*
X2776270Y-5690616D01*
X2769057Y-5690616D01*
X2765145Y-5689854D01*
X2761843Y-5687618D01*
X2721356Y-5647131D01*
X2719425Y-5644438D01*
X2718460Y-5641238D01*
X2718562Y-5637936D01*
X2720695Y-5627166D01*
X2721610Y-5613400D01*
X2720695Y-5599633D01*
X2718003Y-5586120D01*
X2713583Y-5573064D01*
X2707487Y-5560669D01*
X2699816Y-5549239D01*
X2690723Y-5538876D01*
X2680360Y-5529783D01*
X2668930Y-5522112D01*
X2656535Y-5516016D01*
X2643479Y-5511596D01*
X2629966Y-5508904D01*
X2616200Y-5507990D01*
X2602433Y-5508904D01*
X2588920Y-5511596D01*
X2575864Y-5516016D01*
X2563469Y-5522112D01*
X2552039Y-5529783D01*
X2541676Y-5538876D01*
X2532583Y-5549239D01*
X2524912Y-5560669D01*
X2518816Y-5573064D01*
X2514396Y-5586120D01*
X2511704Y-5599633D01*
X2510790Y-5613400D01*
X2511704Y-5627166D01*
X2514396Y-5640679D01*
X2518816Y-5653735D01*
X2524912Y-5666130D01*
X2532583Y-5677560D01*
X2541676Y-5687923D01*
X2552039Y-5697016D01*
X2563469Y-5704687D01*
X2575864Y-5710783D01*
X2588920Y-5715203D01*
X2602433Y-5717895D01*
X2616200Y-5718810D01*
X2629966Y-5717895D01*
X2640736Y-5715762D01*
X2644038Y-5715660D01*
X2647238Y-5716625D01*
X2649931Y-5718556D01*
X2708046Y-5776671D01*
X2711450Y-5779770D01*
X2714955Y-5782462D01*
X2718663Y-5784850D01*
X2722575Y-5786882D01*
X2726639Y-5788558D01*
X2730855Y-5789879D01*
X2735122Y-5790844D01*
X2739491Y-5791403D01*
X2744114Y-5791606D01*
X3300679Y-5791606D01*
X3304590Y-5792368D01*
X3307892Y-5794603D01*
X3310077Y-5797905D01*
X3310839Y-5801766D01*
X3310077Y-5805678D01*
X3307892Y-5808980D01*
X2366721Y-6750100D01*
X2363216Y-6752386D01*
X2359050Y-6753047D01*
X2354935Y-6751980D01*
X2351684Y-6749338D01*
X2349754Y-6745579D01*
X2349500Y-6741363D01*
X2351278Y-6730136D01*
X2352243Y-6711594D01*
X2351278Y-6693052D01*
X2348382Y-6674662D01*
X2343658Y-6656679D01*
X2337104Y-6639306D01*
X2328824Y-6622694D01*
X2318816Y-6606997D01*
X2307285Y-6592417D01*
X2294331Y-6579108D01*
X2280056Y-6567220D01*
X2264664Y-6556857D01*
X2256993Y-6552793D01*
X2253640Y-6549898D01*
X2251811Y-6545783D01*
X2251913Y-6541363D01*
X2253894Y-6537350D01*
X2257399Y-6534607D01*
X2261768Y-6533642D01*
X2404465Y-6533642D01*
X2409088Y-6533438D01*
X2413457Y-6532880D01*
X2417775Y-6531914D01*
X2421940Y-6530594D01*
X2426055Y-6528917D01*
X2429967Y-6526885D01*
X2433675Y-6524498D01*
X2437130Y-6521805D01*
X2440584Y-6518706D01*
X2637028Y-6322263D01*
X2640126Y-6318808D01*
X2642819Y-6315354D01*
X2645206Y-6311646D01*
X2647238Y-6307734D01*
X2648915Y-6303619D01*
X2650236Y-6299454D01*
X2651201Y-6295136D01*
X2651760Y-6290767D01*
X2651963Y-6286144D01*
X2651963Y-6106871D01*
X2651760Y-6102248D01*
X2651201Y-6097879D01*
X2650236Y-6093612D01*
X2648915Y-6089396D01*
X2647238Y-6085332D01*
X2645206Y-6081420D01*
X2642819Y-6077712D01*
X2640126Y-6074206D01*
X2637028Y-6070803D01*
X2302408Y-5736183D01*
X2300224Y-5732881D01*
X2299411Y-5729020D01*
X2300224Y-5725109D01*
X2302408Y-5721807D01*
X2305710Y-5719622D01*
X2309571Y-5718860D01*
X2318359Y-5718860D01*
X2318359Y-5676239D01*
X2319121Y-5672378D01*
X2321306Y-5669076D01*
X2324557Y-5666892D01*
X2328418Y-5666079D01*
X2332278Y-5666740D01*
X2335580Y-5668873D01*
X2337816Y-5672074D01*
X2340254Y-5677509D01*
X2343861Y-5682335D01*
X2348433Y-5686044D01*
X2353767Y-5688584D01*
X2359914Y-5689854D01*
X2362352Y-5689904D01*
X2368702Y-5689142D01*
X2374239Y-5687060D01*
X2379116Y-5683707D01*
X2383231Y-5679033D01*
X2385110Y-5675934D01*
X2386330Y-5672632D01*
X2388463Y-5669229D01*
X2391765Y-5666943D01*
X2395677Y-5666079D01*
X2399639Y-5666790D01*
X2402992Y-5668975D01*
X2405227Y-5672277D01*
X2406040Y-5676239D01*
X2406040Y-5718860D01*
X2436622Y-5718860D01*
X2443073Y-5718200D01*
X2448763Y-5716473D01*
X2454046Y-5713679D01*
X2458669Y-5709869D01*
X2462479Y-5705246D01*
X2465273Y-5699963D01*
X2467000Y-5694273D01*
X2467660Y-5687822D01*
X2467660Y-5657240D01*
X2425039Y-5657240D01*
X2421178Y-5656478D01*
X2417876Y-5654294D01*
X2415692Y-5651042D01*
X2414879Y-5647182D01*
X2415540Y-5643321D01*
X2417673Y-5640019D01*
X2420874Y-5637784D01*
X2426309Y-5635345D01*
X2431135Y-5631738D01*
X2434844Y-5627166D01*
X2437384Y-5621832D01*
X2438603Y-5615787D01*
X2438603Y-5610809D01*
X2438044Y-5607100D01*
X2435860Y-5601360D01*
X2432507Y-5596483D01*
X2427833Y-5592368D01*
X2424734Y-5590489D01*
X2421432Y-5589270D01*
X2418029Y-5587136D01*
X2415743Y-5583834D01*
X2414879Y-5579922D01*
X2415590Y-5575960D01*
X2417775Y-5572607D01*
X2421077Y-5570372D01*
X2425039Y-5569610D01*
X2467660Y-5569610D01*
X2467660Y-5538978D01*
X2467000Y-5532526D01*
X2465273Y-5526836D01*
X2462479Y-5521553D01*
X2458669Y-5516930D01*
X2454046Y-5513120D01*
X2448763Y-5510326D01*
X2443073Y-5508599D01*
X2436622Y-5507939D01*
X2406040Y-5507939D01*
X2406040Y-5550560D01*
X2405278Y-5554421D01*
X2403094Y-5557723D01*
X2399842Y-5559907D01*
X2395982Y-5560720D01*
X2392121Y-5560060D01*
X2388819Y-5557926D01*
X2386584Y-5554726D01*
X2384145Y-5549290D01*
X2380538Y-5544464D01*
X2375966Y-5540756D01*
X2370632Y-5538216D01*
X2364587Y-5536996D01*
X2359609Y-5536996D01*
X2355900Y-5537555D01*
X2350160Y-5539740D01*
X2345283Y-5543092D01*
X2341168Y-5547766D01*
X2339289Y-5550865D01*
X2338070Y-5554167D01*
X2335936Y-5557570D01*
X2332634Y-5559856D01*
X2328722Y-5560720D01*
X2324760Y-5560009D01*
X2321407Y-5557824D01*
X2319172Y-5554522D01*
X2318359Y-5550560D01*
X2318359Y-5507939D01*
X2287778Y-5507939D01*
X2281326Y-5508599D01*
X2275636Y-5510326D01*
X2270353Y-5513120D01*
X2265730Y-5516930D01*
X2261920Y-5521553D01*
X2259126Y-5526836D01*
X2257399Y-5532526D01*
X2256739Y-5538978D01*
X2256739Y-5569610D01*
X2299360Y-5569610D01*
X2303221Y-5570321D01*
X2306523Y-5572506D01*
X2308707Y-5575757D01*
X2309520Y-5579618D01*
X2308860Y-5583478D01*
X2306726Y-5586780D01*
X2303526Y-5589016D01*
X2298090Y-5591454D01*
X2293264Y-5595061D01*
X2289556Y-5599633D01*
X2287016Y-5604967D01*
X2285796Y-5611012D01*
X2285796Y-5615990D01*
X2286355Y-5619699D01*
X2288540Y-5625439D01*
X2291892Y-5630316D01*
X2296566Y-5634431D01*
X2299665Y-5636310D01*
X2302967Y-5637530D01*
X2306370Y-5639663D01*
X2308656Y-5642965D01*
X2309520Y-5646877D01*
X2308809Y-5650839D01*
X2306624Y-5654192D01*
X2303322Y-5656427D01*
X2299360Y-5657240D01*
X2256739Y-5657240D01*
X2256739Y-5666028D01*
X2255977Y-5669889D01*
X2253792Y-5673191D01*
X2250490Y-5675376D01*
X2246579Y-5676188D01*
X2242718Y-5675376D01*
X2239416Y-5673191D01*
X2213356Y-5647131D01*
X2211425Y-5644438D01*
X2210460Y-5641238D01*
X2210562Y-5637936D01*
X2212695Y-5627166D01*
X2213610Y-5613400D01*
X2212695Y-5599633D01*
X2210003Y-5586120D01*
X2205583Y-5573064D01*
X2199487Y-5560669D01*
X2191816Y-5549239D01*
X2182723Y-5538876D01*
X2172360Y-5529783D01*
X2160930Y-5522112D01*
X2148535Y-5516016D01*
X2135479Y-5511596D01*
X2121966Y-5508904D01*
X2108200Y-5507990D01*
X2094433Y-5508904D01*
X2080920Y-5511596D01*
X2067864Y-5516016D01*
X2055469Y-5522112D01*
X2044039Y-5529783D01*
X2033676Y-5538876D01*
X2024583Y-5549239D01*
X2016912Y-5560669D01*
X2010816Y-5573064D01*
X2006396Y-5586120D01*
X2003704Y-5599633D01*
X2002789Y-5613400D01*
X2003704Y-5627166D01*
X2006396Y-5640679D01*
X2010816Y-5653735D01*
X2016912Y-5666130D01*
X2024583Y-5677560D01*
X2033676Y-5687923D01*
X2044039Y-5697016D01*
X2055469Y-5704687D01*
X2067864Y-5710783D01*
X2080920Y-5715203D01*
X2094433Y-5717895D01*
X2108200Y-5718810D01*
X2121966Y-5717895D01*
X2132736Y-5715762D01*
X2136038Y-5715660D01*
X2139238Y-5716625D01*
X2141931Y-5718556D01*
X2530500Y-6107125D01*
X2532786Y-6110681D01*
X2533497Y-6114796D01*
X2532430Y-6118860D01*
X2529840Y-6122162D01*
X2526131Y-6124092D01*
X2521915Y-6124397D01*
X2518003Y-6122974D01*
X2508097Y-6116828D01*
X2494635Y-6110630D01*
X2480513Y-6106160D01*
X2465882Y-6103416D01*
X2451100Y-6102502D01*
X2436317Y-6103416D01*
X2421686Y-6106160D01*
X2407564Y-6110630D01*
X2394102Y-6116828D01*
X2381504Y-6124651D01*
X2369921Y-6133947D01*
X2359609Y-6144615D01*
X2350668Y-6156452D01*
X2343251Y-6169304D01*
X2337460Y-6182969D01*
X2333853Y-6195568D01*
X2331821Y-6199378D01*
X2328367Y-6202019D01*
X2324100Y-6202934D01*
X2319832Y-6202019D01*
X2316378Y-6199378D01*
X2314346Y-6195568D01*
X2310739Y-6182969D01*
X2304948Y-6169304D01*
X2297531Y-6156452D01*
X2288590Y-6144615D01*
X2278278Y-6133947D01*
X2266696Y-6124651D01*
X2254097Y-6116828D01*
X2240635Y-6110630D01*
X2226513Y-6106160D01*
X2211882Y-6103416D01*
X2197100Y-6102502D01*
X2182317Y-6103416D01*
X2167686Y-6106160D01*
X2153564Y-6110630D01*
X2140102Y-6116828D01*
X2127504Y-6124651D01*
X2115921Y-6133947D01*
X2105609Y-6144615D01*
X2096668Y-6156452D01*
X2089251Y-6169304D01*
X2083460Y-6182969D01*
X2079853Y-6195568D01*
X2077821Y-6199378D01*
X2074367Y-6202019D01*
X2070100Y-6202934D01*
X2065832Y-6202019D01*
X2062378Y-6199378D01*
X2060346Y-6195568D01*
X2056739Y-6182969D01*
X2050948Y-6169304D01*
X2043531Y-6156452D01*
X2034590Y-6144615D01*
X2024278Y-6133947D01*
X2012696Y-6124651D01*
X2000097Y-6116828D01*
X1986635Y-6110630D01*
X1972513Y-6106160D01*
X1957882Y-6103416D01*
X1943100Y-6102502D01*
X1928317Y-6103416D01*
X1913686Y-6106160D01*
X1899564Y-6110630D01*
X1886102Y-6116828D01*
X1873504Y-6124651D01*
X1861921Y-6133947D01*
X1851609Y-6144615D01*
X1842668Y-6156452D01*
X1835251Y-6169304D01*
X1829460Y-6182969D01*
X1825853Y-6195568D01*
X1823821Y-6199378D01*
X1820367Y-6202019D01*
X1816100Y-6202934D01*
X1811832Y-6202019D01*
X1808378Y-6199378D01*
X1806346Y-6195568D01*
X1802739Y-6182969D01*
X1796948Y-6169304D01*
X1789531Y-6156452D01*
X1780590Y-6144615D01*
X1770278Y-6133947D01*
X1758696Y-6124651D01*
X1746097Y-6116828D01*
X1732635Y-6110630D01*
X1718513Y-6106160D01*
X1703882Y-6103416D01*
X1689100Y-6102502D01*
X1674317Y-6103416D01*
X1659686Y-6106160D01*
X1645564Y-6110630D01*
X1632102Y-6116828D01*
X1619504Y-6124651D01*
X1607921Y-6133947D01*
X1597609Y-6144615D01*
X1588668Y-6156452D01*
X1581251Y-6169304D01*
X1575460Y-6182969D01*
X1571853Y-6195568D01*
X1569821Y-6199378D01*
X1566367Y-6202019D01*
X1562100Y-6202934D01*
X1557832Y-6202019D01*
X1554378Y-6199378D01*
X1552346Y-6195568D01*
X1548739Y-6182969D01*
X1542948Y-6169304D01*
X1535531Y-6156452D01*
X1526590Y-6144615D01*
X1516278Y-6133947D01*
X1504696Y-6124651D01*
X1492097Y-6116828D01*
X1478635Y-6110630D01*
X1464513Y-6106160D01*
X1449882Y-6103416D01*
X1435100Y-6102502D01*
X1420317Y-6103416D01*
X1405686Y-6106160D01*
X1391564Y-6110630D01*
X1378102Y-6116828D01*
X1365504Y-6124651D01*
X1353921Y-6133947D01*
X1343609Y-6144615D01*
X1334668Y-6156452D01*
X1327251Y-6169304D01*
X1321460Y-6182969D01*
X1317853Y-6195568D01*
X1315821Y-6199378D01*
X1312367Y-6202019D01*
X1308100Y-6202934D01*
X1303832Y-6202019D01*
X1300378Y-6199378D01*
X1298346Y-6195568D01*
X1294739Y-6182969D01*
X1288948Y-6169304D01*
X1281531Y-6156452D01*
X1272590Y-6144615D01*
X1262278Y-6133947D01*
X1250696Y-6124651D01*
X1238097Y-6116828D01*
X1224635Y-6110630D01*
X1210513Y-6106160D01*
X1195882Y-6103416D01*
X1181100Y-6102502D01*
X1166317Y-6103416D01*
X1151686Y-6106160D01*
X1137564Y-6110630D01*
X1124102Y-6116828D01*
X1111504Y-6124651D01*
X1099921Y-6133947D01*
X1089609Y-6144615D01*
X1080668Y-6156452D01*
X1073251Y-6169304D01*
X1067460Y-6182969D01*
X1063396Y-6197244D01*
X1061110Y-6211874D01*
X1060653Y-6226708D01*
X1062024Y-6241491D01*
X1065225Y-6255969D01*
X1070152Y-6269990D01*
X1076756Y-6283248D01*
X1084935Y-6295593D01*
X1094587Y-6306870D01*
X1105560Y-6316878D01*
X1117650Y-6325463D01*
X1130757Y-6332474D01*
X1144574Y-6337808D01*
X1158951Y-6341414D01*
X1173683Y-6343243D01*
X1188516Y-6343243D01*
X1203248Y-6341414D01*
X1217625Y-6337808D01*
X1231442Y-6332474D01*
X1244549Y-6325463D01*
X1256639Y-6316878D01*
X1267612Y-6306870D01*
X1277264Y-6295593D01*
X1285443Y-6283248D01*
X1292047Y-6269990D01*
X1296974Y-6255969D01*
X1298194Y-6250533D01*
X1299718Y-6246977D01*
X1302512Y-6244234D01*
X1306169Y-6242761D01*
X1310030Y-6242761D01*
X1313688Y-6244234D01*
X1316482Y-6246977D01*
X1318006Y-6250533D01*
X1319225Y-6255969D01*
X1324152Y-6269990D01*
X1330756Y-6283248D01*
X1338935Y-6295593D01*
X1348587Y-6306870D01*
X1359560Y-6316878D01*
X1371650Y-6325463D01*
X1384757Y-6332474D01*
X1398574Y-6337808D01*
X1412951Y-6341414D01*
X1427683Y-6343243D01*
X1442516Y-6343243D01*
X1457248Y-6341414D01*
X1471625Y-6337808D01*
X1485442Y-6332474D01*
X1498549Y-6325463D01*
X1510639Y-6316878D01*
X1521612Y-6306870D01*
X1531264Y-6295593D01*
X1539443Y-6283248D01*
X1546047Y-6269990D01*
X1550974Y-6255969D01*
X1552194Y-6250533D01*
X1553718Y-6246977D01*
X1556512Y-6244234D01*
X1560169Y-6242761D01*
X1564030Y-6242761D01*
X1567688Y-6244234D01*
X1570482Y-6246977D01*
X1572006Y-6250533D01*
X1573225Y-6255969D01*
X1578152Y-6269990D01*
X1584756Y-6283248D01*
X1592935Y-6295593D01*
X1602587Y-6306870D01*
X1613560Y-6316878D01*
X1625650Y-6325463D01*
X1638757Y-6332474D01*
X1652574Y-6337808D01*
X1666951Y-6341414D01*
X1681683Y-6343243D01*
X1696516Y-6343243D01*
X1711248Y-6341414D01*
X1725625Y-6337808D01*
X1739442Y-6332474D01*
X1752549Y-6325463D01*
X1764639Y-6316878D01*
X1775612Y-6306870D01*
X1785264Y-6295593D01*
X1793443Y-6283248D01*
X1800047Y-6269990D01*
X1804974Y-6255969D01*
X1806193Y-6250533D01*
X1807718Y-6246977D01*
X1810512Y-6244234D01*
X1814169Y-6242761D01*
X1818030Y-6242761D01*
X1821688Y-6244234D01*
X1824482Y-6246977D01*
X1826006Y-6250533D01*
X1827225Y-6255969D01*
X1832152Y-6269990D01*
X1838756Y-6283248D01*
X1846935Y-6295593D01*
X1856587Y-6306870D01*
X1867560Y-6316878D01*
X1879650Y-6325463D01*
X1892757Y-6332474D01*
X1906574Y-6337808D01*
X1920951Y-6341414D01*
X1935683Y-6343243D01*
X1950516Y-6343243D01*
X1965248Y-6341414D01*
X1979625Y-6337808D01*
X1993442Y-6332474D01*
X2006549Y-6325463D01*
X2018639Y-6316878D01*
X2029612Y-6306870D01*
X2039264Y-6295593D01*
X2047443Y-6283248D01*
X2054047Y-6269990D01*
X2058974Y-6255969D01*
X2060193Y-6250533D01*
X2061718Y-6246977D01*
X2064512Y-6244234D01*
X2068169Y-6242761D01*
X2072030Y-6242761D01*
X2075688Y-6244234D01*
X2078482Y-6246977D01*
X2080006Y-6250533D01*
X2081225Y-6255969D01*
X2086152Y-6269990D01*
X2092756Y-6283248D01*
X2100935Y-6295593D01*
X2110587Y-6306870D01*
X2121560Y-6316878D01*
X2133650Y-6325463D01*
X2146757Y-6332474D01*
X2160574Y-6337808D01*
X2174951Y-6341414D01*
X2189683Y-6343243D01*
X2204516Y-6343243D01*
X2219248Y-6341414D01*
X2233625Y-6337808D01*
X2247442Y-6332474D01*
X2260549Y-6325463D01*
X2272639Y-6316878D01*
X2283612Y-6306870D01*
X2293264Y-6295593D01*
X2301443Y-6283248D01*
X2308047Y-6269990D01*
X2312974Y-6255969D01*
X2314194Y-6250533D01*
X2315718Y-6246977D01*
X2318512Y-6244234D01*
X2322169Y-6242761D01*
X2326030Y-6242761D01*
X2329688Y-6244234D01*
X2332482Y-6246977D01*
X2334006Y-6250533D01*
X2335225Y-6255969D01*
X2340152Y-6269990D01*
X2346756Y-6283248D01*
X2354935Y-6295593D01*
X2364587Y-6306870D01*
X2375560Y-6316878D01*
X2387650Y-6325463D01*
X2400757Y-6332474D01*
X2414574Y-6337808D01*
X2428951Y-6341414D01*
X2443683Y-6343243D01*
X2448610Y-6343243D01*
X2452522Y-6344056D01*
X2455824Y-6346240D01*
X2458008Y-6349542D01*
X2458770Y-6353403D01*
X2458008Y-6357315D01*
X2455824Y-6360617D01*
X2386736Y-6429654D01*
X2383434Y-6431889D01*
X2379573Y-6432651D01*
X2049272Y-6432651D01*
X2044649Y-6432854D01*
X2040280Y-6433413D01*
X2035962Y-6434378D01*
X2031796Y-6435699D01*
X2027682Y-6437376D01*
X2023770Y-6439408D01*
X2020062Y-6441795D01*
X2016607Y-6444488D01*
X2013153Y-6447586D01*
X610260Y-7850530D01*
X607110Y-7853934D01*
X604418Y-7857439D01*
X602081Y-7861147D01*
X600049Y-7865059D01*
X598322Y-7869123D01*
X597001Y-7873339D01*
X596087Y-7877606D01*
X595477Y-7881975D01*
X595274Y-7886598D01*
X595274Y-10623397D01*
X595477Y-10628020D01*
X596087Y-10632389D01*
X597001Y-10636707D01*
X598322Y-10640872D01*
X600049Y-10644987D01*
X602081Y-10648899D01*
X604418Y-10652607D01*
X607110Y-10656062D01*
X610260Y-10659516D01*
X1121765Y-11171072D01*
X1124000Y-11174323D01*
X1124762Y-11178235D01*
X1124000Y-11182146D01*
X1121765Y-11185398D01*
X1109421Y-11197793D01*
X1106779Y-11199672D01*
X1088491Y-11204803D01*
X1074166Y-11210594D01*
X1060653Y-11218062D01*
X1048054Y-11227054D01*
X1036675Y-11237518D01*
X1026566Y-11249202D01*
X1025398Y-11250980D01*
X1022299Y-11253927D01*
X1018286Y-11255400D01*
X1014018Y-11255044D01*
X1010259Y-11252911D01*
X1007719Y-11249507D01*
X1006805Y-11245291D01*
X1006805Y-11228882D01*
X1006195Y-11222482D01*
X1004417Y-11216741D01*
X1001623Y-11211458D01*
X997813Y-11206886D01*
X993241Y-11203076D01*
X987958Y-11200282D01*
X982218Y-11198504D01*
X975817Y-11197894D01*
X932637Y-11197894D01*
X932637Y-11272062D01*
X997661Y-11272062D01*
X1001471Y-11272774D01*
X1004722Y-11274907D01*
X1006957Y-11278108D01*
X1007821Y-11281918D01*
X1007211Y-11285728D01*
X1005484Y-11290300D01*
X1001877Y-11305336D01*
X1000048Y-11320678D01*
X1000048Y-11336121D01*
X1001877Y-11351463D01*
X1005484Y-11366500D01*
X1007211Y-11371072D01*
X1007821Y-11374882D01*
X1006957Y-11378692D01*
X1004722Y-11381892D01*
X1001471Y-11384026D01*
X997661Y-11384737D01*
X932637Y-11384737D01*
X932637Y-11458905D01*
X975817Y-11458905D01*
X982218Y-11458295D01*
X987958Y-11456517D01*
X993241Y-11453723D01*
X997813Y-11449913D01*
X1001623Y-11445341D01*
X1004417Y-11440058D01*
X1006195Y-11434318D01*
X1006805Y-11427917D01*
X1006805Y-11411508D01*
X1007719Y-11407292D01*
X1010259Y-11403888D01*
X1014018Y-11401806D01*
X1018286Y-11401399D01*
X1022299Y-11402872D01*
X1025398Y-11405819D01*
X1026566Y-11407597D01*
X1036675Y-11419281D01*
X1048054Y-11429746D01*
X1060653Y-11438737D01*
X1074166Y-11446205D01*
X1088491Y-11451996D01*
X1103426Y-11456111D01*
X1118717Y-11458397D01*
X1134160Y-11458854D01*
X1149553Y-11457482D01*
X1164691Y-11454282D01*
X1179322Y-11449304D01*
X1193292Y-11442700D01*
X1206398Y-11434419D01*
X1218387Y-11424666D01*
X1229156Y-11413591D01*
X1238504Y-11401298D01*
X1246378Y-11387988D01*
X1252626Y-11373815D01*
X1257147Y-11359032D01*
X1259890Y-11343843D01*
X1260805Y-11328400D01*
X1259890Y-11312956D01*
X1257147Y-11297767D01*
X1252626Y-11282984D01*
X1246378Y-11268811D01*
X1238504Y-11255502D01*
X1230579Y-11245088D01*
X1228699Y-11240973D01*
X1228750Y-11236502D01*
X1230731Y-11232489D01*
X1234287Y-11229746D01*
X1238656Y-11228730D01*
X1484934Y-11228730D01*
X1488795Y-11229492D01*
X1492097Y-11231727D01*
X1494332Y-11235029D01*
X1495094Y-11238890D01*
X1495094Y-11272062D01*
X1569262Y-11272062D01*
X1569262Y-11238890D01*
X1570024Y-11235029D01*
X1572209Y-11231727D01*
X1575511Y-11229492D01*
X1579422Y-11228730D01*
X1671777Y-11228730D01*
X1675688Y-11229492D01*
X1678990Y-11231727D01*
X1681175Y-11235029D01*
X1681937Y-11238890D01*
X1681937Y-11272062D01*
X1746961Y-11272062D01*
X1750771Y-11272774D01*
X1754022Y-11274907D01*
X1756257Y-11278108D01*
X1757121Y-11281918D01*
X1756511Y-11285728D01*
X1754784Y-11290300D01*
X1751177Y-11305336D01*
X1749348Y-11320678D01*
X1749348Y-11336121D01*
X1751177Y-11351463D01*
X1754784Y-11366500D01*
X1756511Y-11371072D01*
X1757121Y-11374882D01*
X1756257Y-11378692D01*
X1754022Y-11381892D01*
X1750771Y-11384026D01*
X1746961Y-11384737D01*
X1681937Y-11384737D01*
X1681937Y-11458905D01*
X1725117Y-11458905D01*
X1731518Y-11458295D01*
X1737258Y-11456517D01*
X1742541Y-11453723D01*
X1747113Y-11449913D01*
X1750923Y-11445341D01*
X1753717Y-11440058D01*
X1755495Y-11434318D01*
X1756105Y-11427917D01*
X1756105Y-11411508D01*
X1757019Y-11407292D01*
X1759559Y-11403888D01*
X1763318Y-11401806D01*
X1767586Y-11401399D01*
X1771599Y-11402872D01*
X1774698Y-11405819D01*
X1775866Y-11407597D01*
X1785975Y-11419281D01*
X1797354Y-11429746D01*
X1809953Y-11438737D01*
X1823466Y-11446205D01*
X1837791Y-11451996D01*
X1852726Y-11456111D01*
X1868017Y-11458397D01*
X1883460Y-11458854D01*
X1898853Y-11457482D01*
X1913991Y-11454282D01*
X1928622Y-11449304D01*
X1942592Y-11442700D01*
X1955698Y-11434419D01*
X1967687Y-11424666D01*
X1978456Y-11413591D01*
X1987804Y-11401298D01*
X1995678Y-11387988D01*
X2001926Y-11373815D01*
X2006447Y-11359032D01*
X2009190Y-11343843D01*
X2010105Y-11328400D01*
X2009190Y-11312956D01*
X2006447Y-11297767D01*
X2002434Y-11284610D01*
X2002028Y-11281003D01*
X2002891Y-11277447D01*
X2004974Y-11274450D01*
X2047697Y-11231727D01*
X2050999Y-11229492D01*
X2054910Y-11228730D01*
X2234234Y-11228730D01*
X2238095Y-11229492D01*
X2241397Y-11231727D01*
X2243632Y-11235029D01*
X2244394Y-11238890D01*
X2244394Y-11272062D01*
X2318562Y-11272062D01*
X2318562Y-11238890D01*
X2319324Y-11235029D01*
X2321509Y-11231727D01*
X2324811Y-11229492D01*
X2328722Y-11228730D01*
X2421077Y-11228730D01*
X2424988Y-11229492D01*
X2428290Y-11231727D01*
X2430475Y-11235029D01*
X2431237Y-11238890D01*
X2431237Y-11272062D01*
X2496261Y-11272062D01*
X2500071Y-11272774D01*
X2503322Y-11274907D01*
X2505557Y-11278108D01*
X2506421Y-11281918D01*
X2505811Y-11285728D01*
X2504084Y-11290300D01*
X2500477Y-11305336D01*
X2498648Y-11320678D01*
X2498648Y-11336121D01*
X2500477Y-11351463D01*
X2504084Y-11366500D01*
X2505811Y-11371072D01*
X2506421Y-11374882D01*
X2505557Y-11378692D01*
X2503322Y-11381892D01*
X2500071Y-11384026D01*
X2496261Y-11384737D01*
X2431237Y-11384737D01*
X2431237Y-11458905D01*
X2474417Y-11458905D01*
X2480818Y-11458295D01*
X2486558Y-11456517D01*
X2491841Y-11453723D01*
X2496413Y-11449913D01*
X2500223Y-11445341D01*
X2503017Y-11440058D01*
X2504795Y-11434318D01*
X2505405Y-11427917D01*
X2505405Y-11411508D01*
X2506319Y-11407292D01*
X2508859Y-11403888D01*
X2512618Y-11401806D01*
X2516886Y-11401399D01*
X2520899Y-11402872D01*
X2523998Y-11405819D01*
X2525166Y-11407597D01*
X2535275Y-11419281D01*
X2546654Y-11429746D01*
X2559253Y-11438737D01*
X2572766Y-11446205D01*
X2587091Y-11451996D01*
X2602026Y-11456111D01*
X2617317Y-11458397D01*
X2632760Y-11458854D01*
X2648153Y-11457482D01*
X2663291Y-11454282D01*
X2677922Y-11449304D01*
X2691892Y-11442700D01*
X2704998Y-11434419D01*
X2716987Y-11424666D01*
X2727756Y-11413591D01*
X2737104Y-11401298D01*
X2744978Y-11387988D01*
X2751226Y-11373815D01*
X2755747Y-11359032D01*
X2758490Y-11343843D01*
X2759405Y-11328400D01*
X2758490Y-11312956D01*
X2755747Y-11297767D01*
X2751226Y-11282984D01*
X2744978Y-11268811D01*
X2737104Y-11255502D01*
X2727756Y-11243208D01*
X2716987Y-11232134D01*
X2704998Y-11222380D01*
X2691892Y-11214150D01*
X2677922Y-11207496D01*
X2663291Y-11202517D01*
X2648153Y-11199317D01*
X2632760Y-11197945D01*
X2617317Y-11198402D01*
X2602026Y-11200688D01*
X2599385Y-11201450D01*
X2595880Y-11201755D01*
X2592425Y-11200841D01*
X2589530Y-11198809D01*
X2533396Y-11142675D01*
X2529992Y-11139576D01*
X2526487Y-11136884D01*
X2522778Y-11134496D01*
X2518867Y-11132464D01*
X2514803Y-11130788D01*
X2510586Y-11129467D01*
X2506319Y-11128502D01*
X2501950Y-11127943D01*
X2497328Y-11127740D01*
X2029968Y-11127740D01*
X2025345Y-11127943D01*
X2020976Y-11128502D01*
X2016709Y-11129467D01*
X2012492Y-11130788D01*
X2008428Y-11132464D01*
X2004517Y-11134496D01*
X2000808Y-11136884D01*
X1997303Y-11139576D01*
X1993900Y-11142675D01*
X1933448Y-11203127D01*
X1930349Y-11205260D01*
X1926691Y-11206073D01*
X1922983Y-11205565D01*
X1913991Y-11202517D01*
X1898853Y-11199317D01*
X1883460Y-11197945D01*
X1868017Y-11198402D01*
X1861057Y-11199469D01*
X1857908Y-11199418D01*
X1854911Y-11198453D01*
X1852371Y-11196574D01*
X1798472Y-11142675D01*
X1795018Y-11139576D01*
X1791563Y-11136884D01*
X1787855Y-11134496D01*
X1783943Y-11132464D01*
X1779828Y-11130788D01*
X1775663Y-11129467D01*
X1771345Y-11128502D01*
X1766976Y-11127943D01*
X1762353Y-11127740D01*
X1225550Y-11127740D01*
X1221638Y-11126978D01*
X1218336Y-11124742D01*
X699262Y-10605668D01*
X697077Y-10602366D01*
X696315Y-10598505D01*
X696315Y-10110114D01*
X697179Y-10105948D01*
X699668Y-10102545D01*
X703326Y-10100462D01*
X707542Y-10100005D01*
X711555Y-10101326D01*
X714705Y-10104170D01*
X718972Y-10110063D01*
X722020Y-10113365D01*
X1089355Y-10480751D01*
X1090980Y-10482884D01*
X1091996Y-10485424D01*
X1093368Y-10490809D01*
X1097381Y-10500004D01*
X1102918Y-10508437D01*
X1109726Y-10515854D01*
X1117701Y-10522051D01*
X1126540Y-10526826D01*
X1139037Y-10531094D01*
X1141526Y-10532922D01*
X1325067Y-10716463D01*
X1328521Y-10719612D01*
X1331976Y-10722305D01*
X1335684Y-10724642D01*
X1339596Y-10726674D01*
X1343710Y-10728401D01*
X1347876Y-10729722D01*
X1352194Y-10730636D01*
X1356563Y-10731246D01*
X1361186Y-10731449D01*
X1841195Y-10731449D01*
X1843684Y-10731754D01*
X1846072Y-10732668D01*
X1853641Y-10736783D01*
X1863140Y-10740034D01*
X1873097Y-10741710D01*
X1883156Y-10741710D01*
X1893112Y-10740034D01*
X1902612Y-10736783D01*
X1911451Y-10731957D01*
X1919427Y-10725810D01*
X1926234Y-10718393D01*
X1931771Y-10709960D01*
X1935784Y-10700715D01*
X1938274Y-10690961D01*
X1939086Y-10680954D01*
X1938274Y-10670895D01*
X1935784Y-10661142D01*
X1931771Y-10651896D01*
X1926234Y-10643463D01*
X1919427Y-10636046D01*
X1911451Y-10629900D01*
X1902612Y-10625074D01*
X1893112Y-10621822D01*
X1883156Y-10620146D01*
X1873097Y-10620146D01*
X1863140Y-10621822D01*
X1853641Y-10625074D01*
X1846072Y-10629188D01*
X1843684Y-10630103D01*
X1841195Y-10630408D01*
X1386078Y-10630408D01*
X1382217Y-10629646D01*
X1378915Y-10627461D01*
X1212697Y-10461244D01*
X1211072Y-10459110D01*
X1210056Y-10456570D01*
X1208684Y-10451185D01*
X1204671Y-10441990D01*
X1199134Y-10433558D01*
X1192326Y-10426141D01*
X1184351Y-10419943D01*
X1175512Y-10415168D01*
X1163015Y-10410901D01*
X1160526Y-10409072D01*
X811022Y-10059568D01*
X808837Y-10056266D01*
X808075Y-10052354D01*
X808075Y-9558070D01*
X808837Y-9554159D01*
X811022Y-9550857D01*
X814324Y-9548672D01*
X818235Y-9547910D01*
X848360Y-9547910D01*
X848360Y-9476740D01*
X818235Y-9476740D01*
X814324Y-9475978D01*
X811022Y-9473742D01*
X808837Y-9470491D01*
X808075Y-9466580D01*
X808075Y-9380220D01*
X808837Y-9376308D01*
X811022Y-9373057D01*
X814324Y-9370822D01*
X818235Y-9370060D01*
X848360Y-9370060D01*
X848360Y-9296704D01*
X849071Y-9292996D01*
X851103Y-9289796D01*
X854151Y-9287560D01*
X857808Y-9286595D01*
X861568Y-9287002D01*
X871931Y-9290253D01*
X886714Y-9292945D01*
X901700Y-9293860D01*
X916686Y-9292945D01*
X931468Y-9290253D01*
X941882Y-9287002D01*
X945591Y-9286595D01*
X949248Y-9287560D01*
X952296Y-9289796D01*
X954328Y-9292996D01*
X955040Y-9296704D01*
X955040Y-9370060D01*
X1026210Y-9370060D01*
X1026210Y-9329928D01*
X1025550Y-9323476D01*
X1023823Y-9317786D01*
X1021029Y-9312503D01*
X1017219Y-9307880D01*
X1012596Y-9304070D01*
X1007313Y-9301276D01*
X1001623Y-9299549D01*
X995171Y-9298889D01*
X963980Y-9298889D01*
X959713Y-9297974D01*
X956259Y-9295333D01*
X954176Y-9291472D01*
X953973Y-9287103D01*
X955598Y-9283039D01*
X958748Y-9280042D01*
X972413Y-9271812D01*
X984250Y-9262567D01*
X994867Y-9251950D01*
X1004112Y-9240113D01*
X1014730Y-9222740D01*
X1017981Y-9220657D01*
X1021791Y-9219895D01*
X1556308Y-9219895D01*
X1560118Y-9220657D01*
X1563370Y-9222740D01*
X1573987Y-9240113D01*
X1583232Y-9251950D01*
X1593850Y-9262567D01*
X1605686Y-9271812D01*
X1619351Y-9280042D01*
X1622501Y-9283039D01*
X1624126Y-9287103D01*
X1623923Y-9291472D01*
X1621840Y-9295333D01*
X1618386Y-9297974D01*
X1614119Y-9298889D01*
X1582928Y-9298889D01*
X1576476Y-9299549D01*
X1570786Y-9301276D01*
X1565503Y-9304070D01*
X1560880Y-9307880D01*
X1557070Y-9312503D01*
X1554276Y-9317786D01*
X1552549Y-9323476D01*
X1551889Y-9329928D01*
X1551889Y-9370060D01*
X1623060Y-9370060D01*
X1623060Y-9296704D01*
X1623771Y-9292996D01*
X1625803Y-9289796D01*
X1628851Y-9287560D01*
X1632508Y-9286595D01*
X1636268Y-9287002D01*
X1646631Y-9290253D01*
X1661414Y-9292945D01*
X1676400Y-9293860D01*
X1691386Y-9292945D01*
X1706168Y-9290253D01*
X1716582Y-9287002D01*
X1720291Y-9286595D01*
X1723948Y-9287560D01*
X1726996Y-9289796D01*
X1729028Y-9292996D01*
X1729739Y-9296704D01*
X1729739Y-9370060D01*
X1800910Y-9370060D01*
X1800910Y-9329928D01*
X1800250Y-9323476D01*
X1798523Y-9317786D01*
X1795729Y-9312503D01*
X1791919Y-9307880D01*
X1787296Y-9304070D01*
X1782013Y-9301276D01*
X1776323Y-9299549D01*
X1769872Y-9298889D01*
X1738680Y-9298889D01*
X1734413Y-9297974D01*
X1730959Y-9295333D01*
X1728876Y-9291472D01*
X1728673Y-9287103D01*
X1730298Y-9283039D01*
X1733448Y-9280042D01*
X1747113Y-9271812D01*
X1758950Y-9262567D01*
X1769567Y-9251950D01*
X1778812Y-9240113D01*
X1786636Y-9227261D01*
X1792782Y-9213545D01*
X1797253Y-9199168D01*
X1799945Y-9184386D01*
X1800860Y-9169400D01*
X1799945Y-9154414D01*
X1797253Y-9139631D01*
X1792782Y-9125254D01*
X1786636Y-9111538D01*
X1778812Y-9098686D01*
X1769567Y-9086850D01*
X1758950Y-9076232D01*
X1747113Y-9066987D01*
X1734261Y-9059164D01*
X1720545Y-9053017D01*
X1717598Y-9052102D01*
X1713890Y-9050020D01*
X1711350Y-9046565D01*
X1710436Y-9042400D01*
X1711350Y-9038234D01*
X1713890Y-9034780D01*
X1717598Y-9032697D01*
X1720545Y-9031782D01*
X1734261Y-9025636D01*
X1747113Y-9017812D01*
X1758950Y-9008567D01*
X1769567Y-8997950D01*
X1778812Y-8986113D01*
X1786636Y-8973261D01*
X1792782Y-8959545D01*
X1797253Y-8945168D01*
X1799945Y-8930386D01*
X1800860Y-8915400D01*
X1799945Y-8900414D01*
X1797253Y-8885631D01*
X1794408Y-8876487D01*
X1793951Y-8872880D01*
X1794865Y-8869324D01*
X1796948Y-8866276D01*
X1870964Y-8792260D01*
X1874113Y-8788806D01*
X1876806Y-8785352D01*
X1879142Y-8781643D01*
X1881174Y-8777732D01*
X1882902Y-8773617D01*
X1884222Y-8769451D01*
X1885137Y-8765133D01*
X1885746Y-8760764D01*
X1885950Y-8756142D01*
X1885950Y-8287258D01*
X1885746Y-8282635D01*
X1885137Y-8278266D01*
X1884222Y-8273948D01*
X1882902Y-8269782D01*
X1881174Y-8265668D01*
X1879142Y-8261756D01*
X1876806Y-8258048D01*
X1874113Y-8254593D01*
X1870964Y-8251139D01*
X1705559Y-8085734D01*
X1703222Y-8082076D01*
X1702612Y-8077758D01*
X1703679Y-8074304D01*
X1700123Y-8075371D01*
X1695856Y-8074710D01*
X1692249Y-8072424D01*
X1645107Y-8025282D01*
X1643176Y-8022590D01*
X1642211Y-8019440D01*
X1642313Y-8016138D01*
X1645005Y-8002270D01*
X1645920Y-7988300D01*
X1645005Y-7974330D01*
X1642364Y-7960614D01*
X1637944Y-7947304D01*
X1631848Y-7934706D01*
X1624228Y-7922971D01*
X1615186Y-7912303D01*
X1604822Y-7902905D01*
X1593342Y-7894878D01*
X1580896Y-7888427D01*
X1567789Y-7883601D01*
X1554124Y-7880451D01*
X1540205Y-7879130D01*
X1526235Y-7879588D01*
X1512417Y-7881823D01*
X1498955Y-7885785D01*
X1486154Y-7891475D01*
X1474216Y-7898739D01*
X1463243Y-7907426D01*
X1453540Y-7917484D01*
X1445158Y-7928711D01*
X1438300Y-7940903D01*
X1433017Y-7953857D01*
X1429512Y-7967421D01*
X1427683Y-7981289D01*
X1427683Y-7995310D01*
X1429512Y-8009178D01*
X1433017Y-8022742D01*
X1438300Y-8035696D01*
X1445158Y-8047888D01*
X1453540Y-8059115D01*
X1463243Y-8069173D01*
X1474216Y-8077860D01*
X1486154Y-8085124D01*
X1498955Y-8090814D01*
X1512417Y-8094776D01*
X1526235Y-8097012D01*
X1540205Y-8097469D01*
X1554124Y-8096148D01*
X1564081Y-8093862D01*
X1567484Y-8093659D01*
X1570786Y-8094624D01*
X1573530Y-8096554D01*
X1781962Y-8304987D01*
X1784146Y-8308289D01*
X1784908Y-8312150D01*
X1784908Y-8569706D01*
X1784146Y-8573566D01*
X1781962Y-8576868D01*
X1778660Y-8579053D01*
X1774748Y-8579866D01*
X1770888Y-8579053D01*
X1767586Y-8576868D01*
X1758950Y-8568232D01*
X1747113Y-8558987D01*
X1734261Y-8551164D01*
X1720545Y-8545017D01*
X1706168Y-8540546D01*
X1691386Y-8537854D01*
X1676400Y-8536940D01*
X1661414Y-8537854D01*
X1646631Y-8540546D01*
X1632254Y-8545017D01*
X1618538Y-8551164D01*
X1605686Y-8558987D01*
X1593850Y-8568232D01*
X1583232Y-8578850D01*
X1573987Y-8590686D01*
X1563370Y-8608060D01*
X1560118Y-8610142D01*
X1556308Y-8610904D01*
X1343355Y-8610904D01*
X1339494Y-8610142D01*
X1336192Y-8607907D01*
X1333957Y-8604605D01*
X1333195Y-8600744D01*
X1333195Y-8091068D01*
X1333855Y-8087461D01*
X1335786Y-8084312D01*
X1350822Y-8073694D01*
X1361186Y-8064296D01*
X1370228Y-8053628D01*
X1377848Y-8041894D01*
X1383944Y-8029295D01*
X1388364Y-8015986D01*
X1391005Y-8002270D01*
X1391920Y-7988300D01*
X1391005Y-7974330D01*
X1388364Y-7960614D01*
X1383944Y-7947304D01*
X1377848Y-7934706D01*
X1370228Y-7922971D01*
X1361186Y-7912303D01*
X1350822Y-7902905D01*
X1339342Y-7894878D01*
X1326896Y-7888427D01*
X1313789Y-7883601D01*
X1300124Y-7880451D01*
X1286205Y-7879130D01*
X1272235Y-7879588D01*
X1258417Y-7881823D01*
X1244955Y-7885785D01*
X1232154Y-7891475D01*
X1220216Y-7898739D01*
X1209243Y-7907426D01*
X1199540Y-7917484D01*
X1191158Y-7928711D01*
X1184300Y-7940903D01*
X1179017Y-7953857D01*
X1175512Y-7967421D01*
X1173683Y-7981289D01*
X1173683Y-7995310D01*
X1175512Y-8009178D01*
X1179017Y-8022742D01*
X1184300Y-8035696D01*
X1191158Y-8047888D01*
X1199540Y-8059115D01*
X1209243Y-8069173D01*
X1220216Y-8077860D01*
X1227277Y-8082178D01*
X1229918Y-8084464D01*
X1231595Y-8087461D01*
X1232204Y-8090865D01*
X1232204Y-8600744D01*
X1231442Y-8604605D01*
X1229207Y-8607907D01*
X1225905Y-8610142D01*
X1222044Y-8610904D01*
X1021791Y-8610904D01*
X1017981Y-8610142D01*
X1014730Y-8608060D01*
X1004112Y-8590686D01*
X994867Y-8578850D01*
X984250Y-8568232D01*
X972413Y-8558987D01*
X959561Y-8551164D01*
X945845Y-8545017D01*
X931468Y-8540546D01*
X916686Y-8537854D01*
X901700Y-8536940D01*
X886714Y-8537854D01*
X871931Y-8540546D01*
X857554Y-8545017D01*
X843838Y-8551164D01*
X830986Y-8558987D01*
X819150Y-8568232D01*
X813155Y-8574227D01*
X809853Y-8576411D01*
X805992Y-8577224D01*
X802081Y-8576411D01*
X798779Y-8574227D01*
X796594Y-8570925D01*
X795832Y-8567064D01*
X795832Y-8171586D01*
X796594Y-8167725D01*
X798779Y-8164423D01*
X810260Y-8152942D01*
X813358Y-8149539D01*
X816051Y-8146034D01*
X818438Y-8142325D01*
X820470Y-8138414D01*
X822147Y-8134350D01*
X823468Y-8130133D01*
X824433Y-8125866D01*
X824992Y-8121497D01*
X825195Y-8116874D01*
X825195Y-8107730D01*
X825957Y-8103819D01*
X828192Y-8100517D01*
X831494Y-8098332D01*
X835355Y-8097570D01*
X852932Y-8097570D01*
X859383Y-8096910D01*
X865073Y-8095183D01*
X870356Y-8092389D01*
X874979Y-8088579D01*
X878789Y-8083956D01*
X881583Y-8078673D01*
X883310Y-8072983D01*
X883970Y-8066531D01*
X883970Y-7910068D01*
X883310Y-7903616D01*
X881583Y-7897926D01*
X878789Y-7892643D01*
X874979Y-7888020D01*
X870356Y-7884210D01*
X865073Y-7881416D01*
X859383Y-7879689D01*
X852932Y-7879029D01*
X749096Y-7879029D01*
X745185Y-7878267D01*
X741934Y-7876082D01*
X739698Y-7872780D01*
X738936Y-7868869D01*
X739698Y-7865008D01*
X741934Y-7861706D01*
X2008886Y-6594754D01*
X2012492Y-6592417D01*
X2016709Y-6591808D01*
X2020824Y-6592976D01*
X2024125Y-6595719D01*
X2025954Y-6599580D01*
X2026056Y-6603898D01*
X2024329Y-6607809D01*
X2019452Y-6614718D01*
X2010257Y-6630873D01*
X2002840Y-6647942D01*
X1997202Y-6665620D01*
X1993392Y-6683806D01*
X1991461Y-6702298D01*
X1991461Y-6720890D01*
X1993392Y-6739381D01*
X1997202Y-6757568D01*
X2002840Y-6775246D01*
X2010257Y-6792315D01*
X2019452Y-6808470D01*
X2030171Y-6823608D01*
X2042464Y-6837578D01*
X2056079Y-6850176D01*
X2070963Y-6861352D01*
X2086914Y-6870903D01*
X2103729Y-6878777D01*
X2121255Y-6884873D01*
X2139391Y-6889140D01*
X2157780Y-6891528D01*
X2176373Y-6892036D01*
X2194915Y-6890613D01*
X2201214Y-6889445D01*
X2205482Y-6889597D01*
X2209292Y-6891426D01*
X2212035Y-6894728D01*
X2213152Y-6898843D01*
X2212543Y-6903059D01*
X2210206Y-6906615D01*
X2136190Y-6980681D01*
X2133041Y-6984085D01*
X2130348Y-6987590D01*
X2128012Y-6991299D01*
X2125980Y-6995210D01*
X2124252Y-6999274D01*
X2122932Y-7003491D01*
X2122017Y-7007758D01*
X2121408Y-7012127D01*
X2121204Y-7016750D01*
X2121204Y-7262926D01*
X2120290Y-7267194D01*
X2117648Y-7270648D01*
X2113788Y-7272680D01*
X2099513Y-7276693D01*
X2079904Y-7284212D01*
X2061057Y-7293406D01*
X2043125Y-7304328D01*
X2026259Y-7316825D01*
X2010613Y-7330795D01*
X1996287Y-7346086D01*
X1983384Y-7362698D01*
X1972106Y-7380376D01*
X1962454Y-7398969D01*
X1954530Y-7418425D01*
X1948383Y-7438491D01*
X1944116Y-7459014D01*
X1941728Y-7479893D01*
X1941271Y-7500823D01*
X1942693Y-7521803D01*
X1946046Y-7542479D01*
X1951228Y-7562850D01*
X1958238Y-7582611D01*
X1967077Y-7601661D01*
X1977542Y-7619796D01*
X1989632Y-7636967D01*
X2003247Y-7652918D01*
X2018284Y-7667599D01*
X2034539Y-7680858D01*
X2051964Y-7692542D01*
X2070354Y-7702600D01*
X2089607Y-7710982D01*
X2109520Y-7717536D01*
X2129942Y-7722311D01*
X2150770Y-7725156D01*
X2171700Y-7726121D01*
X2192680Y-7725156D01*
X2213457Y-7722311D01*
X2233879Y-7717536D01*
X2253843Y-7710982D01*
X2273046Y-7702600D01*
X2291486Y-7692542D01*
X2308910Y-7680858D01*
X2325166Y-7667599D01*
X2340152Y-7652918D01*
X2353767Y-7636967D01*
X2365857Y-7619796D01*
X2376373Y-7601661D01*
X2385161Y-7582611D01*
X2392172Y-7562850D01*
X2397404Y-7542479D01*
X2400706Y-7521803D01*
X2402128Y-7500823D01*
X2401671Y-7479893D01*
X2399284Y-7459014D01*
X2395016Y-7438491D01*
X2388920Y-7418425D01*
X2380996Y-7398969D01*
X2371344Y-7380376D01*
X2360015Y-7362698D01*
X2347163Y-7346086D01*
X2332837Y-7330795D01*
X2317191Y-7316825D01*
X2300325Y-7304328D01*
X2282393Y-7293406D01*
X2263546Y-7284212D01*
X2243937Y-7276693D01*
X2229662Y-7272731D01*
X2225802Y-7270648D01*
X2223160Y-7267194D01*
X2222246Y-7262926D01*
X2222246Y-7041692D01*
X2223008Y-7037781D01*
X2225192Y-7034479D01*
X2841599Y-6418072D01*
X2845003Y-6415836D01*
X2848965Y-6415125D01*
X2852928Y-6415989D01*
X2856230Y-6418326D01*
X2858363Y-6421780D01*
X2858922Y-6425793D01*
X2858668Y-6431127D01*
X2859582Y-6448806D01*
X2862376Y-6466281D01*
X2866948Y-6483400D01*
X2873298Y-6499961D01*
X2881325Y-6515709D01*
X2890977Y-6530594D01*
X2902153Y-6544360D01*
X2914650Y-6556857D01*
X2928416Y-6568033D01*
X2943301Y-6577685D01*
X2959049Y-6585712D01*
X2975610Y-6592062D01*
X2988919Y-6595618D01*
X2992577Y-6597446D01*
X2995218Y-6600596D01*
X2996387Y-6604508D01*
X2995930Y-6608572D01*
X2993898Y-6612128D01*
X2990646Y-6614617D01*
X2986684Y-6615582D01*
X2981198Y-6615785D01*
X2976829Y-6616395D01*
X2972562Y-6617309D01*
X2968345Y-6618630D01*
X2964281Y-6620357D01*
X2960370Y-6622389D01*
X2956661Y-6624726D01*
X2953156Y-6627418D01*
X2949752Y-6630568D01*
X2618740Y-6961530D01*
X2615641Y-6964984D01*
X2612948Y-6968439D01*
X2610561Y-6972147D01*
X2608529Y-6976059D01*
X2606852Y-6980174D01*
X2605532Y-6984339D01*
X2604566Y-6988657D01*
X2604008Y-6993026D01*
X2603804Y-6997649D01*
X2603804Y-9138208D01*
X2603042Y-9142018D01*
X2600960Y-9145270D01*
X2583586Y-9155887D01*
X2571750Y-9165132D01*
X2561132Y-9175750D01*
X2551887Y-9187586D01*
X2544064Y-9200438D01*
X2537917Y-9214154D01*
X2533446Y-9228531D01*
X2530754Y-9243314D01*
X2529840Y-9258300D01*
X2530754Y-9273286D01*
X2533446Y-9288068D01*
X2537917Y-9302445D01*
X2544064Y-9316161D01*
X2551887Y-9329013D01*
X2561132Y-9340850D01*
X2571750Y-9351467D01*
X2583586Y-9360712D01*
X2596438Y-9368536D01*
X2610154Y-9374682D01*
X2624531Y-9379153D01*
X2639314Y-9381845D01*
X2654300Y-9382760D01*
X2669286Y-9381845D01*
X2684068Y-9379153D01*
X2698445Y-9374682D01*
X2712161Y-9368536D01*
X2725013Y-9360712D01*
X2736850Y-9351467D01*
X2747467Y-9340850D01*
X2756712Y-9329013D01*
X2764536Y-9316161D01*
X2770682Y-9302445D01*
X2775153Y-9288068D01*
X2777845Y-9273286D01*
X2778760Y-9258300D01*
X2777845Y-9243314D01*
X2775153Y-9228531D01*
X2770682Y-9214154D01*
X2764536Y-9200438D01*
X2756712Y-9187586D01*
X2747467Y-9175750D01*
X2736850Y-9165132D01*
X2725013Y-9155887D01*
X2707640Y-9145270D01*
X2705557Y-9142018D01*
X2704795Y-9138208D01*
X2704795Y-7022541D01*
X2705557Y-7018680D01*
X2707792Y-7015378D01*
X2841955Y-6881164D01*
X2845358Y-6878929D01*
X2849321Y-6878218D01*
X2853283Y-6879081D01*
X2856585Y-6881418D01*
X2858719Y-6884873D01*
X2859328Y-6888886D01*
X2858668Y-6901129D01*
X2859582Y-6918807D01*
X2862376Y-6936282D01*
X2866948Y-6953402D01*
X2873298Y-6969963D01*
X2874772Y-6972858D01*
X2875889Y-6976922D01*
X2875229Y-6981139D01*
X2872943Y-6984644D01*
X2754833Y-7102754D01*
X2751683Y-7106208D01*
X2748991Y-7109663D01*
X2746654Y-7113371D01*
X2744622Y-7117283D01*
X2742895Y-7121398D01*
X2741574Y-7125563D01*
X2740660Y-7129881D01*
X2740050Y-7134250D01*
X2739847Y-7138873D01*
X2739847Y-8581339D01*
X2740050Y-8585962D01*
X2740660Y-8590330D01*
X2741574Y-8594648D01*
X2742895Y-8598814D01*
X2744622Y-8602929D01*
X2746654Y-8606840D01*
X2748991Y-8610549D01*
X2751683Y-8614003D01*
X2754833Y-8617458D01*
X2815844Y-8678468D01*
X2817774Y-8681161D01*
X2818739Y-8684361D01*
X2818638Y-8687663D01*
X2816504Y-8698433D01*
X2815590Y-8712200D01*
X2816504Y-8725966D01*
X2819196Y-8739479D01*
X2823616Y-8752535D01*
X2829712Y-8764930D01*
X2837383Y-8776360D01*
X2846476Y-8786723D01*
X2856839Y-8795816D01*
X2868269Y-8803487D01*
X2880664Y-8809583D01*
X2893720Y-8814003D01*
X2907233Y-8816695D01*
X2921000Y-8817610D01*
X2934766Y-8816695D01*
X2948279Y-8814003D01*
X2961335Y-8809583D01*
X2973730Y-8803487D01*
X2985160Y-8795816D01*
X2995523Y-8786723D01*
X3004616Y-8776360D01*
X3012287Y-8764930D01*
X3018383Y-8752535D01*
X3022803Y-8739479D01*
X3025495Y-8725966D01*
X3026410Y-8712200D01*
X3025495Y-8698433D01*
X3022803Y-8684920D01*
X3018383Y-8671864D01*
X3012287Y-8659469D01*
X3004616Y-8648039D01*
X2995523Y-8637676D01*
X2985160Y-8628583D01*
X2973730Y-8620912D01*
X2961335Y-8614816D01*
X2948279Y-8610396D01*
X2934766Y-8607704D01*
X2921000Y-8606790D01*
X2907233Y-8607704D01*
X2896463Y-8609838D01*
X2893161Y-8609939D01*
X2889961Y-8608974D01*
X2887268Y-8607044D01*
X2861208Y-8580983D01*
X2859024Y-8577681D01*
X2858211Y-8573820D01*
X2859024Y-8569909D01*
X2861208Y-8566607D01*
X2864510Y-8564422D01*
X2868371Y-8563660D01*
X2877159Y-8563660D01*
X2877159Y-8522919D01*
X2877921Y-8519058D01*
X2880106Y-8515807D01*
X2883357Y-8513572D01*
X2887218Y-8512759D01*
X2891078Y-8513470D01*
X2894380Y-8515604D01*
X2896616Y-8518804D01*
X2898546Y-8523071D01*
X2902153Y-8527897D01*
X2906725Y-8531606D01*
X2912059Y-8534146D01*
X2918206Y-8535416D01*
X2920644Y-8535466D01*
X2926994Y-8534704D01*
X2932531Y-8532622D01*
X2937408Y-8529269D01*
X2941523Y-8524595D01*
X2943402Y-8521496D01*
X2945130Y-8516823D01*
X2947263Y-8513470D01*
X2950565Y-8511133D01*
X2954477Y-8510270D01*
X2958439Y-8511032D01*
X2961792Y-8513216D01*
X2964027Y-8516518D01*
X2964840Y-8520430D01*
X2964840Y-8563660D01*
X2995422Y-8563660D01*
X3001873Y-8563000D01*
X3007563Y-8561273D01*
X3012846Y-8558479D01*
X3017469Y-8554669D01*
X3021279Y-8550046D01*
X3024073Y-8544763D01*
X3025800Y-8539073D01*
X3026460Y-8532622D01*
X3026460Y-8502040D01*
X2985008Y-8502040D01*
X2981147Y-8501278D01*
X2977896Y-8499094D01*
X2975660Y-8495842D01*
X2974848Y-8491982D01*
X2975559Y-8488121D01*
X2977692Y-8484819D01*
X2980893Y-8482584D01*
X2984601Y-8480907D01*
X2989427Y-8477300D01*
X2993136Y-8472728D01*
X2995676Y-8467394D01*
X2996895Y-8461349D01*
X2996895Y-8456371D01*
X2996336Y-8452662D01*
X2994152Y-8446922D01*
X2990799Y-8442045D01*
X2986125Y-8437930D01*
X2983026Y-8436051D01*
X2977692Y-8434070D01*
X2974289Y-8431936D01*
X2972003Y-8428634D01*
X2971139Y-8424722D01*
X2971850Y-8420760D01*
X2974086Y-8417407D01*
X2977388Y-8415172D01*
X2981299Y-8414410D01*
X3026460Y-8414410D01*
X3026460Y-8383778D01*
X3025800Y-8377326D01*
X3024073Y-8371636D01*
X3021279Y-8366353D01*
X3017469Y-8361730D01*
X3012846Y-8357920D01*
X3007563Y-8355126D01*
X3001873Y-8353399D01*
X2995422Y-8352739D01*
X2964840Y-8352739D01*
X2964840Y-8397290D01*
X2964078Y-8401151D01*
X2961894Y-8404402D01*
X2958642Y-8406638D01*
X2954782Y-8407450D01*
X2950921Y-8406739D01*
X2947619Y-8404606D01*
X2945384Y-8401405D01*
X2942437Y-8394852D01*
X2938830Y-8390026D01*
X2934258Y-8386318D01*
X2928924Y-8383778D01*
X2922879Y-8382558D01*
X2917901Y-8382558D01*
X2914192Y-8383117D01*
X2908452Y-8385302D01*
X2903575Y-8388654D01*
X2899460Y-8393328D01*
X2897581Y-8396427D01*
X2896870Y-8398408D01*
X2894736Y-8401812D01*
X2891434Y-8404098D01*
X2887522Y-8404961D01*
X2883560Y-8404250D01*
X2880207Y-8402066D01*
X2877972Y-8398713D01*
X2877159Y-8394801D01*
X2877159Y-8352739D01*
X2851048Y-8352739D01*
X2847136Y-8351977D01*
X2843834Y-8349792D01*
X2841650Y-8346490D01*
X2840888Y-8342579D01*
X2840888Y-8296198D01*
X2841802Y-8291931D01*
X2844444Y-8288477D01*
X2848254Y-8286394D01*
X2852623Y-8286140D01*
X2856687Y-8287715D01*
X2868269Y-8295487D01*
X2880664Y-8301583D01*
X2893720Y-8306003D01*
X2907233Y-8308695D01*
X2921000Y-8309609D01*
X2934766Y-8308695D01*
X2948279Y-8306003D01*
X2961335Y-8301583D01*
X2973730Y-8295487D01*
X2985160Y-8287816D01*
X2995523Y-8278723D01*
X3004616Y-8268360D01*
X3012287Y-8256930D01*
X3018383Y-8244535D01*
X3022803Y-8231479D01*
X3025495Y-8217966D01*
X3026410Y-8204200D01*
X3025495Y-8190433D01*
X3022803Y-8176920D01*
X3018383Y-8163864D01*
X3012287Y-8151469D01*
X3004616Y-8140039D01*
X2995523Y-8129676D01*
X2985160Y-8120583D01*
X2973730Y-8112912D01*
X2961335Y-8106816D01*
X2948279Y-8102396D01*
X2934766Y-8099704D01*
X2921000Y-8098790D01*
X2907233Y-8099704D01*
X2893720Y-8102396D01*
X2880664Y-8106816D01*
X2868269Y-8112912D01*
X2856687Y-8120684D01*
X2852623Y-8122259D01*
X2848254Y-8122005D01*
X2844444Y-8119922D01*
X2841802Y-8116468D01*
X2840888Y-8112201D01*
X2840888Y-7399731D01*
X2841802Y-7395514D01*
X2844342Y-7392060D01*
X2848102Y-7389977D01*
X2852420Y-7389622D01*
X2856433Y-7391095D01*
X2859532Y-7394092D01*
X2861056Y-7398105D01*
X2862376Y-7406284D01*
X2866948Y-7423403D01*
X2873298Y-7439964D01*
X2881325Y-7455712D01*
X2890977Y-7470597D01*
X2902153Y-7484364D01*
X2914650Y-7496860D01*
X2928416Y-7508036D01*
X2943301Y-7517688D01*
X2959049Y-7525715D01*
X2975610Y-7532065D01*
X2992729Y-7536637D01*
X3010204Y-7539431D01*
X3027934Y-7540345D01*
X3045612Y-7539431D01*
X3063087Y-7536637D01*
X3080207Y-7532065D01*
X3096768Y-7525715D01*
X3112516Y-7517688D01*
X3127400Y-7508036D01*
X3141167Y-7496860D01*
X3153664Y-7484364D01*
X3164840Y-7470597D01*
X3174492Y-7455712D01*
X3182518Y-7439964D01*
X3188868Y-7423403D01*
X3193440Y-7406284D01*
X3196234Y-7388809D01*
X3197148Y-7371130D01*
X3196234Y-7353401D01*
X3193440Y-7335926D01*
X3188868Y-7318806D01*
X3182518Y-7302246D01*
X3181045Y-7299350D01*
X3179927Y-7295286D01*
X3180588Y-7291070D01*
X3182874Y-7287564D01*
X3344519Y-7125919D01*
X3347669Y-7122464D01*
X3350361Y-7119010D01*
X3352698Y-7115302D01*
X3354730Y-7111390D01*
X3356457Y-7107275D01*
X3357778Y-7103109D01*
X3358692Y-7098792D01*
X3359302Y-7094423D01*
X3359505Y-7089800D01*
X3359505Y-6646367D01*
X3360267Y-6642506D01*
X3362451Y-6639204D01*
X3796842Y-6204813D01*
X3800398Y-6202527D01*
X3804564Y-6201867D01*
X3808628Y-6202984D01*
X3811930Y-6205626D01*
X3813810Y-6209385D01*
X3814064Y-6213602D01*
X3812590Y-6222898D01*
X3811625Y-6240627D01*
X3812590Y-6258306D01*
X3815334Y-6275781D01*
X3819956Y-6292900D01*
X3826256Y-6309461D01*
X3834333Y-6325209D01*
X3843985Y-6340094D01*
X3855110Y-6353860D01*
X3867658Y-6366357D01*
X3881424Y-6377533D01*
X3896258Y-6387185D01*
X3912057Y-6395212D01*
X3928618Y-6401562D01*
X3945686Y-6406134D01*
X3963212Y-6408928D01*
X3980891Y-6409842D01*
X3998569Y-6408928D01*
X4016095Y-6406134D01*
X4033215Y-6401562D01*
X4049725Y-6395212D01*
X4065524Y-6387185D01*
X4080357Y-6377533D01*
X4094124Y-6366357D01*
X4106672Y-6353860D01*
X4117797Y-6340094D01*
X4127449Y-6325209D01*
X4135475Y-6309461D01*
X4141825Y-6292900D01*
X4146448Y-6275781D01*
X4149191Y-6258306D01*
X4150156Y-6240627D01*
X4149191Y-6222898D01*
X4146448Y-6205423D01*
X4141825Y-6188303D01*
X4135475Y-6171742D01*
X4127449Y-6155994D01*
X4117797Y-6141110D01*
X4106672Y-6127343D01*
X4094124Y-6114846D01*
X4080357Y-6103670D01*
X4065524Y-6094018D01*
X4049725Y-6085992D01*
X4033215Y-6079642D01*
X4016095Y-6075070D01*
X3998569Y-6072276D01*
X3980891Y-6071362D01*
X3963212Y-6072276D01*
X3945686Y-6075070D01*
X3928618Y-6079642D01*
X3912057Y-6085992D01*
X3903065Y-6090564D01*
X3899611Y-6091580D01*
X3896004Y-6091377D01*
X3892702Y-6089853D01*
X3890111Y-6087313D01*
X3888638Y-6084011D01*
X3887724Y-6080404D01*
X3883660Y-6071158D01*
X3878173Y-6062726D01*
X3871315Y-6055309D01*
X3863390Y-6049162D01*
X3854551Y-6044336D01*
X3845001Y-6041085D01*
X3835095Y-6039408D01*
X3824986Y-6039408D01*
X3815079Y-6041085D01*
X3805529Y-6044336D01*
X3796690Y-6049162D01*
X3788765Y-6055309D01*
X3781907Y-6062726D01*
X3776421Y-6071158D01*
X3772357Y-6080404D01*
X3770985Y-6085789D01*
X3769969Y-6088278D01*
X3768344Y-6090462D01*
X3273450Y-6585356D01*
X3270300Y-6588810D01*
X3267608Y-6592265D01*
X3265271Y-6595973D01*
X3263239Y-6599885D01*
X3261512Y-6604000D01*
X3260191Y-6608165D01*
X3259277Y-6612483D01*
X3258667Y-6616852D01*
X3258464Y-6621475D01*
X3258464Y-7064908D01*
X3257702Y-7068769D01*
X3255517Y-7072071D01*
X3111449Y-7216140D01*
X3107944Y-7218425D01*
X3103727Y-7219086D01*
X3099663Y-7217968D01*
X3096768Y-7216495D01*
X3080207Y-7210145D01*
X3063087Y-7205573D01*
X3045612Y-7202779D01*
X3027934Y-7201865D01*
X3010204Y-7202779D01*
X2992729Y-7205573D01*
X2975610Y-7210145D01*
X2959049Y-7216495D01*
X2943301Y-7224522D01*
X2928416Y-7234174D01*
X2914650Y-7245350D01*
X2902153Y-7257846D01*
X2890977Y-7271613D01*
X2881325Y-7286498D01*
X2873298Y-7302246D01*
X2866948Y-7318806D01*
X2862376Y-7335926D01*
X2861056Y-7344105D01*
X2859532Y-7348118D01*
X2856433Y-7351115D01*
X2852420Y-7352588D01*
X2848102Y-7352233D01*
X2844342Y-7350150D01*
X2841802Y-7346696D01*
X2840888Y-7342479D01*
X2840888Y-7163765D01*
X2841650Y-7159904D01*
X2843834Y-7156602D01*
X2944368Y-7056069D01*
X2947873Y-7053783D01*
X2952089Y-7053122D01*
X2956153Y-7054240D01*
X2959049Y-7055713D01*
X2975610Y-7062063D01*
X2992729Y-7066635D01*
X3010204Y-7069429D01*
X3027934Y-7070344D01*
X3045612Y-7069429D01*
X3063087Y-7066635D01*
X3080207Y-7062063D01*
X3096768Y-7055713D01*
X3112516Y-7047687D01*
X3127400Y-7038035D01*
X3141167Y-7026859D01*
X3153664Y-7014362D01*
X3164840Y-7000595D01*
X3174492Y-6985711D01*
X3182518Y-6969963D01*
X3188868Y-6953402D01*
X3193440Y-6936282D01*
X3196234Y-6918807D01*
X3197148Y-6901129D01*
X3196234Y-6883400D01*
X3193440Y-6865924D01*
X3188868Y-6848805D01*
X3182518Y-6832244D01*
X3174492Y-6816496D01*
X3164840Y-6801612D01*
X3153664Y-6787845D01*
X3141167Y-6775348D01*
X3127400Y-6764172D01*
X3112516Y-6754520D01*
X3096768Y-6746494D01*
X3080207Y-6740144D01*
X3066897Y-6736588D01*
X3063189Y-6734708D01*
X3060547Y-6731508D01*
X3059430Y-6727545D01*
X3059938Y-6723430D01*
X3062122Y-6719874D01*
X3065475Y-6717436D01*
X3069539Y-6716623D01*
X3079648Y-6716420D01*
X3084017Y-6715810D01*
X3088335Y-6714896D01*
X3092500Y-6713575D01*
X3096615Y-6711848D01*
X3100527Y-6709816D01*
X3104235Y-6707479D01*
X3107690Y-6704787D01*
X3111144Y-6701637D01*
X3413607Y-6399174D01*
X3416096Y-6397345D01*
X3428593Y-6393078D01*
X3437432Y-6388303D01*
X3445408Y-6382105D01*
X3452215Y-6374688D01*
X3457752Y-6366256D01*
X3461765Y-6357061D01*
X3464255Y-6347307D01*
X3465068Y-6337249D01*
X3464255Y-6327190D01*
X3461765Y-6317437D01*
X3457752Y-6308242D01*
X3452215Y-6299809D01*
X3445408Y-6292392D01*
X3437432Y-6286195D01*
X3428593Y-6281420D01*
X3419094Y-6278118D01*
X3409137Y-6276492D01*
X3399078Y-6276492D01*
X3389122Y-6278118D01*
X3379622Y-6281420D01*
X3370783Y-6286195D01*
X3362807Y-6292392D01*
X3356000Y-6299809D01*
X3350463Y-6308242D01*
X3346450Y-6317437D01*
X3345078Y-6322822D01*
X3344062Y-6325362D01*
X3342436Y-6327495D01*
X3213557Y-6456375D01*
X3210204Y-6458610D01*
X3206191Y-6459321D01*
X3202228Y-6458458D01*
X3198926Y-6456121D01*
X3196844Y-6452666D01*
X3196234Y-6448653D01*
X3197148Y-6431127D01*
X3196234Y-6413398D01*
X3193440Y-6395923D01*
X3188868Y-6378803D01*
X3182518Y-6362242D01*
X3174492Y-6346494D01*
X3164840Y-6331610D01*
X3153664Y-6317843D01*
X3141167Y-6305346D01*
X3127400Y-6294170D01*
X3112516Y-6284518D01*
X3096768Y-6276492D01*
X3080207Y-6270142D01*
X3063087Y-6265570D01*
X3045612Y-6262776D01*
X3027934Y-6261862D01*
X3022600Y-6262116D01*
X3018586Y-6261557D01*
X3015132Y-6259423D01*
X3012795Y-6256121D01*
X3011932Y-6252159D01*
X3012643Y-6248196D01*
X3014878Y-6244793D01*
X3834129Y-5425592D01*
X3837432Y-5423357D01*
X3841292Y-5422595D01*
X4103979Y-5422595D01*
X4107230Y-5423154D01*
X4110177Y-5424728D01*
X4112412Y-5427116D01*
X4119067Y-5437022D01*
X4128262Y-5447538D01*
X4138777Y-5456732D01*
X4150360Y-5464505D01*
X4162856Y-5470652D01*
X4176064Y-5475173D01*
X4189780Y-5477865D01*
X4203700Y-5478780D01*
X4217619Y-5477865D01*
X4231335Y-5475173D01*
X4244543Y-5470652D01*
X4257040Y-5464505D01*
X4268622Y-5456732D01*
X4279138Y-5447538D01*
X4288332Y-5437022D01*
X4296105Y-5425440D01*
X4302506Y-5412435D01*
X4305350Y-5408930D01*
X4309414Y-5406999D01*
X4313936Y-5406999D01*
X4318000Y-5408980D01*
X4320794Y-5412486D01*
X4321810Y-5416905D01*
X4329988Y-15735452D01*
X4329176Y-15739363D01*
X4326940Y-15742666D01*
X4323588Y-15744901D01*
X4319625Y-15745612D01*
X4315714Y-15744748D01*
X4312462Y-15742412D01*
X4310329Y-15739008D01*
X4305604Y-15726511D01*
X4297273Y-15709849D01*
X4287316Y-15694202D01*
X4275785Y-15679623D01*
X4262780Y-15666313D01*
X4248556Y-15654426D01*
X4233113Y-15644012D01*
X4216704Y-15635325D01*
X4199483Y-15628315D01*
X4181652Y-15623082D01*
X4163364Y-15619780D01*
X4144822Y-15618358D01*
X4126280Y-15618815D01*
X4107840Y-15621203D01*
X4089755Y-15625470D01*
X4072178Y-15631566D01*
X4055364Y-15639440D01*
X4039463Y-15649041D01*
X4024579Y-15660166D01*
X4010914Y-15672816D01*
X3998671Y-15686735D01*
X3987901Y-15701924D01*
X3978757Y-15718078D01*
X3971290Y-15735096D01*
X3965651Y-15752826D01*
X3961841Y-15771012D01*
X3959961Y-15789503D01*
X3959961Y-15808045D01*
X3961841Y-15826536D01*
X3965651Y-15844723D01*
X3971290Y-15862452D01*
X3978757Y-15879470D01*
X3987901Y-15895624D01*
X3998671Y-15910813D01*
X4010914Y-15924733D01*
X4024579Y-15937382D01*
X4039463Y-15948507D01*
X4053941Y-15957245D01*
X4057091Y-15960242D01*
X4058716Y-15964306D01*
X4058462Y-15968624D01*
X4056430Y-15972485D01*
X4052976Y-15975177D01*
X4048709Y-15976092D01*
G37*

%LPC*%
G36*
X2065375Y-531926D02*
G01*
X2065375Y-433933D01*
X1967484Y-433933D01*
X1972106Y-442823D01*
X1983384Y-460501D01*
X1996287Y-477113D01*
X2010613Y-492404D01*
X2026259Y-506374D01*
X2043125Y-518871D01*
X2061057Y-529793D01*
G37*
G36*
X3476599Y-15779038D02*
G01*
X3495395Y-15779038D01*
X3514090Y-15777159D01*
X3532479Y-15773349D01*
X3550412Y-15767761D01*
X3567684Y-15760344D01*
X3584143Y-15751200D01*
X3599535Y-15740481D01*
X3613810Y-15728238D01*
X3626764Y-15714624D01*
X3638245Y-15699740D01*
X3648201Y-15683839D01*
X3656482Y-15666923D01*
X3662984Y-15649346D01*
X3667709Y-15631160D01*
X3670554Y-15612567D01*
X3671468Y-15593822D01*
X3670554Y-15575026D01*
X3667709Y-15556433D01*
X3662984Y-15538246D01*
X3656482Y-15520669D01*
X3648201Y-15503753D01*
X3638245Y-15487853D01*
X3626764Y-15472968D01*
X3613810Y-15459354D01*
X3599535Y-15447111D01*
X3584143Y-15436392D01*
X3567684Y-15427248D01*
X3550412Y-15419832D01*
X3532479Y-15414244D01*
X3514090Y-15410434D01*
X3495395Y-15408554D01*
X3476599Y-15408554D01*
X3457905Y-15410434D01*
X3439515Y-15414244D01*
X3421583Y-15419832D01*
X3404311Y-15427248D01*
X3387851Y-15436392D01*
X3372459Y-15447111D01*
X3358184Y-15459354D01*
X3345230Y-15472968D01*
X3333750Y-15487853D01*
X3323793Y-15503753D01*
X3315512Y-15520669D01*
X3309010Y-15538246D01*
X3304286Y-15556433D01*
X3301441Y-15575026D01*
X3300526Y-15593822D01*
X3301441Y-15612567D01*
X3304286Y-15631160D01*
X3309010Y-15649346D01*
X3315512Y-15666923D01*
X3323793Y-15683839D01*
X3333750Y-15699740D01*
X3345230Y-15714624D01*
X3358184Y-15728238D01*
X3372459Y-15740481D01*
X3387851Y-15751200D01*
X3404311Y-15760344D01*
X3421583Y-15767761D01*
X3439515Y-15773349D01*
X3457905Y-15777159D01*
G37*
G36*
X1076604Y-15779038D02*
G01*
X1095400Y-15779038D01*
X1114094Y-15777159D01*
X1132484Y-15773349D01*
X1150416Y-15767761D01*
X1167688Y-15760344D01*
X1184148Y-15751200D01*
X1199540Y-15740481D01*
X1213815Y-15728238D01*
X1226769Y-15714624D01*
X1238250Y-15699740D01*
X1248206Y-15683839D01*
X1256487Y-15666923D01*
X1262989Y-15649346D01*
X1267714Y-15631160D01*
X1270558Y-15612567D01*
X1271473Y-15593822D01*
X1270558Y-15575026D01*
X1267714Y-15556433D01*
X1262989Y-15538246D01*
X1256487Y-15520669D01*
X1248206Y-15503753D01*
X1238250Y-15487853D01*
X1226769Y-15472968D01*
X1213815Y-15459354D01*
X1199540Y-15447111D01*
X1184148Y-15436392D01*
X1167688Y-15427248D01*
X1150416Y-15419832D01*
X1132484Y-15414244D01*
X1114094Y-15410434D01*
X1095400Y-15408554D01*
X1076604Y-15408554D01*
X1057910Y-15410434D01*
X1039520Y-15414244D01*
X1021587Y-15419832D01*
X1004316Y-15427248D01*
X987856Y-15436392D01*
X972464Y-15447111D01*
X958189Y-15459354D01*
X945235Y-15472968D01*
X933754Y-15487853D01*
X923798Y-15503753D01*
X915517Y-15520669D01*
X909015Y-15538246D01*
X904290Y-15556433D01*
X901446Y-15575026D01*
X900531Y-15593822D01*
X901446Y-15612567D01*
X904290Y-15631160D01*
X909015Y-15649346D01*
X915517Y-15666923D01*
X923798Y-15683839D01*
X933754Y-15699740D01*
X945235Y-15714624D01*
X958189Y-15728238D01*
X972464Y-15740481D01*
X987856Y-15751200D01*
X1004316Y-15760344D01*
X1021587Y-15767761D01*
X1039520Y-15773349D01*
X1057910Y-15777159D01*
G37*
G36*
X2278075Y-15568066D02*
G01*
X2375916Y-15568066D01*
X2371293Y-15559176D01*
X2360015Y-15541498D01*
X2347163Y-15524886D01*
X2332837Y-15509595D01*
X2317140Y-15495625D01*
X2300325Y-15483128D01*
X2282393Y-15472206D01*
X2278075Y-15470073D01*
G37*
G36*
X1967484Y-15568066D02*
G01*
X2065375Y-15568066D01*
X2065375Y-15470073D01*
X2061006Y-15472206D01*
X2043074Y-15483128D01*
X2026259Y-15495625D01*
X2010562Y-15509595D01*
X1996236Y-15524886D01*
X1983384Y-15541498D01*
X1972106Y-15559176D01*
G37*
G36*
X2176322Y-15070836D02*
G01*
X2194864Y-15069413D01*
X2213152Y-15066060D01*
X2230983Y-15060879D01*
X2248204Y-15053868D01*
X2264613Y-15045131D01*
X2280056Y-15034768D01*
X2294280Y-15022880D01*
X2307285Y-15009571D01*
X2318816Y-14994991D01*
X2328773Y-14979294D01*
X2337104Y-14962682D01*
X2343658Y-14945309D01*
X2348382Y-14927326D01*
X2351227Y-14908936D01*
X2352192Y-14890394D01*
X2351227Y-14871852D01*
X2348382Y-14853462D01*
X2343658Y-14835479D01*
X2337104Y-14818106D01*
X2328773Y-14801494D01*
X2318816Y-14785797D01*
X2307285Y-14771217D01*
X2294280Y-14757907D01*
X2280056Y-14746020D01*
X2264613Y-14735657D01*
X2248204Y-14726919D01*
X2230983Y-14719909D01*
X2213152Y-14714728D01*
X2194864Y-14711375D01*
X2176322Y-14709952D01*
X2157780Y-14710460D01*
X2139340Y-14712848D01*
X2121255Y-14717115D01*
X2103678Y-14723211D01*
X2086864Y-14731085D01*
X2070963Y-14740636D01*
X2056079Y-14751812D01*
X2042414Y-14764410D01*
X2030171Y-14778380D01*
X2019401Y-14793518D01*
X2010257Y-14809673D01*
X2002789Y-14826742D01*
X1997151Y-14844420D01*
X1993341Y-14862606D01*
X1991461Y-14881098D01*
X1991461Y-14899690D01*
X1993341Y-14918182D01*
X1997151Y-14936368D01*
X2002789Y-14954046D01*
X2010257Y-14971115D01*
X2019401Y-14987269D01*
X2030171Y-15002408D01*
X2042414Y-15016378D01*
X2056079Y-15028976D01*
X2070963Y-15040152D01*
X2086864Y-15049703D01*
X2103678Y-15057577D01*
X2121255Y-15063673D01*
X2139340Y-15067940D01*
X2157780Y-15070328D01*
G37*
G36*
X1501495Y-12507722D02*
G01*
X2642870Y-12507722D01*
X2647492Y-12507518D01*
X2651861Y-12506960D01*
X2656128Y-12505994D01*
X2660345Y-12504674D01*
X2664409Y-12502997D01*
X2668320Y-12500965D01*
X2672029Y-12498578D01*
X2675534Y-12495885D01*
X2678938Y-12492786D01*
X2742895Y-12428829D01*
X2745892Y-12426746D01*
X2749448Y-12425883D01*
X2753106Y-12426340D01*
X2763621Y-12429591D01*
X2778709Y-12432385D01*
X2794000Y-12433300D01*
X2809290Y-12432385D01*
X2824378Y-12429591D01*
X2839008Y-12425019D01*
X2853029Y-12418720D01*
X2866136Y-12410795D01*
X2878226Y-12401346D01*
X2889046Y-12390526D01*
X2898495Y-12378436D01*
X2906420Y-12365329D01*
X2912719Y-12351308D01*
X2917291Y-12336678D01*
X2920085Y-12321590D01*
X2921000Y-12306300D01*
X2920085Y-12291009D01*
X2917291Y-12275921D01*
X2912719Y-12261291D01*
X2906420Y-12247270D01*
X2898495Y-12234164D01*
X2889046Y-12222073D01*
X2878226Y-12211253D01*
X2866136Y-12201804D01*
X2853029Y-12193879D01*
X2839008Y-12187580D01*
X2824378Y-12183008D01*
X2809290Y-12180214D01*
X2794000Y-12179300D01*
X2778709Y-12180214D01*
X2763621Y-12183008D01*
X2748991Y-12187580D01*
X2734970Y-12193879D01*
X2721864Y-12201804D01*
X2709773Y-12211253D01*
X2698953Y-12222073D01*
X2689504Y-12234164D01*
X2681579Y-12247270D01*
X2676245Y-12259056D01*
X2674061Y-12262205D01*
X2670810Y-12264288D01*
X2667000Y-12265050D01*
X2663190Y-12264288D01*
X2659938Y-12262205D01*
X2657754Y-12259056D01*
X2652420Y-12247270D01*
X2644495Y-12234164D01*
X2635046Y-12222073D01*
X2624226Y-12211253D01*
X2612136Y-12201804D01*
X2599029Y-12193879D01*
X2585008Y-12187580D01*
X2570378Y-12183008D01*
X2555290Y-12180214D01*
X2540000Y-12179300D01*
X2524709Y-12180214D01*
X2509621Y-12183008D01*
X2507030Y-12183821D01*
X2502560Y-12184176D01*
X2498394Y-12182602D01*
X2495296Y-12179350D01*
X2493873Y-12175134D01*
X2494432Y-12170714D01*
X2496820Y-12166904D01*
X2526690Y-12137034D01*
X2529992Y-12134850D01*
X2533853Y-12134088D01*
X2844698Y-12134088D01*
X2849321Y-12133884D01*
X2853690Y-12133275D01*
X2858008Y-12132360D01*
X2862173Y-12131040D01*
X2866288Y-12129312D01*
X2870200Y-12127280D01*
X2873908Y-12124944D01*
X2877362Y-12122251D01*
X2880817Y-12119102D01*
X3537000Y-11462918D01*
X3538982Y-11461394D01*
X3541217Y-11460378D01*
X3545484Y-11459057D01*
X3555644Y-11454180D01*
X3564940Y-11447830D01*
X3573221Y-11440160D01*
X3580282Y-11431320D01*
X3585921Y-11421567D01*
X3590036Y-11411051D01*
X3592525Y-11400028D01*
X3593388Y-11388394D01*
X3593388Y-11350548D01*
X3594201Y-11346637D01*
X3596386Y-11343335D01*
X3599687Y-11341150D01*
X3603548Y-11340388D01*
X3607460Y-11341150D01*
X3610762Y-11343335D01*
X4081170Y-11813794D01*
X4083253Y-11816791D01*
X4084116Y-11820347D01*
X4083710Y-11824004D01*
X4081983Y-11827256D01*
X4079240Y-11829643D01*
X4069486Y-11835587D01*
X4057650Y-11844832D01*
X4047032Y-11855450D01*
X4037787Y-11867286D01*
X4029964Y-11880138D01*
X4023817Y-11893854D01*
X4019346Y-11908231D01*
X4016654Y-11923014D01*
X4015740Y-11938000D01*
X4016654Y-11952986D01*
X4019346Y-11967768D01*
X4023817Y-11982145D01*
X4029964Y-11995861D01*
X4037787Y-12008713D01*
X4047032Y-12020550D01*
X4057650Y-12031167D01*
X4069486Y-12040412D01*
X4082338Y-12048236D01*
X4096054Y-12054382D01*
X4110431Y-12058853D01*
X4125214Y-12061545D01*
X4140200Y-12062460D01*
X4155186Y-12061545D01*
X4169968Y-12058853D01*
X4184345Y-12054382D01*
X4198061Y-12048236D01*
X4210913Y-12040412D01*
X4222750Y-12031167D01*
X4233367Y-12020550D01*
X4242612Y-12008713D01*
X4250436Y-11995861D01*
X4256582Y-11982145D01*
X4261053Y-11967768D01*
X4263745Y-11952986D01*
X4264660Y-11938000D01*
X4263745Y-11923014D01*
X4261053Y-11908231D01*
X4256582Y-11893854D01*
X4250436Y-11880138D01*
X4242612Y-11867286D01*
X4233367Y-11855450D01*
X4222750Y-11844832D01*
X4210913Y-11835587D01*
X4193540Y-11824970D01*
X4191457Y-11821718D01*
X4190695Y-11817908D01*
X4190695Y-11801602D01*
X4190492Y-11796979D01*
X4189933Y-11792610D01*
X4188968Y-11788292D01*
X4187647Y-11784126D01*
X4185970Y-11780012D01*
X4183938Y-11776100D01*
X4181551Y-11772392D01*
X4178858Y-11768937D01*
X4175760Y-11765483D01*
X3597808Y-11187531D01*
X3594354Y-11184432D01*
X3590899Y-11181740D01*
X3587191Y-11179352D01*
X3583279Y-11177320D01*
X3579164Y-11175644D01*
X3574999Y-11174323D01*
X3570681Y-11173358D01*
X3566312Y-11172799D01*
X3561689Y-11172596D01*
X3465576Y-11172596D01*
X3460953Y-11172799D01*
X3456584Y-11173358D01*
X3452266Y-11174323D01*
X3448100Y-11175644D01*
X3443986Y-11177320D01*
X3440074Y-11179352D01*
X3436365Y-11181740D01*
X3432911Y-11184432D01*
X3429457Y-11187531D01*
X3372561Y-11244478D01*
X3370630Y-11246002D01*
X3368344Y-11246967D01*
X3363315Y-11248542D01*
X3353155Y-11253419D01*
X3346907Y-11257686D01*
X3343452Y-11259210D01*
X3339693Y-11259362D01*
X3336188Y-11258143D01*
X3333292Y-11255756D01*
X3330448Y-11252250D01*
X3325825Y-11248491D01*
X3320542Y-11245646D01*
X3314852Y-11243919D01*
X3308400Y-11243310D01*
X3292754Y-11243310D01*
X3292754Y-11307470D01*
X3305301Y-11307470D01*
X3309365Y-11308283D01*
X3312769Y-11310721D01*
X3314903Y-11314277D01*
X3315411Y-11319205D01*
X3315411Y-11388394D01*
X3314903Y-11393322D01*
X3312769Y-11396878D01*
X3309365Y-11399316D01*
X3305301Y-11400129D01*
X3292754Y-11400129D01*
X3292754Y-11464290D01*
X3308400Y-11464290D01*
X3314852Y-11463680D01*
X3320542Y-11461953D01*
X3325825Y-11459108D01*
X3330448Y-11455349D01*
X3333292Y-11451844D01*
X3336188Y-11449456D01*
X3339693Y-11448237D01*
X3343452Y-11448389D01*
X3346907Y-11449913D01*
X3353155Y-11454180D01*
X3363315Y-11459057D01*
X3373729Y-11462258D01*
X3377336Y-11464290D01*
X3379876Y-11467592D01*
X3380892Y-11471605D01*
X3380181Y-11475669D01*
X3377895Y-11479174D01*
X2826969Y-12030100D01*
X2823667Y-12032284D01*
X2819806Y-12033046D01*
X2508961Y-12033046D01*
X2504338Y-12033250D01*
X2499969Y-12033859D01*
X2495651Y-12034774D01*
X2491486Y-12036094D01*
X2487371Y-12037822D01*
X2483459Y-12039854D01*
X2479751Y-12042190D01*
X2476296Y-12044883D01*
X2472842Y-12048032D01*
X2337104Y-12183770D01*
X2334107Y-12185853D01*
X2330551Y-12186716D01*
X2326894Y-12186259D01*
X2316378Y-12183008D01*
X2301290Y-12180214D01*
X2286000Y-12179300D01*
X2270709Y-12180214D01*
X2255621Y-12183008D01*
X2240991Y-12187580D01*
X2226970Y-12193879D01*
X2213864Y-12201804D01*
X2201773Y-12211253D01*
X2190953Y-12222073D01*
X2181504Y-12234164D01*
X2173579Y-12247270D01*
X2168245Y-12259056D01*
X2166061Y-12262205D01*
X2162810Y-12264288D01*
X2159000Y-12265050D01*
X2155190Y-12264288D01*
X2151938Y-12262205D01*
X2149754Y-12259056D01*
X2144420Y-12247270D01*
X2136495Y-12234164D01*
X2127046Y-12222073D01*
X2116226Y-12211253D01*
X2104136Y-12201804D01*
X2091029Y-12193879D01*
X2077008Y-12187580D01*
X2062378Y-12183008D01*
X2047290Y-12180214D01*
X2032000Y-12179300D01*
X2016709Y-12180214D01*
X2001621Y-12183008D01*
X1986991Y-12187580D01*
X1972970Y-12193879D01*
X1959864Y-12201804D01*
X1947773Y-12211253D01*
X1936953Y-12222073D01*
X1927504Y-12234164D01*
X1919579Y-12247270D01*
X1914245Y-12259056D01*
X1912061Y-12262205D01*
X1908810Y-12264288D01*
X1905000Y-12265050D01*
X1901189Y-12264288D01*
X1897938Y-12262205D01*
X1895754Y-12259056D01*
X1890420Y-12247270D01*
X1882495Y-12234164D01*
X1873046Y-12222073D01*
X1862226Y-12211253D01*
X1850136Y-12201804D01*
X1837029Y-12193879D01*
X1823008Y-12187580D01*
X1808378Y-12183008D01*
X1793290Y-12180214D01*
X1778000Y-12179300D01*
X1762709Y-12180214D01*
X1747621Y-12183008D01*
X1732991Y-12187580D01*
X1718970Y-12193879D01*
X1705864Y-12201804D01*
X1693773Y-12211253D01*
X1682953Y-12222073D01*
X1673504Y-12234164D01*
X1665579Y-12247270D01*
X1659280Y-12261291D01*
X1654708Y-12275921D01*
X1651914Y-12291009D01*
X1651000Y-12306300D01*
X1651914Y-12321590D01*
X1654708Y-12336678D01*
X1659280Y-12351308D01*
X1665579Y-12365329D01*
X1673504Y-12378436D01*
X1682800Y-12390272D01*
X1684680Y-12394387D01*
X1684680Y-12398857D01*
X1682699Y-12402921D01*
X1679193Y-12405715D01*
X1674774Y-12406731D01*
X1526387Y-12406731D01*
X1522526Y-12405969D01*
X1519224Y-12403734D01*
X1474927Y-12359436D01*
X1473301Y-12357303D01*
X1472285Y-12354763D01*
X1470914Y-12349378D01*
X1466850Y-12340183D01*
X1461363Y-12331750D01*
X1454505Y-12324334D01*
X1446580Y-12318136D01*
X1437741Y-12313361D01*
X1428191Y-12310059D01*
X1418285Y-12308433D01*
X1408176Y-12308433D01*
X1398270Y-12310059D01*
X1388719Y-12313361D01*
X1379880Y-12318136D01*
X1371955Y-12324334D01*
X1365097Y-12331750D01*
X1359611Y-12340183D01*
X1355547Y-12349378D01*
X1353108Y-12359132D01*
X1352245Y-12369190D01*
X1353108Y-12379248D01*
X1355547Y-12389002D01*
X1359611Y-12398197D01*
X1365097Y-12406630D01*
X1371955Y-12414046D01*
X1379880Y-12420244D01*
X1388719Y-12425019D01*
X1401216Y-12429286D01*
X1403756Y-12431115D01*
X1465376Y-12492786D01*
X1468831Y-12495885D01*
X1472285Y-12498578D01*
X1475994Y-12500965D01*
X1479905Y-12502997D01*
X1484020Y-12504674D01*
X1488186Y-12505994D01*
X1492504Y-12506960D01*
X1496872Y-12507518D01*
G37*
G36*
X3476599Y-12379045D02*
G01*
X3495395Y-12379045D01*
X3514090Y-12377166D01*
X3532479Y-12373356D01*
X3550412Y-12367768D01*
X3567684Y-12360351D01*
X3584143Y-12351207D01*
X3599535Y-12340488D01*
X3613810Y-12328245D01*
X3626764Y-12314631D01*
X3638245Y-12299746D01*
X3648201Y-12283846D01*
X3656482Y-12266930D01*
X3662984Y-12249353D01*
X3667709Y-12231166D01*
X3670554Y-12212574D01*
X3671468Y-12193828D01*
X3670554Y-12175032D01*
X3667709Y-12156440D01*
X3662984Y-12138253D01*
X3656482Y-12120676D01*
X3648201Y-12103760D01*
X3638245Y-12087860D01*
X3626764Y-12072975D01*
X3613810Y-12059361D01*
X3599535Y-12047118D01*
X3584143Y-12036399D01*
X3567684Y-12027255D01*
X3550412Y-12019838D01*
X3532479Y-12014250D01*
X3514090Y-12010440D01*
X3495395Y-12008561D01*
X3476599Y-12008561D01*
X3457905Y-12010440D01*
X3439515Y-12014250D01*
X3421583Y-12019838D01*
X3404311Y-12027255D01*
X3387851Y-12036399D01*
X3372459Y-12047118D01*
X3358184Y-12059361D01*
X3345230Y-12072975D01*
X3333750Y-12087860D01*
X3323793Y-12103760D01*
X3315512Y-12120676D01*
X3309010Y-12138253D01*
X3304286Y-12156440D01*
X3301441Y-12175032D01*
X3300526Y-12193828D01*
X3301441Y-12212574D01*
X3304286Y-12231166D01*
X3309010Y-12249353D01*
X3315512Y-12266930D01*
X3323793Y-12283846D01*
X3333750Y-12299746D01*
X3345230Y-12314631D01*
X3358184Y-12328245D01*
X3372459Y-12340488D01*
X3387851Y-12351207D01*
X3404311Y-12360351D01*
X3421583Y-12367768D01*
X3439515Y-12373356D01*
X3457905Y-12377166D01*
G37*
G36*
X1076604Y-12379045D02*
G01*
X1095400Y-12379045D01*
X1114094Y-12377166D01*
X1132484Y-12373356D01*
X1150416Y-12367768D01*
X1167688Y-12360351D01*
X1184148Y-12351207D01*
X1199540Y-12340488D01*
X1213815Y-12328245D01*
X1226769Y-12314631D01*
X1238250Y-12299746D01*
X1248206Y-12283846D01*
X1256487Y-12266930D01*
X1262989Y-12249353D01*
X1267714Y-12231166D01*
X1270558Y-12212574D01*
X1271473Y-12193828D01*
X1270558Y-12175032D01*
X1267714Y-12156440D01*
X1262989Y-12138253D01*
X1256487Y-12120676D01*
X1248206Y-12103760D01*
X1238250Y-12087860D01*
X1226769Y-12072975D01*
X1213815Y-12059361D01*
X1199540Y-12047118D01*
X1184148Y-12036399D01*
X1167688Y-12027255D01*
X1150416Y-12019838D01*
X1132484Y-12014250D01*
X1114094Y-12010440D01*
X1095400Y-12008561D01*
X1076604Y-12008561D01*
X1057910Y-12010440D01*
X1039520Y-12014250D01*
X1021587Y-12019838D01*
X1004316Y-12027255D01*
X987856Y-12036399D01*
X972464Y-12047118D01*
X958189Y-12059361D01*
X945235Y-12072975D01*
X933754Y-12087860D01*
X923798Y-12103760D01*
X915517Y-12120676D01*
X909015Y-12138253D01*
X904290Y-12156440D01*
X901446Y-12175032D01*
X900531Y-12193828D01*
X901446Y-12212574D01*
X904290Y-12231166D01*
X909015Y-12249353D01*
X915517Y-12266930D01*
X923798Y-12283846D01*
X933754Y-12299746D01*
X945235Y-12314631D01*
X958189Y-12328245D01*
X972464Y-12340488D01*
X987856Y-12351207D01*
X1004316Y-12360351D01*
X1021587Y-12367768D01*
X1039520Y-12373356D01*
X1057910Y-12377166D01*
G37*
G36*
X3219399Y-11464290D02*
G01*
X3235045Y-11464290D01*
X3235045Y-11400129D01*
X3188411Y-11400129D01*
X3188411Y-11433302D01*
X3189020Y-11439753D01*
X3190748Y-11445443D01*
X3193592Y-11450726D01*
X3197352Y-11455349D01*
X3201974Y-11459108D01*
X3207258Y-11461953D01*
X3212947Y-11463680D01*
G37*
G36*
X2275382Y-11458905D02*
G01*
X2318562Y-11458905D01*
X2318562Y-11384737D01*
X2244394Y-11384737D01*
X2244394Y-11427917D01*
X2245004Y-11434318D01*
X2246782Y-11440058D01*
X2249576Y-11445341D01*
X2253386Y-11449913D01*
X2257958Y-11453723D01*
X2263241Y-11456517D01*
X2268982Y-11458295D01*
G37*
G36*
X1526082Y-11458905D02*
G01*
X1569262Y-11458905D01*
X1569262Y-11384737D01*
X1495094Y-11384737D01*
X1495094Y-11427917D01*
X1495704Y-11434318D01*
X1497482Y-11440058D01*
X1500276Y-11445341D01*
X1504086Y-11449913D01*
X1508658Y-11453723D01*
X1513941Y-11456517D01*
X1519682Y-11458295D01*
G37*
G36*
X776782Y-11458905D02*
G01*
X819962Y-11458905D01*
X819962Y-11384737D01*
X745794Y-11384737D01*
X745794Y-11427917D01*
X746404Y-11434318D01*
X748182Y-11440058D01*
X750976Y-11445341D01*
X754786Y-11449913D01*
X759358Y-11453723D01*
X764641Y-11456517D01*
X770382Y-11458295D01*
G37*
G36*
X3188411Y-11307470D02*
G01*
X3235045Y-11307470D01*
X3235045Y-11243310D01*
X3219399Y-11243310D01*
X3212947Y-11243919D01*
X3207258Y-11245646D01*
X3201974Y-11248491D01*
X3197352Y-11252250D01*
X3193592Y-11256873D01*
X3190748Y-11262156D01*
X3189020Y-11267846D01*
X3188411Y-11274298D01*
G37*
G36*
X4140200Y-11300460D02*
G01*
X4155186Y-11299545D01*
X4169968Y-11296853D01*
X4184345Y-11292382D01*
X4198061Y-11286236D01*
X4210913Y-11278412D01*
X4222750Y-11269167D01*
X4233367Y-11258550D01*
X4242612Y-11246713D01*
X4250436Y-11233861D01*
X4256582Y-11220145D01*
X4261053Y-11205768D01*
X4263745Y-11190986D01*
X4264660Y-11176000D01*
X4263745Y-11161014D01*
X4261053Y-11146231D01*
X4256582Y-11131854D01*
X4250436Y-11118138D01*
X4242612Y-11105286D01*
X4233367Y-11093450D01*
X4222750Y-11082832D01*
X4210913Y-11073587D01*
X4198061Y-11065764D01*
X4184345Y-11059617D01*
X4169968Y-11055146D01*
X4155186Y-11052454D01*
X4140200Y-11051540D01*
X4125214Y-11052454D01*
X4110431Y-11055146D01*
X4096054Y-11059617D01*
X4082338Y-11065764D01*
X4069486Y-11073587D01*
X4057650Y-11082832D01*
X4047032Y-11093450D01*
X4037787Y-11105286D01*
X4029964Y-11118138D01*
X4023817Y-11131854D01*
X4019346Y-11146231D01*
X4016654Y-11161014D01*
X4015740Y-11176000D01*
X4016654Y-11190986D01*
X4019346Y-11205768D01*
X4023817Y-11220145D01*
X4029964Y-11233861D01*
X4037787Y-11246713D01*
X4047032Y-11258550D01*
X4057650Y-11269167D01*
X4069486Y-11278412D01*
X4082338Y-11286236D01*
X4096054Y-11292382D01*
X4110431Y-11296853D01*
X4125214Y-11299545D01*
G37*
G36*
X745794Y-11272062D02*
G01*
X819962Y-11272062D01*
X819962Y-11197894D01*
X776782Y-11197894D01*
X770382Y-11198504D01*
X764641Y-11200282D01*
X759358Y-11203076D01*
X754786Y-11206886D01*
X750976Y-11211458D01*
X748182Y-11216741D01*
X746404Y-11222482D01*
X745794Y-11228882D01*
G37*
G36*
X3131261Y-10649153D02*
G01*
X3828338Y-10649153D01*
X3832961Y-10648950D01*
X3837330Y-10648391D01*
X3841597Y-10647426D01*
X3845814Y-10646105D01*
X3849878Y-10644428D01*
X3853789Y-10642396D01*
X3857498Y-10640009D01*
X3861003Y-10637316D01*
X3864406Y-10634218D01*
X3925519Y-10573105D01*
X3928516Y-10571022D01*
X3932021Y-10570159D01*
X3935577Y-10570565D01*
X3938117Y-10571276D01*
X3951935Y-10573512D01*
X3965905Y-10573969D01*
X3979824Y-10572648D01*
X3993489Y-10569498D01*
X4006596Y-10564672D01*
X4019042Y-10558221D01*
X4030522Y-10550194D01*
X4040886Y-10540796D01*
X4049928Y-10530128D01*
X4057548Y-10518394D01*
X4063644Y-10505795D01*
X4068064Y-10492486D01*
X4070705Y-10478770D01*
X4071620Y-10464800D01*
X4070705Y-10450830D01*
X4068064Y-10437114D01*
X4063644Y-10423804D01*
X4057548Y-10411206D01*
X4049928Y-10399471D01*
X4040886Y-10388803D01*
X4030522Y-10379405D01*
X4019042Y-10371378D01*
X4006596Y-10364927D01*
X3993489Y-10360101D01*
X3979824Y-10356951D01*
X3965905Y-10355630D01*
X3951935Y-10356088D01*
X3938117Y-10358323D01*
X3924655Y-10362285D01*
X3911854Y-10367975D01*
X3899915Y-10375239D01*
X3888943Y-10383926D01*
X3879240Y-10393984D01*
X3870858Y-10405211D01*
X3864000Y-10417403D01*
X3858717Y-10430357D01*
X3855212Y-10443921D01*
X3853383Y-10457789D01*
X3853383Y-10471810D01*
X3855212Y-10485678D01*
X3856786Y-10491825D01*
X3857091Y-10495330D01*
X3856177Y-10498734D01*
X3854145Y-10501630D01*
X3834993Y-10520781D01*
X3831691Y-10522966D01*
X3827830Y-10523778D01*
X3823919Y-10522966D01*
X3820617Y-10520781D01*
X3818432Y-10517479D01*
X3817670Y-10513618D01*
X3817670Y-10386568D01*
X3817010Y-10380116D01*
X3815283Y-10374426D01*
X3812489Y-10369143D01*
X3808679Y-10364520D01*
X3804056Y-10360710D01*
X3798773Y-10357916D01*
X3793083Y-10356189D01*
X3786632Y-10355529D01*
X3630168Y-10355529D01*
X3623716Y-10356189D01*
X3618026Y-10357916D01*
X3612743Y-10360710D01*
X3608120Y-10364520D01*
X3604310Y-10369143D01*
X3601516Y-10374426D01*
X3599789Y-10380116D01*
X3599129Y-10388396D01*
X3598367Y-10392257D01*
X3596182Y-10395559D01*
X3592880Y-10397744D01*
X3588969Y-10398556D01*
X3585108Y-10397744D01*
X3581806Y-10395559D01*
X2929686Y-9743440D01*
X2926283Y-9740341D01*
X2922778Y-9737648D01*
X2919069Y-9735261D01*
X2915158Y-9733229D01*
X2911094Y-9731552D01*
X2906877Y-9730232D01*
X2902610Y-9729266D01*
X2898241Y-9728708D01*
X2893618Y-9728504D01*
X2533091Y-9728504D01*
X2529281Y-9727742D01*
X2526030Y-9725660D01*
X2515412Y-9708286D01*
X2508656Y-9699650D01*
X2506726Y-9695586D01*
X2506776Y-9691065D01*
X2508758Y-9687052D01*
X2512263Y-9684207D01*
X2516682Y-9683242D01*
X3071317Y-9683242D01*
X3075736Y-9684207D01*
X3079242Y-9687052D01*
X3081223Y-9691065D01*
X3081274Y-9695586D01*
X3079343Y-9699650D01*
X3072587Y-9708286D01*
X3064764Y-9721138D01*
X3058617Y-9734854D01*
X3054146Y-9749231D01*
X3051454Y-9764014D01*
X3050540Y-9779000D01*
X3051454Y-9793986D01*
X3054146Y-9808768D01*
X3058617Y-9823145D01*
X3064764Y-9836861D01*
X3072587Y-9849713D01*
X3081832Y-9861550D01*
X3092450Y-9872167D01*
X3104286Y-9881412D01*
X3117138Y-9889236D01*
X3130854Y-9895382D01*
X3145231Y-9899853D01*
X3160014Y-9902545D01*
X3175000Y-9903460D01*
X3189986Y-9902545D01*
X3204768Y-9899853D01*
X3213912Y-9897008D01*
X3217519Y-9896551D01*
X3221075Y-9897465D01*
X3224123Y-9899548D01*
X3290265Y-9965690D01*
X3293719Y-9968839D01*
X3297174Y-9971532D01*
X3300882Y-9973868D01*
X3304794Y-9975900D01*
X3308908Y-9977628D01*
X3313074Y-9978948D01*
X3317392Y-9979863D01*
X3321761Y-9980472D01*
X3326384Y-9980676D01*
X4026915Y-9980676D01*
X4031538Y-9980472D01*
X4035907Y-9979863D01*
X4040225Y-9978948D01*
X4044391Y-9977628D01*
X4048506Y-9975900D01*
X4052417Y-9973868D01*
X4056126Y-9971532D01*
X4059580Y-9968839D01*
X4063034Y-9965690D01*
X4129176Y-9899548D01*
X4132224Y-9897465D01*
X4135780Y-9896551D01*
X4139387Y-9897008D01*
X4148531Y-9899853D01*
X4163314Y-9902545D01*
X4178300Y-9903460D01*
X4193286Y-9902545D01*
X4208068Y-9899853D01*
X4222445Y-9895382D01*
X4236161Y-9889236D01*
X4249013Y-9881412D01*
X4260850Y-9872167D01*
X4271467Y-9861550D01*
X4280712Y-9849713D01*
X4288536Y-9836861D01*
X4294682Y-9823145D01*
X4299153Y-9808768D01*
X4301845Y-9793986D01*
X4302760Y-9779000D01*
X4301845Y-9764014D01*
X4299153Y-9749231D01*
X4294682Y-9734854D01*
X4288536Y-9721138D01*
X4280712Y-9708286D01*
X4271467Y-9696450D01*
X4260850Y-9685832D01*
X4249013Y-9676587D01*
X4236161Y-9668764D01*
X4222445Y-9662617D01*
X4208068Y-9658146D01*
X4193286Y-9655454D01*
X4178300Y-9654540D01*
X4163314Y-9655454D01*
X4148531Y-9658146D01*
X4139387Y-9660991D01*
X4135780Y-9661448D01*
X4132224Y-9660534D01*
X4129176Y-9658451D01*
X4015892Y-9545167D01*
X4013657Y-9541865D01*
X4012895Y-9537954D01*
X4012895Y-9467850D01*
X4013758Y-9463786D01*
X4016146Y-9460382D01*
X4017721Y-9458960D01*
X4024782Y-9450120D01*
X4030421Y-9440367D01*
X4034536Y-9429851D01*
X4037025Y-9418828D01*
X4037888Y-9407194D01*
X4037888Y-9338005D01*
X4037025Y-9326372D01*
X4034536Y-9315348D01*
X4030421Y-9304832D01*
X4024782Y-9295079D01*
X4017721Y-9286240D01*
X4009440Y-9278569D01*
X4000144Y-9272219D01*
X3989984Y-9267342D01*
X3979214Y-9263989D01*
X3968038Y-9262313D01*
X3956761Y-9262313D01*
X3945585Y-9263989D01*
X3934815Y-9267342D01*
X3924655Y-9272219D01*
X3915359Y-9278569D01*
X3906520Y-9286798D01*
X3903319Y-9288780D01*
X3898188Y-9289491D01*
X3894480Y-9288780D01*
X3891279Y-9286798D01*
X3882440Y-9278569D01*
X3873144Y-9272219D01*
X3862984Y-9267342D01*
X3852214Y-9263989D01*
X3841038Y-9262313D01*
X3829761Y-9262313D01*
X3818585Y-9263989D01*
X3807815Y-9267342D01*
X3797655Y-9272219D01*
X3791407Y-9276486D01*
X3787952Y-9278010D01*
X3784193Y-9278162D01*
X3780688Y-9276943D01*
X3777792Y-9274556D01*
X3774948Y-9271050D01*
X3770325Y-9267291D01*
X3765042Y-9264446D01*
X3759352Y-9262719D01*
X3752900Y-9262110D01*
X3737254Y-9262110D01*
X3737254Y-9326270D01*
X3749801Y-9326270D01*
X3753865Y-9327083D01*
X3757269Y-9329521D01*
X3759403Y-9333077D01*
X3759911Y-9338005D01*
X3759911Y-9407194D01*
X3759403Y-9412122D01*
X3757269Y-9415678D01*
X3753865Y-9418116D01*
X3749801Y-9418929D01*
X3737254Y-9418929D01*
X3737254Y-9442094D01*
X3736492Y-9446006D01*
X3734257Y-9449308D01*
X3730955Y-9451492D01*
X3727094Y-9452254D01*
X3689705Y-9452254D01*
X3685844Y-9451492D01*
X3682542Y-9449308D01*
X3680307Y-9446006D01*
X3679545Y-9442094D01*
X3679545Y-9418929D01*
X3627475Y-9418929D01*
X3623614Y-9418167D01*
X3620312Y-9415983D01*
X3529584Y-9325254D01*
X3527348Y-9321850D01*
X3526637Y-9317888D01*
X3527501Y-9313926D01*
X3532682Y-9302445D01*
X3537153Y-9288068D01*
X3539845Y-9273286D01*
X3540760Y-9258300D01*
X3539845Y-9243314D01*
X3537153Y-9228531D01*
X3532682Y-9214154D01*
X3526536Y-9200438D01*
X3518712Y-9187586D01*
X3509467Y-9175750D01*
X3498850Y-9165132D01*
X3487013Y-9155887D01*
X3474161Y-9148064D01*
X3460445Y-9141917D01*
X3446068Y-9137446D01*
X3431286Y-9134754D01*
X3416300Y-9133840D01*
X3401314Y-9134754D01*
X3386531Y-9137446D01*
X3372154Y-9141917D01*
X3358438Y-9148064D01*
X3345586Y-9155887D01*
X3333750Y-9165132D01*
X3323132Y-9175750D01*
X3313887Y-9187586D01*
X3306064Y-9200438D01*
X3299917Y-9214154D01*
X3295446Y-9228531D01*
X3292754Y-9243314D01*
X3291840Y-9258300D01*
X3292754Y-9273286D01*
X3295446Y-9288068D01*
X3299917Y-9302445D01*
X3306064Y-9316161D01*
X3313887Y-9329013D01*
X3323132Y-9340850D01*
X3333750Y-9351467D01*
X3345586Y-9360712D01*
X3358438Y-9368536D01*
X3372154Y-9374682D01*
X3386531Y-9379153D01*
X3401314Y-9381845D01*
X3416300Y-9382760D01*
X3431286Y-9381845D01*
X3436213Y-9380982D01*
X3439464Y-9380880D01*
X3442614Y-9381845D01*
X3445256Y-9383776D01*
X3599789Y-9538309D01*
X3603244Y-9541459D01*
X3606698Y-9544151D01*
X3610406Y-9546488D01*
X3614318Y-9548520D01*
X3618433Y-9550247D01*
X3622598Y-9551568D01*
X3626916Y-9552482D01*
X3631285Y-9553092D01*
X3635908Y-9553295D01*
X3778758Y-9553295D01*
X3783380Y-9553092D01*
X3787749Y-9552482D01*
X3792067Y-9551568D01*
X3796233Y-9550247D01*
X3800348Y-9548520D01*
X3804259Y-9546488D01*
X3807968Y-9544151D01*
X3811422Y-9541459D01*
X3814876Y-9538309D01*
X3870960Y-9482226D01*
X3874058Y-9478822D01*
X3876649Y-9475520D01*
X3880205Y-9469323D01*
X3882085Y-9466935D01*
X3891279Y-9458401D01*
X3894480Y-9456420D01*
X3899611Y-9455708D01*
X3903319Y-9456420D01*
X3906520Y-9458401D01*
X3908653Y-9460382D01*
X3911041Y-9463786D01*
X3911904Y-9467850D01*
X3911904Y-9562896D01*
X3912108Y-9567519D01*
X3912666Y-9571888D01*
X3913632Y-9576155D01*
X3914952Y-9580372D01*
X3916629Y-9584436D01*
X3918661Y-9588347D01*
X3921048Y-9592056D01*
X3923741Y-9595561D01*
X3926840Y-9598964D01*
X4057751Y-9729876D01*
X4059834Y-9732924D01*
X4060748Y-9736480D01*
X4060291Y-9740087D01*
X4057446Y-9749231D01*
X4054754Y-9764014D01*
X4053840Y-9779000D01*
X4054754Y-9793986D01*
X4057446Y-9808768D01*
X4060291Y-9817912D01*
X4060748Y-9821519D01*
X4059834Y-9825075D01*
X4057751Y-9828123D01*
X4009186Y-9876688D01*
X4005884Y-9878872D01*
X4002024Y-9879634D01*
X3515868Y-9879634D01*
X3512007Y-9878872D01*
X3508705Y-9876688D01*
X3506520Y-9873386D01*
X3505708Y-9869474D01*
X3506520Y-9865614D01*
X3509467Y-9861550D01*
X3518712Y-9849713D01*
X3526536Y-9836861D01*
X3532682Y-9823145D01*
X3537153Y-9808768D01*
X3539845Y-9793986D01*
X3540760Y-9779000D01*
X3539845Y-9764014D01*
X3537153Y-9749231D01*
X3532682Y-9734854D01*
X3526536Y-9721138D01*
X3518712Y-9708286D01*
X3509467Y-9696450D01*
X3498850Y-9685832D01*
X3487013Y-9676587D01*
X3474161Y-9668764D01*
X3460445Y-9662617D01*
X3446068Y-9658146D01*
X3431286Y-9655454D01*
X3416300Y-9654540D01*
X3401314Y-9655454D01*
X3386531Y-9658146D01*
X3377387Y-9660991D01*
X3373780Y-9661448D01*
X3370224Y-9660534D01*
X3367176Y-9658451D01*
X3305911Y-9597186D01*
X3302457Y-9594037D01*
X3299002Y-9591344D01*
X3295294Y-9589008D01*
X3291382Y-9586976D01*
X3287268Y-9585248D01*
X3283102Y-9583928D01*
X3278784Y-9583013D01*
X3274415Y-9582404D01*
X3269792Y-9582200D01*
X2348484Y-9582200D01*
X2343861Y-9582404D01*
X2339492Y-9583013D01*
X2335225Y-9583928D01*
X2331008Y-9585248D01*
X2326944Y-9586976D01*
X2323033Y-9589008D01*
X2319324Y-9591344D01*
X2315819Y-9594037D01*
X2312416Y-9597186D01*
X2230882Y-9678720D01*
X2227732Y-9682124D01*
X2225040Y-9685629D01*
X2222703Y-9689338D01*
X2220671Y-9693249D01*
X2218944Y-9697313D01*
X2217623Y-9701530D01*
X2216708Y-9705797D01*
X2216099Y-9710166D01*
X2215896Y-9714788D01*
X2215896Y-9859010D01*
X2216099Y-9863632D01*
X2216708Y-9868001D01*
X2217623Y-9872319D01*
X2218944Y-9876485D01*
X2220671Y-9880600D01*
X2222703Y-9884511D01*
X2225040Y-9888220D01*
X2227732Y-9891674D01*
X2230882Y-9895128D01*
X2673959Y-10338206D01*
X2676144Y-10341508D01*
X2676956Y-10345369D01*
X2676144Y-10349280D01*
X2673959Y-10352582D01*
X2670657Y-10354767D01*
X2666796Y-10355529D01*
X2658516Y-10356189D01*
X2652826Y-10357916D01*
X2647543Y-10360710D01*
X2642920Y-10364520D01*
X2639110Y-10369143D01*
X2636316Y-10374426D01*
X2634589Y-10380116D01*
X2633929Y-10386568D01*
X2633929Y-10543032D01*
X2634589Y-10549483D01*
X2636316Y-10555173D01*
X2639110Y-10560456D01*
X2642920Y-10565079D01*
X2647543Y-10568889D01*
X2652826Y-10571683D01*
X2658516Y-10573410D01*
X2664968Y-10574070D01*
X2821432Y-10574070D01*
X2827883Y-10573410D01*
X2833573Y-10571683D01*
X2838856Y-10568889D01*
X2843479Y-10565079D01*
X2847289Y-10560456D01*
X2850083Y-10555173D01*
X2851810Y-10549483D01*
X2852470Y-10543032D01*
X2852470Y-10386568D01*
X2851810Y-10380116D01*
X2850083Y-10374426D01*
X2847289Y-10369143D01*
X2843479Y-10364520D01*
X2838856Y-10360710D01*
X2833573Y-10357916D01*
X2827883Y-10356189D01*
X2821432Y-10355529D01*
X2803855Y-10355529D01*
X2799994Y-10354767D01*
X2796692Y-10352582D01*
X2794457Y-10349280D01*
X2793695Y-10345369D01*
X2793695Y-10336225D01*
X2793492Y-10331602D01*
X2792933Y-10327233D01*
X2791968Y-10322966D01*
X2790647Y-10318750D01*
X2788970Y-10314686D01*
X2786938Y-10310774D01*
X2784551Y-10307066D01*
X2781858Y-10303560D01*
X2778760Y-10300157D01*
X2399030Y-9920427D01*
X2396794Y-9917023D01*
X2396032Y-9913010D01*
X2396947Y-9909048D01*
X2399334Y-9905746D01*
X2402789Y-9903663D01*
X2406802Y-9903104D01*
X2413000Y-9903460D01*
X2427986Y-9902545D01*
X2442768Y-9899853D01*
X2457145Y-9895382D01*
X2470861Y-9889236D01*
X2483713Y-9881412D01*
X2495550Y-9872167D01*
X2506167Y-9861550D01*
X2515412Y-9849713D01*
X2526030Y-9832340D01*
X2529281Y-9830257D01*
X2533091Y-9829495D01*
X2868676Y-9829495D01*
X2872587Y-9830257D01*
X2875889Y-9832492D01*
X3543757Y-10500360D01*
X3547160Y-10503458D01*
X3550665Y-10506151D01*
X3554374Y-10508538D01*
X3558286Y-10510570D01*
X3562350Y-10512247D01*
X3566566Y-10513568D01*
X3570833Y-10514533D01*
X3575202Y-10515092D01*
X3579825Y-10515295D01*
X3588969Y-10515295D01*
X3592880Y-10516057D01*
X3596182Y-10518292D01*
X3598367Y-10521594D01*
X3599129Y-10525455D01*
X3599129Y-10538002D01*
X3598367Y-10541863D01*
X3596182Y-10545165D01*
X3592880Y-10547400D01*
X3588969Y-10548162D01*
X3156204Y-10548162D01*
X3152292Y-10547400D01*
X3148990Y-10545165D01*
X3105607Y-10501782D01*
X3103676Y-10499090D01*
X3102711Y-10495940D01*
X3102813Y-10492638D01*
X3105505Y-10478770D01*
X3106420Y-10464800D01*
X3105505Y-10450830D01*
X3102864Y-10437114D01*
X3098444Y-10423804D01*
X3092348Y-10411206D01*
X3084728Y-10399471D01*
X3075686Y-10388803D01*
X3065322Y-10379405D01*
X3053842Y-10371378D01*
X3041396Y-10364927D01*
X3028289Y-10360101D01*
X3014624Y-10356951D01*
X3000705Y-10355630D01*
X2986735Y-10356088D01*
X2972917Y-10358323D01*
X2959455Y-10362285D01*
X2946654Y-10367975D01*
X2934716Y-10375239D01*
X2923743Y-10383926D01*
X2914040Y-10393984D01*
X2905658Y-10405211D01*
X2898800Y-10417403D01*
X2893517Y-10430357D01*
X2890012Y-10443921D01*
X2888183Y-10457789D01*
X2888183Y-10471810D01*
X2890012Y-10485678D01*
X2893517Y-10499242D01*
X2898800Y-10512196D01*
X2905658Y-10524388D01*
X2914040Y-10535615D01*
X2923743Y-10545673D01*
X2934716Y-10554360D01*
X2946654Y-10561624D01*
X2959455Y-10567314D01*
X2972917Y-10571276D01*
X2986735Y-10573512D01*
X3000705Y-10573969D01*
X3014624Y-10572648D01*
X3024581Y-10570362D01*
X3027984Y-10570159D01*
X3031286Y-10571124D01*
X3034030Y-10573054D01*
X3095193Y-10634218D01*
X3098596Y-10637316D01*
X3102102Y-10640009D01*
X3105810Y-10642396D01*
X3109722Y-10644428D01*
X3113786Y-10646105D01*
X3118002Y-10647426D01*
X3122269Y-10648391D01*
X3126638Y-10648950D01*
G37*
G36*
X1582928Y-9547910D02*
G01*
X1623060Y-9547910D01*
X1623060Y-9476740D01*
X1551889Y-9476740D01*
X1551889Y-9516872D01*
X1552549Y-9523323D01*
X1554276Y-9529013D01*
X1557070Y-9534296D01*
X1560880Y-9538919D01*
X1565503Y-9542729D01*
X1570786Y-9545523D01*
X1576476Y-9547250D01*
G37*
G36*
X1729739Y-9547910D02*
G01*
X1769872Y-9547910D01*
X1776323Y-9547250D01*
X1782013Y-9545523D01*
X1787296Y-9542729D01*
X1791919Y-9538919D01*
X1795729Y-9534296D01*
X1798523Y-9529013D01*
X1800250Y-9523323D01*
X1800910Y-9516872D01*
X1800910Y-9476740D01*
X1729739Y-9476740D01*
G37*
G36*
X955040Y-9547910D02*
G01*
X995171Y-9547910D01*
X1001623Y-9547250D01*
X1007313Y-9545523D01*
X1012596Y-9542729D01*
X1017219Y-9538919D01*
X1021029Y-9534296D01*
X1023823Y-9529013D01*
X1025550Y-9523323D01*
X1026210Y-9516872D01*
X1026210Y-9476740D01*
X955040Y-9476740D01*
G37*
G36*
X2176322Y-9470847D02*
G01*
X2194864Y-9469424D01*
X2213152Y-9466072D01*
X2230983Y-9460890D01*
X2248204Y-9453880D01*
X2264613Y-9445142D01*
X2280056Y-9434779D01*
X2294280Y-9422892D01*
X2307285Y-9409582D01*
X2318816Y-9395002D01*
X2328773Y-9379305D01*
X2337104Y-9362694D01*
X2343658Y-9345320D01*
X2348382Y-9327337D01*
X2351227Y-9308947D01*
X2352192Y-9290405D01*
X2351227Y-9271863D01*
X2348382Y-9253474D01*
X2343658Y-9235490D01*
X2337104Y-9218117D01*
X2328773Y-9201505D01*
X2318816Y-9185808D01*
X2307285Y-9171228D01*
X2294280Y-9157919D01*
X2280056Y-9146032D01*
X2264613Y-9135668D01*
X2248204Y-9126931D01*
X2230983Y-9119920D01*
X2213152Y-9114739D01*
X2194864Y-9111386D01*
X2176322Y-9109964D01*
X2157780Y-9110472D01*
X2139340Y-9112859D01*
X2121255Y-9117126D01*
X2103678Y-9123222D01*
X2086864Y-9131096D01*
X2070963Y-9140647D01*
X2056079Y-9151823D01*
X2042414Y-9164421D01*
X2030171Y-9178391D01*
X2019401Y-9193530D01*
X2010257Y-9209684D01*
X2002789Y-9226753D01*
X1997151Y-9244431D01*
X1993341Y-9262618D01*
X1991461Y-9281109D01*
X1991461Y-9299702D01*
X1993341Y-9318193D01*
X1997151Y-9336379D01*
X2002789Y-9354058D01*
X2010257Y-9371126D01*
X2019401Y-9387281D01*
X2030171Y-9402419D01*
X2042414Y-9416389D01*
X2056079Y-9428988D01*
X2070963Y-9440164D01*
X2086864Y-9449714D01*
X2103678Y-9457588D01*
X2121255Y-9463684D01*
X2139340Y-9467951D01*
X2157780Y-9470339D01*
G37*
G36*
X3632911Y-9326270D02*
G01*
X3679545Y-9326270D01*
X3679545Y-9262110D01*
X3663899Y-9262110D01*
X3657447Y-9262719D01*
X3651758Y-9264446D01*
X3646474Y-9267291D01*
X3641851Y-9271050D01*
X3638092Y-9275673D01*
X3635248Y-9280956D01*
X3633520Y-9286646D01*
X3632911Y-9293098D01*
G37*
G36*
X2161184Y-8736634D02*
G01*
X2182215Y-8736634D01*
X2203094Y-8734755D01*
X2223719Y-8730945D01*
X2243937Y-8725306D01*
X2263546Y-8717838D01*
X2282393Y-8708593D01*
X2300325Y-8697671D01*
X2317140Y-8685174D01*
X2332837Y-8671204D01*
X2347163Y-8655913D01*
X2360015Y-8639302D01*
X2371293Y-8621623D01*
X2380945Y-8603030D01*
X2388870Y-8583574D01*
X2395016Y-8563508D01*
X2399284Y-8542985D01*
X2401671Y-8522106D01*
X2402128Y-8501176D01*
X2400706Y-8480196D01*
X2397353Y-8459520D01*
X2392172Y-8439200D01*
X2385161Y-8419388D01*
X2376373Y-8400338D01*
X2365857Y-8382203D01*
X2353767Y-8365032D01*
X2340152Y-8349081D01*
X2325166Y-8334400D01*
X2308860Y-8321141D01*
X2291486Y-8309457D01*
X2273046Y-8299399D01*
X2253792Y-8291017D01*
X2233879Y-8284464D01*
X2213457Y-8279688D01*
X2192680Y-8276844D01*
X2171700Y-8275878D01*
X2150719Y-8276844D01*
X2129942Y-8279688D01*
X2109520Y-8284464D01*
X2089607Y-8291017D01*
X2070354Y-8299399D01*
X2051913Y-8309457D01*
X2034539Y-8321141D01*
X2018233Y-8334400D01*
X2003247Y-8349081D01*
X1989632Y-8365032D01*
X1977542Y-8382203D01*
X1967026Y-8400338D01*
X1958238Y-8419388D01*
X1951228Y-8439200D01*
X1946046Y-8459520D01*
X1942693Y-8480196D01*
X1941271Y-8501176D01*
X1941728Y-8522106D01*
X1944116Y-8542985D01*
X1948383Y-8563508D01*
X1954530Y-8583574D01*
X1962454Y-8603030D01*
X1972106Y-8621623D01*
X1983384Y-8639302D01*
X1996236Y-8655913D01*
X2010562Y-8671204D01*
X2026259Y-8685174D01*
X2043074Y-8697671D01*
X2061006Y-8708593D01*
X2079853Y-8717838D01*
X2099462Y-8725306D01*
X2119680Y-8730945D01*
X2140305Y-8734755D01*
G37*
G36*
X2278075Y-531926D02*
G01*
X2282393Y-529793D01*
X2300325Y-518871D01*
X2317191Y-506374D01*
X2332837Y-492404D01*
X2347163Y-477113D01*
X2360015Y-460501D01*
X2371344Y-442823D01*
X2375916Y-433933D01*
X2278075Y-433933D01*
G37*
G36*
X1155700Y-902868D02*
G01*
X1170178Y-901953D01*
X1184402Y-899261D01*
X1198219Y-894791D01*
X1211326Y-888593D01*
X1223568Y-880821D01*
X1234744Y-871575D01*
X1244701Y-861009D01*
X1253185Y-849274D01*
X1260195Y-836574D01*
X1265529Y-823112D01*
X1269136Y-809040D01*
X1270965Y-794664D01*
X1270965Y-780135D01*
X1269136Y-765759D01*
X1265529Y-751687D01*
X1260195Y-738225D01*
X1253185Y-725525D01*
X1244701Y-713790D01*
X1234744Y-703224D01*
X1223568Y-693978D01*
X1211326Y-686206D01*
X1198219Y-680008D01*
X1184402Y-675538D01*
X1170178Y-672846D01*
X1155700Y-671931D01*
X1141222Y-672846D01*
X1126998Y-675538D01*
X1113180Y-680008D01*
X1100074Y-686206D01*
X1087831Y-693978D01*
X1076655Y-703224D01*
X1066698Y-713790D01*
X1058214Y-725525D01*
X1051204Y-738225D01*
X1045870Y-751687D01*
X1042263Y-765759D01*
X1040434Y-780135D01*
X1040434Y-794664D01*
X1042263Y-809040D01*
X1045870Y-823112D01*
X1051204Y-836574D01*
X1058214Y-849274D01*
X1066698Y-861009D01*
X1076655Y-871575D01*
X1087831Y-880821D01*
X1100074Y-888593D01*
X1113180Y-894791D01*
X1126998Y-899261D01*
X1141222Y-901953D01*
G37*
G36*
X2048205Y-8097469D02*
G01*
X2062124Y-8096148D01*
X2075789Y-8092998D01*
X2088896Y-8088172D01*
X2101342Y-8081721D01*
X2112822Y-8073694D01*
X2123186Y-8064296D01*
X2132228Y-8053628D01*
X2139848Y-8041894D01*
X2145944Y-8029295D01*
X2150364Y-8015986D01*
X2153005Y-8002270D01*
X2153920Y-7988300D01*
X2153005Y-7974330D01*
X2150364Y-7960614D01*
X2145944Y-7947304D01*
X2139848Y-7934706D01*
X2132228Y-7922971D01*
X2123186Y-7912303D01*
X2112822Y-7902905D01*
X2101342Y-7894878D01*
X2088896Y-7888427D01*
X2075789Y-7883601D01*
X2062124Y-7880451D01*
X2048205Y-7879130D01*
X2034235Y-7879588D01*
X2020417Y-7881823D01*
X2006955Y-7885785D01*
X1994154Y-7891475D01*
X1982216Y-7898739D01*
X1971243Y-7907426D01*
X1961540Y-7917484D01*
X1953158Y-7928711D01*
X1946300Y-7940903D01*
X1941017Y-7953857D01*
X1937512Y-7967421D01*
X1935683Y-7981289D01*
X1935683Y-7995310D01*
X1937512Y-8009178D01*
X1941017Y-8022742D01*
X1946300Y-8035696D01*
X1953158Y-8047888D01*
X1961540Y-8059115D01*
X1971243Y-8069173D01*
X1982216Y-8077860D01*
X1994154Y-8085124D01*
X2006955Y-8090814D01*
X2020417Y-8094776D01*
X2034235Y-8097012D01*
G37*
G36*
X1794205Y-8097469D02*
G01*
X1808124Y-8096148D01*
X1821789Y-8092998D01*
X1834896Y-8088172D01*
X1847342Y-8081721D01*
X1858822Y-8073694D01*
X1869186Y-8064296D01*
X1878228Y-8053628D01*
X1885848Y-8041894D01*
X1891944Y-8029295D01*
X1896364Y-8015986D01*
X1899005Y-8002270D01*
X1899920Y-7988300D01*
X1899005Y-7974330D01*
X1896364Y-7960614D01*
X1891944Y-7947304D01*
X1885848Y-7934706D01*
X1878228Y-7922971D01*
X1869186Y-7912303D01*
X1858822Y-7902905D01*
X1847342Y-7894878D01*
X1834896Y-7888427D01*
X1821789Y-7883601D01*
X1808124Y-7880451D01*
X1794205Y-7879130D01*
X1780235Y-7879588D01*
X1766417Y-7881823D01*
X1752955Y-7885785D01*
X1740154Y-7891475D01*
X1728216Y-7898739D01*
X1717243Y-7907426D01*
X1707540Y-7917484D01*
X1699158Y-7928711D01*
X1692300Y-7940903D01*
X1687017Y-7953857D01*
X1683512Y-7967421D01*
X1681683Y-7981289D01*
X1681683Y-7995310D01*
X1683512Y-8009178D01*
X1687017Y-8022742D01*
X1692300Y-8035696D01*
X1699158Y-8047888D01*
X1707540Y-8059115D01*
X1709369Y-8063077D01*
X1709318Y-8067395D01*
X1708302Y-8069681D01*
X1710791Y-8068564D01*
X1715160Y-8068665D01*
X1719072Y-8070596D01*
X1728216Y-8077860D01*
X1740154Y-8085124D01*
X1752955Y-8090814D01*
X1766417Y-8094776D01*
X1780235Y-8097012D01*
G37*
G36*
X2311400Y-8094980D02*
G01*
X2325319Y-8094065D01*
X2339035Y-8091373D01*
X2352243Y-8086852D01*
X2364740Y-8080705D01*
X2376322Y-8072932D01*
X2386838Y-8063738D01*
X2396032Y-8053222D01*
X2403805Y-8041640D01*
X2409952Y-8029143D01*
X2414473Y-8015935D01*
X2417165Y-8002219D01*
X2418080Y-7988300D01*
X2417165Y-7974380D01*
X2414473Y-7960664D01*
X2409952Y-7947456D01*
X2403805Y-7934959D01*
X2396032Y-7923377D01*
X2386838Y-7912862D01*
X2376322Y-7903667D01*
X2364740Y-7895894D01*
X2352243Y-7889748D01*
X2339035Y-7885226D01*
X2325319Y-7882534D01*
X2311400Y-7881620D01*
X2297480Y-7882534D01*
X2283764Y-7885226D01*
X2270556Y-7889748D01*
X2258060Y-7895894D01*
X2246477Y-7903667D01*
X2235962Y-7912862D01*
X2226767Y-7923377D01*
X2218994Y-7934959D01*
X2212848Y-7947456D01*
X2208326Y-7960664D01*
X2205634Y-7974380D01*
X2204720Y-7988300D01*
X2205634Y-8002219D01*
X2208326Y-8015935D01*
X2212848Y-8029143D01*
X2218994Y-8041640D01*
X2226767Y-8053222D01*
X2235962Y-8063738D01*
X2246477Y-8072932D01*
X2258060Y-8080705D01*
X2270556Y-8086852D01*
X2283764Y-8091373D01*
X2297480Y-8094065D01*
G37*
G36*
X1074420Y-8087410D02*
G01*
X1085342Y-8081721D01*
X1096822Y-8073694D01*
X1107186Y-8064296D01*
X1116228Y-8053628D01*
X1123848Y-8041894D01*
X1127658Y-8034020D01*
X1074420Y-8034020D01*
G37*
G36*
X982980Y-8087258D02*
G01*
X982980Y-8034020D01*
X929589Y-8034020D01*
X930300Y-8035696D01*
X937158Y-8047888D01*
X945540Y-8059115D01*
X955243Y-8069173D01*
X966216Y-8077860D01*
X978153Y-8085124D01*
G37*
G36*
X929589Y-7942580D02*
G01*
X982980Y-7942580D01*
X982980Y-7889341D01*
X978153Y-7891475D01*
X966216Y-7898739D01*
X955243Y-7907426D01*
X945540Y-7917484D01*
X937158Y-7928711D01*
X930300Y-7940903D01*
G37*
G36*
X1074420Y-7942580D02*
G01*
X1127658Y-7942580D01*
X1123848Y-7934706D01*
X1116228Y-7922971D01*
X1107186Y-7912303D01*
X1096822Y-7902905D01*
X1085342Y-7894878D01*
X1074420Y-7889189D01*
G37*
G36*
X2065375Y-15878708D02*
G01*
X2065375Y-15780766D01*
X1967230Y-15780766D01*
X1977542Y-15798596D01*
X1989632Y-15815767D01*
X2003247Y-15831718D01*
X2018233Y-15846399D01*
X2034539Y-15859658D01*
X2051913Y-15871342D01*
G37*
G36*
X665683Y-6343243D02*
G01*
X680516Y-6343243D01*
X695248Y-6341414D01*
X709625Y-6337808D01*
X723442Y-6332474D01*
X736549Y-6325463D01*
X748639Y-6316878D01*
X759612Y-6306870D01*
X769264Y-6295593D01*
X777443Y-6283248D01*
X784047Y-6269990D01*
X788974Y-6255969D01*
X792175Y-6241491D01*
X793546Y-6226708D01*
X793089Y-6211874D01*
X790803Y-6197244D01*
X786739Y-6182969D01*
X780948Y-6169304D01*
X773531Y-6156452D01*
X764590Y-6144615D01*
X754278Y-6133947D01*
X742696Y-6124651D01*
X730097Y-6116828D01*
X716635Y-6110630D01*
X702513Y-6106160D01*
X687882Y-6103416D01*
X673100Y-6102502D01*
X658317Y-6103416D01*
X643686Y-6106160D01*
X629564Y-6110630D01*
X616102Y-6116828D01*
X603504Y-6124651D01*
X591921Y-6133947D01*
X581609Y-6144615D01*
X572668Y-6156452D01*
X565251Y-6169304D01*
X559460Y-6182969D01*
X555396Y-6197244D01*
X553110Y-6211874D01*
X552653Y-6226708D01*
X554024Y-6241491D01*
X557225Y-6255969D01*
X562152Y-6269990D01*
X568756Y-6283248D01*
X576935Y-6295593D01*
X586587Y-6306870D01*
X597560Y-6316878D01*
X609650Y-6325463D01*
X622757Y-6332474D01*
X636574Y-6337808D01*
X650951Y-6341414D01*
G37*
G36*
X875741Y-6331915D02*
G01*
X875741Y-6274358D01*
X818337Y-6274358D01*
X822756Y-6283248D01*
X830935Y-6295593D01*
X840587Y-6306870D01*
X851560Y-6316878D01*
X863650Y-6325463D01*
G37*
G36*
X978458Y-6331915D02*
G01*
X990549Y-6325463D01*
X1002639Y-6316878D01*
X1013612Y-6306870D01*
X1023264Y-6295593D01*
X1031443Y-6283248D01*
X1035862Y-6274358D01*
X978458Y-6274358D01*
G37*
G36*
X2278075Y-15878708D02*
G01*
X2291486Y-15871342D01*
X2308860Y-15859658D01*
X2325166Y-15846399D01*
X2340152Y-15831718D01*
X2353767Y-15815767D01*
X2365857Y-15798596D01*
X2376170Y-15780766D01*
X2278075Y-15780766D01*
G37*
G36*
X978458Y-6171641D02*
G01*
X1035964Y-6171641D01*
X1034948Y-6169304D01*
X1027531Y-6156452D01*
X1018590Y-6144615D01*
X1008278Y-6133947D01*
X996696Y-6124651D01*
X984097Y-6116828D01*
X978458Y-6114237D01*
G37*
G36*
X818235Y-6171641D02*
G01*
X875741Y-6171641D01*
X875741Y-6114237D01*
X870102Y-6116828D01*
X857503Y-6124651D01*
X845921Y-6133947D01*
X835609Y-6144615D01*
X826668Y-6156452D01*
X819251Y-6169304D01*
G37*
G36*
X209550Y-5481574D02*
G01*
X218440Y-5477205D01*
X230022Y-5469432D01*
X240538Y-5460238D01*
X249732Y-5449722D01*
X257505Y-5438140D01*
X261874Y-5429250D01*
X209550Y-5429250D01*
G37*
G36*
X120650Y-5481574D02*
G01*
X120650Y-5429250D01*
X68326Y-5429250D01*
X72694Y-5438140D01*
X80467Y-5449722D01*
X89662Y-5460238D01*
X100177Y-5469432D01*
X111760Y-5477205D01*
G37*
G36*
X209550Y-5340350D02*
G01*
X261874Y-5340350D01*
X257505Y-5331460D01*
X249732Y-5319877D01*
X240538Y-5309362D01*
X230022Y-5300167D01*
X218440Y-5292394D01*
X209550Y-5288026D01*
G37*
G36*
X68326Y-5340350D02*
G01*
X120650Y-5340350D01*
X120650Y-5288026D01*
X111760Y-5292394D01*
X100177Y-5300167D01*
X89662Y-5309362D01*
X80467Y-5319877D01*
X72694Y-5331460D01*
G37*
G36*
X2961640Y-3934917D02*
G01*
X2966161Y-3932936D01*
X2979013Y-3925112D01*
X2990850Y-3915867D01*
X3001467Y-3905250D01*
X3010712Y-3893413D01*
X3018536Y-3880561D01*
X3020517Y-3876040D01*
X2961640Y-3876040D01*
G37*
G36*
X2854960Y-3934917D02*
G01*
X2854960Y-3876040D01*
X2796082Y-3876040D01*
X2798064Y-3880561D01*
X2805887Y-3893413D01*
X2815132Y-3905250D01*
X2825750Y-3915867D01*
X2837586Y-3925112D01*
X2850438Y-3932936D01*
G37*
G36*
X2796082Y-3769360D02*
G01*
X2854960Y-3769360D01*
X2854960Y-3710482D01*
X2850438Y-3712464D01*
X2837586Y-3720287D01*
X2825750Y-3729532D01*
X2815132Y-3740150D01*
X2805887Y-3751986D01*
X2798064Y-3764838D01*
G37*
G36*
X2961640Y-3769360D02*
G01*
X3020517Y-3769360D01*
X3018536Y-3764838D01*
X3010712Y-3751986D01*
X3001467Y-3740150D01*
X2990850Y-3729532D01*
X2979013Y-3720287D01*
X2966161Y-3712464D01*
X2961640Y-3710482D01*
G37*
G36*
X1727707Y-2621330D02*
G01*
X1879092Y-2621330D01*
X1885543Y-2620670D01*
X1891233Y-2618943D01*
X1896516Y-2616149D01*
X1901139Y-2612339D01*
X1904949Y-2607716D01*
X1907743Y-2602433D01*
X1909470Y-2596743D01*
X1910130Y-2590292D01*
X1910130Y-2438908D01*
X1909470Y-2432456D01*
X1907743Y-2426766D01*
X1904949Y-2421483D01*
X1901139Y-2416860D01*
X1896516Y-2413050D01*
X1891233Y-2410256D01*
X1885543Y-2408529D01*
X1879092Y-2407869D01*
X1727707Y-2407869D01*
X1721256Y-2408529D01*
X1715566Y-2410256D01*
X1710283Y-2413050D01*
X1705660Y-2416860D01*
X1701850Y-2421483D01*
X1699056Y-2426766D01*
X1697329Y-2432456D01*
X1696669Y-2438908D01*
X1696669Y-2590292D01*
X1697329Y-2596743D01*
X1699056Y-2602433D01*
X1701850Y-2607716D01*
X1705660Y-2612339D01*
X1710283Y-2616149D01*
X1715566Y-2618943D01*
X1721256Y-2620670D01*
G37*
G36*
X3117850Y-2611374D02*
G01*
X3126740Y-2607005D01*
X3138373Y-2599232D01*
X3148838Y-2590038D01*
X3158032Y-2579522D01*
X3165805Y-2567940D01*
X3170174Y-2559050D01*
X3117850Y-2559050D01*
G37*
G36*
X3117850Y-2470150D02*
G01*
X3170174Y-2470150D01*
X3165805Y-2461260D01*
X3158032Y-2449626D01*
X3148838Y-2439162D01*
X3138373Y-2429967D01*
X3126740Y-2422194D01*
X3117850Y-2417826D01*
G37*
G36*
X1155700Y-2172868D02*
G01*
X1170178Y-2171954D01*
X1184402Y-2169261D01*
X1198219Y-2164791D01*
X1211326Y-2158593D01*
X1223568Y-2150821D01*
X1234744Y-2141575D01*
X1244701Y-2131009D01*
X1253185Y-2119274D01*
X1260195Y-2106574D01*
X1265529Y-2093112D01*
X1269136Y-2079040D01*
X1270965Y-2064664D01*
X1270965Y-2050135D01*
X1269136Y-2035759D01*
X1265529Y-2021687D01*
X1260195Y-2008225D01*
X1253185Y-1995525D01*
X1244701Y-1983790D01*
X1234744Y-1973224D01*
X1223568Y-1963978D01*
X1211326Y-1956206D01*
X1198219Y-1950008D01*
X1184402Y-1945538D01*
X1170178Y-1942846D01*
X1155700Y-1941931D01*
X1141222Y-1942846D01*
X1126998Y-1945538D01*
X1113180Y-1950008D01*
X1100074Y-1956206D01*
X1087831Y-1963978D01*
X1076655Y-1973224D01*
X1066698Y-1983790D01*
X1058214Y-1995525D01*
X1051204Y-2008225D01*
X1045870Y-2021687D01*
X1042263Y-2035759D01*
X1040434Y-2050135D01*
X1040434Y-2064664D01*
X1042263Y-2079040D01*
X1045870Y-2093112D01*
X1051204Y-2106574D01*
X1058214Y-2119274D01*
X1066698Y-2131009D01*
X1076655Y-2141575D01*
X1087831Y-2150821D01*
X1100074Y-2158593D01*
X1113180Y-2164791D01*
X1126998Y-2169261D01*
X1141222Y-2171954D01*
G37*
G36*
X1155700Y-1918868D02*
G01*
X1170178Y-1917954D01*
X1184402Y-1915261D01*
X1198219Y-1910791D01*
X1211326Y-1904593D01*
X1223568Y-1896821D01*
X1234744Y-1887575D01*
X1244701Y-1877009D01*
X1253185Y-1865274D01*
X1260195Y-1852574D01*
X1265529Y-1839112D01*
X1269136Y-1825040D01*
X1270965Y-1810664D01*
X1270965Y-1796135D01*
X1269136Y-1781759D01*
X1265529Y-1767687D01*
X1260195Y-1754225D01*
X1253185Y-1741525D01*
X1244701Y-1729790D01*
X1234744Y-1719224D01*
X1223568Y-1709978D01*
X1211326Y-1702206D01*
X1198219Y-1696008D01*
X1184402Y-1691538D01*
X1170178Y-1688846D01*
X1155700Y-1687931D01*
X1141222Y-1688846D01*
X1126998Y-1691538D01*
X1113180Y-1696008D01*
X1100074Y-1702206D01*
X1087831Y-1709978D01*
X1076655Y-1719224D01*
X1066698Y-1729790D01*
X1058214Y-1741525D01*
X1051204Y-1754225D01*
X1045870Y-1767687D01*
X1042263Y-1781759D01*
X1040434Y-1796135D01*
X1040434Y-1810664D01*
X1042263Y-1825040D01*
X1045870Y-1839112D01*
X1051204Y-1852574D01*
X1058214Y-1865274D01*
X1066698Y-1877009D01*
X1076655Y-1887575D01*
X1087831Y-1896821D01*
X1100074Y-1904593D01*
X1113180Y-1910791D01*
X1126998Y-1915261D01*
X1141222Y-1917954D01*
G37*
G36*
X751840Y-1915617D02*
G01*
X756361Y-1913636D01*
X769213Y-1905812D01*
X781050Y-1896567D01*
X791667Y-1885950D01*
X800912Y-1874113D01*
X808736Y-1861261D01*
X810717Y-1856739D01*
X751840Y-1856739D01*
G37*
G36*
X645160Y-1915617D02*
G01*
X645160Y-1856739D01*
X586282Y-1856739D01*
X588264Y-1861261D01*
X596087Y-1874113D01*
X605332Y-1885950D01*
X615950Y-1896567D01*
X627786Y-1905812D01*
X640638Y-1913636D01*
G37*
G36*
X751840Y-1750060D02*
G01*
X810717Y-1750060D01*
X808736Y-1745538D01*
X800912Y-1732686D01*
X791667Y-1720850D01*
X781050Y-1710232D01*
X769213Y-1700987D01*
X756361Y-1693164D01*
X751840Y-1691182D01*
G37*
G36*
X586282Y-1750060D02*
G01*
X645160Y-1750060D01*
X645160Y-1691182D01*
X640638Y-1693164D01*
X627786Y-1700987D01*
X615950Y-1710232D01*
X605332Y-1720850D01*
X596087Y-1732686D01*
X588264Y-1745538D01*
G37*
G36*
X1155700Y-1664868D02*
G01*
X1170178Y-1663954D01*
X1184402Y-1661261D01*
X1198219Y-1656791D01*
X1211326Y-1650593D01*
X1223568Y-1642821D01*
X1234744Y-1633575D01*
X1244701Y-1623009D01*
X1253185Y-1611274D01*
X1260195Y-1598574D01*
X1265529Y-1585112D01*
X1269136Y-1571040D01*
X1270965Y-1556664D01*
X1270965Y-1542135D01*
X1269136Y-1527759D01*
X1265529Y-1513687D01*
X1260195Y-1500225D01*
X1253185Y-1487525D01*
X1244701Y-1475790D01*
X1234744Y-1465224D01*
X1223568Y-1455978D01*
X1211326Y-1448206D01*
X1198219Y-1442008D01*
X1184402Y-1437538D01*
X1170178Y-1434846D01*
X1155700Y-1433931D01*
X1141222Y-1434846D01*
X1126998Y-1437538D01*
X1113180Y-1442008D01*
X1100074Y-1448206D01*
X1087831Y-1455978D01*
X1076655Y-1465224D01*
X1066698Y-1475790D01*
X1058214Y-1487525D01*
X1051204Y-1500225D01*
X1045870Y-1513687D01*
X1042263Y-1527759D01*
X1040434Y-1542135D01*
X1040434Y-1556664D01*
X1042263Y-1571040D01*
X1045870Y-1585112D01*
X1051204Y-1598574D01*
X1058214Y-1611274D01*
X1066698Y-1623009D01*
X1076655Y-1633575D01*
X1087831Y-1642821D01*
X1100074Y-1650593D01*
X1113180Y-1656791D01*
X1126998Y-1661261D01*
X1141222Y-1663954D01*
G37*
G36*
X3646830Y-1653793D02*
G01*
X3646830Y-1598269D01*
X3591051Y-1598269D01*
X3598214Y-1611274D01*
X3606698Y-1623009D01*
X3616655Y-1633575D01*
X3627831Y-1642821D01*
X3640074Y-1650593D01*
G37*
G36*
X3591051Y-1500530D02*
G01*
X3646830Y-1500530D01*
X3646830Y-1445006D01*
X3640074Y-1448206D01*
X3627831Y-1455978D01*
X3616655Y-1465224D01*
X3606698Y-1475790D01*
X3598214Y-1487525D01*
G37*
G36*
X1155700Y-1410868D02*
G01*
X1170178Y-1409954D01*
X1184402Y-1407261D01*
X1198219Y-1402791D01*
X1211326Y-1396593D01*
X1223568Y-1388821D01*
X1234744Y-1379575D01*
X1244701Y-1369009D01*
X1253185Y-1357274D01*
X1260195Y-1344574D01*
X1265529Y-1331112D01*
X1269136Y-1317040D01*
X1270965Y-1302664D01*
X1270965Y-1288135D01*
X1269136Y-1273759D01*
X1265529Y-1259687D01*
X1260195Y-1246225D01*
X1253185Y-1233525D01*
X1244701Y-1221790D01*
X1234744Y-1211224D01*
X1223568Y-1201978D01*
X1211326Y-1194206D01*
X1198219Y-1188008D01*
X1184402Y-1183538D01*
X1170178Y-1180846D01*
X1155700Y-1179931D01*
X1141222Y-1180846D01*
X1126998Y-1183538D01*
X1113180Y-1188008D01*
X1100074Y-1194206D01*
X1087831Y-1201978D01*
X1076655Y-1211224D01*
X1066698Y-1221790D01*
X1058214Y-1233525D01*
X1051204Y-1246225D01*
X1045870Y-1259687D01*
X1042263Y-1273759D01*
X1040434Y-1288135D01*
X1040434Y-1302664D01*
X1042263Y-1317040D01*
X1045870Y-1331112D01*
X1051204Y-1344574D01*
X1058214Y-1357274D01*
X1066698Y-1369009D01*
X1076655Y-1379575D01*
X1087831Y-1388821D01*
X1100074Y-1396593D01*
X1113180Y-1402791D01*
X1126998Y-1407261D01*
X1141222Y-1409954D01*
G37*
G36*
X2176373Y-1292047D02*
G01*
X2194915Y-1290624D01*
X2213203Y-1287272D01*
X2231034Y-1282090D01*
X2248255Y-1275080D01*
X2264664Y-1266342D01*
X2280056Y-1255979D01*
X2294331Y-1244092D01*
X2307285Y-1230782D01*
X2318816Y-1216202D01*
X2328824Y-1200505D01*
X2337104Y-1183894D01*
X2343658Y-1166520D01*
X2348382Y-1148537D01*
X2351278Y-1130147D01*
X2352243Y-1111605D01*
X2351278Y-1093063D01*
X2348382Y-1074674D01*
X2343658Y-1056690D01*
X2337104Y-1039317D01*
X2328824Y-1022705D01*
X2318816Y-1007008D01*
X2307285Y-992428D01*
X2294331Y-979119D01*
X2280056Y-967232D01*
X2264664Y-956868D01*
X2248255Y-948131D01*
X2231034Y-941120D01*
X2213203Y-935939D01*
X2194915Y-932586D01*
X2176373Y-931164D01*
X2157780Y-931671D01*
X2139391Y-934059D01*
X2121255Y-938326D01*
X2103729Y-944422D01*
X2086914Y-952296D01*
X2070963Y-961847D01*
X2056079Y-973023D01*
X2042464Y-985621D01*
X2030171Y-999591D01*
X2019452Y-1014730D01*
X2010257Y-1030884D01*
X2002840Y-1047953D01*
X1997202Y-1065631D01*
X1993392Y-1083818D01*
X1991461Y-1102309D01*
X1991461Y-1120902D01*
X1993392Y-1139393D01*
X1997202Y-1157579D01*
X2002840Y-1175258D01*
X2010257Y-1192326D01*
X2019452Y-1208481D01*
X2030171Y-1223619D01*
X2042464Y-1237589D01*
X2056079Y-1250188D01*
X2070963Y-1261364D01*
X2086914Y-1270914D01*
X2103729Y-1278788D01*
X2121255Y-1284884D01*
X2139391Y-1289151D01*
X2157780Y-1291539D01*
G37*
G36*
X1155700Y-1156868D02*
G01*
X1170178Y-1155954D01*
X1184402Y-1153261D01*
X1198219Y-1148791D01*
X1211326Y-1142593D01*
X1223568Y-1134821D01*
X1234744Y-1125575D01*
X1244701Y-1115009D01*
X1253185Y-1103274D01*
X1260195Y-1090574D01*
X1265529Y-1077112D01*
X1269136Y-1063040D01*
X1270965Y-1048664D01*
X1270965Y-1034135D01*
X1269136Y-1019759D01*
X1265529Y-1005687D01*
X1260195Y-992225D01*
X1253185Y-979525D01*
X1244701Y-967790D01*
X1234744Y-957224D01*
X1223568Y-947978D01*
X1211326Y-940206D01*
X1198219Y-934008D01*
X1184402Y-929538D01*
X1170178Y-926846D01*
X1155700Y-925931D01*
X1141222Y-926846D01*
X1126998Y-929538D01*
X1113180Y-934008D01*
X1100074Y-940206D01*
X1087831Y-947978D01*
X1076655Y-957224D01*
X1066698Y-967790D01*
X1058214Y-979525D01*
X1051204Y-992225D01*
X1045870Y-1005687D01*
X1042263Y-1019759D01*
X1040434Y-1034135D01*
X1040434Y-1048664D01*
X1042263Y-1063040D01*
X1045870Y-1077112D01*
X1051204Y-1090574D01*
X1058214Y-1103274D01*
X1066698Y-1115009D01*
X1076655Y-1125575D01*
X1087831Y-1134821D01*
X1100074Y-1142593D01*
X1113180Y-1148791D01*
X1126998Y-1153261D01*
X1141222Y-1155954D01*
G37*
G36*
X3980891Y-7730845D02*
G01*
X3998569Y-7729931D01*
X4016095Y-7727137D01*
X4033215Y-7722565D01*
X4049725Y-7716215D01*
X4065524Y-7708188D01*
X4080357Y-7698536D01*
X4094124Y-7687360D01*
X4106672Y-7674864D01*
X4117797Y-7661097D01*
X4127449Y-7646212D01*
X4135475Y-7630464D01*
X4141825Y-7613903D01*
X4146448Y-7596784D01*
X4149191Y-7579309D01*
X4150156Y-7561630D01*
X4149191Y-7543901D01*
X4146448Y-7526426D01*
X4141825Y-7509306D01*
X4135475Y-7492746D01*
X4127449Y-7476998D01*
X4117797Y-7462113D01*
X4106672Y-7448346D01*
X4094124Y-7435850D01*
X4080357Y-7424674D01*
X4065524Y-7415022D01*
X4049725Y-7406995D01*
X4033215Y-7400645D01*
X4016095Y-7396073D01*
X3998569Y-7393279D01*
X3980891Y-7392365D01*
X3963212Y-7393279D01*
X3945686Y-7396073D01*
X3928618Y-7400645D01*
X3912057Y-7406995D01*
X3896258Y-7415022D01*
X3881424Y-7424674D01*
X3867658Y-7435850D01*
X3855110Y-7448346D01*
X3843985Y-7462113D01*
X3834333Y-7476998D01*
X3826256Y-7492746D01*
X3819956Y-7509306D01*
X3815334Y-7526426D01*
X3812590Y-7543901D01*
X3811625Y-7561630D01*
X3812590Y-7579309D01*
X3815334Y-7596784D01*
X3819956Y-7613903D01*
X3826256Y-7630464D01*
X3834333Y-7646212D01*
X3843985Y-7661097D01*
X3855110Y-7674864D01*
X3867658Y-7687360D01*
X3881424Y-7698536D01*
X3896258Y-7708188D01*
X3912057Y-7716215D01*
X3928618Y-7722565D01*
X3945686Y-7727137D01*
X3963212Y-7729931D01*
G37*

%LPD*%
D10*
X3695700Y-4343400D02*
G01*
X3404108Y-4634992D01*
X2654300Y-9258300D02*
G01*
X2654300Y-6997420D01*
X2985617Y-6666103D01*
X3075254Y-6666103D01*
X3404108Y-6337249D01*
X2997200Y-10464800D02*
G01*
X3131058Y-10598658D01*
X3828541Y-10598658D01*
X3962400Y-10464800D01*
X3579622Y-10464800D02*
G01*
X2893822Y-9779000D01*
X2413000Y-9779000D01*
X3708400Y-10464800D02*
G01*
X3579622Y-10464800D01*
X2743200Y-10336021D02*
G01*
X2266416Y-9859238D01*
X2266416Y-9714585D01*
X2348280Y-9632721D01*
X3270021Y-9632721D01*
X3416300Y-9779000D01*
X2743200Y-10464800D02*
G01*
X2743200Y-10336021D01*
X3175000Y-9779000D02*
G01*
X3326155Y-9930155D01*
X4027144Y-9930155D01*
X4178300Y-9779000D01*
X4178300Y-9779000D02*
G01*
X3962400Y-9563100D01*
X3962400Y-9372600D01*
X3416300Y-9258300D02*
G01*
X3416300Y-9283395D01*
X3635679Y-9502775D01*
X3778986Y-9502775D01*
X3835400Y-9446361D01*
X3835400Y-9372600D01*
X4203700Y-5372100D02*
G01*
X3816172Y-5372100D01*
X2171725Y-7016546D01*
X2171725Y-7495590D01*
X3830040Y-6100190D02*
G01*
X3308984Y-6621246D01*
X3308984Y-7090029D01*
X3027908Y-7371105D01*
X3390900Y-11353800D02*
G01*
X3390900Y-11297538D01*
X3465347Y-11223091D01*
X3561918Y-11223091D01*
X4140200Y-11801373D01*
X4140200Y-11938000D01*
X698500Y-1041400D02*
G01*
X555472Y-898372D01*
X555472Y-473227D01*
X698500Y-330200D01*
X2921000Y-8712200D02*
G01*
X2790367Y-8581567D01*
X2790367Y-7138644D01*
X3027908Y-6901103D01*
X3695700Y-787400D02*
G01*
X3838447Y-930147D01*
X3838447Y-5203723D01*
X3301060Y-5741111D01*
X2743911Y-5741111D01*
X2616200Y-5613400D01*
X1676400Y-9169400D02*
G01*
X901700Y-9169400D01*
X774700Y-7988300D02*
G01*
X774700Y-8117078D01*
X660400Y-3187700D02*
G01*
X816330Y-3343630D01*
X816330Y-4746269D01*
X660400Y-4902200D01*
X774700Y-8117078D02*
G01*
X745312Y-8146465D01*
X745312Y-9013012D01*
X885113Y-9152788D01*
X885113Y-9152788D02*
G01*
X901700Y-9169400D01*
X1922475Y-3448685D02*
G01*
X1603882Y-3767277D01*
X1603882Y-4902200D01*
X1265504Y-5240578D01*
X998778Y-5240578D01*
X660400Y-4902200D01*
X1922475Y-3448685D02*
G01*
X2178100Y-3193059D01*
X3560546Y-3193059D01*
X885113Y-9152788D02*
G01*
X757554Y-9280347D01*
X757554Y-10077500D01*
X954303Y-10274249D01*
X1052677Y-10372623D01*
X1052677Y-10372648D01*
X1151026Y-10470997D01*
X1878126Y-10680928D02*
G01*
X1360957Y-10680928D01*
X1151026Y-10470997D01*
X2921000Y-8458200D02*
G01*
X2921000Y-8583168D01*
X3708400Y-9372600D02*
G01*
X3708400Y-9242552D01*
X2921000Y-8583168D02*
G01*
X2985008Y-8583168D01*
X3271138Y-8869299D01*
X3708400Y-9242552D02*
G01*
X3335147Y-8869299D01*
X3271138Y-8869299D01*
X3271138Y-8869299D02*
G01*
X2649372Y-9491065D01*
X1888083Y-9491065D01*
X1820418Y-9423400D01*
X1720443Y-9423400D02*
G01*
X1820418Y-9423400D01*
X1720443Y-9423400D02*
G01*
X1676400Y-9423400D01*
X1676400Y-9423400D02*
G01*
X901700Y-9423400D01*
X2362200Y-5613400D02*
G01*
X2237231Y-5613400D01*
X927100Y-6223000D02*
G01*
X927100Y-6146800D01*
X927100Y-6146800D02*
G01*
X165100Y-5384800D01*
X3073400Y-2514600D02*
G01*
X3073400Y-2171700D01*
X3695700Y-1549400D01*
X3263900Y-11353800D02*
G01*
X3263900Y-11483847D01*
X3263900Y-11483847D02*
G01*
X2530347Y-11483847D01*
X2374900Y-11328400D01*
X2374900Y-11328400D02*
G01*
X2224862Y-11328400D01*
X2224862Y-11328400D02*
G01*
X2066315Y-11486946D01*
X1784146Y-11486946D01*
X1625600Y-11328400D01*
X1625600Y-11328400D02*
G01*
X1475562Y-11328400D01*
X2908300Y-3822700D02*
G01*
X2758846Y-3673246D01*
X2082825Y-3673246D01*
X1987041Y-3769029D01*
X1987041Y-5474995D01*
X2237231Y-5613400D02*
G01*
X2237231Y-5550915D01*
X2161311Y-5474995D01*
X1987041Y-5474995D01*
X1987041Y-5474995D02*
G01*
X1598904Y-5474995D01*
X927100Y-6146800D01*
X2171700Y-15674390D02*
G01*
X1322349Y-14825040D01*
X1322349Y-11481612D01*
X1475562Y-11328400D02*
G01*
X1322349Y-11481612D01*
X1322349Y-11481612D02*
G01*
X1029512Y-11481612D01*
X876300Y-11328400D01*
X2171725Y-327609D02*
G01*
X1424406Y-327609D01*
X933475Y-818540D01*
X933475Y-1568424D01*
X698500Y-1803400D01*
X2171725Y-327609D02*
G01*
X3393516Y-1549400D01*
X3695700Y-1549400D01*
X2057400Y-2514600D02*
G01*
X2190318Y-2381681D01*
X2867863Y-2381681D01*
X2946298Y-2460117D01*
X2946298Y-2591815D01*
X3427882Y-3073400D01*
X3695700Y-3073400D01*
X698500Y-584200D02*
G01*
X1209446Y-73253D01*
X2282291Y-73253D01*
X3451021Y-1241983D01*
X2870200Y-5613400D02*
G01*
X2870200Y-4546600D01*
X2146300Y-3822700D01*
X1155700Y-2819400D02*
G01*
X1693468Y-2281631D01*
X2819400Y-2281631D01*
X1155700Y-3073400D02*
G01*
X1752600Y-3073400D01*
X2311400Y-2514600D01*
X1155700Y-3327400D02*
G01*
X1752600Y-3327400D01*
X2565400Y-2514600D01*
X1155700Y-4089400D02*
G01*
X1020546Y-3954246D01*
X1020546Y-3339845D01*
X525500Y-2844800D01*
X165100Y-2844800D01*
X2628900Y-11328400D02*
G01*
X2628900Y-11309604D01*
X2497531Y-11178235D01*
X2029764Y-11178235D01*
X1896186Y-11311813D01*
X1896186Y-11311813D02*
G01*
X1879600Y-11328400D01*
X2108200Y-5613400D02*
G01*
X2601468Y-6106668D01*
X2601468Y-6286372D01*
X2404694Y-6483146D01*
X2049043Y-6483146D01*
X645795Y-7886395D01*
X645795Y-10623626D01*
X1200404Y-11178235D01*
X1896186Y-11311813D02*
G01*
X1762582Y-11178235D01*
X1200404Y-11178235D01*
X1200404Y-11178235D02*
G01*
X1130300Y-11248339D01*
X1130300Y-11328400D01*
X1282700Y-7988300D02*
G01*
X1282700Y-8661400D01*
X1676400Y-8661400D02*
G01*
X1282700Y-8661400D01*
X1282700Y-8661400D02*
G01*
X901700Y-8661400D01*
X660400Y-2425700D02*
G01*
X1041400Y-2425700D01*
X1155700Y-2311400D01*
X2794000Y-12306300D02*
G01*
X2643073Y-12457226D01*
X1501267Y-12457226D01*
X1413230Y-12369190D01*
X1676400Y-8915400D02*
G01*
X901700Y-8915400D01*
X1536700Y-7988300D02*
G01*
X1835429Y-8287029D01*
X1835429Y-8756370D01*
X1676400Y-8915400D01*
X1155700Y-2565400D02*
G01*
X946150Y-2565400D01*
X927912Y-2583637D01*
X3517900Y-11353800D02*
G01*
X3517900Y-11410594D01*
X2844927Y-12083567D01*
X2508732Y-12083567D01*
X2286000Y-12306300D01*
D11*
G01*
X165100Y-2844800D03*
G01*
X165100Y-5384800D03*
D12*
G01*
X2171725Y-7495590D03*
G01*
X2171725Y-327609D03*
G01*
X2171700Y-8506409D03*
G01*
X2171700Y-15674390D03*
D13*
G01*
X2286000Y-12306300D03*
G01*
X2540000Y-12306300D03*
G01*
X2032000Y-12306300D03*
G01*
X2794000Y-12306300D03*
G01*
X1778000Y-12306300D03*
D14*
G01*
X1155700Y-4851400D03*
G01*
X1155700Y-4597400D03*
G01*
X1155700Y-4343400D03*
G01*
X1155700Y-4089400D03*
G01*
X1155700Y-3835400D03*
G01*
X1155700Y-3581400D03*
G01*
X1155700Y-3327400D03*
G01*
X1155700Y-3073400D03*
G01*
X1155700Y-2819400D03*
G01*
X1155700Y-2565400D03*
G01*
X1155700Y-2311400D03*
G01*
X1155700Y-2057400D03*
G01*
X1155700Y-1803400D03*
G01*
X1155700Y-1549400D03*
G01*
X1155700Y-1295400D03*
G01*
X3695700Y-4597400D03*
G01*
X3695700Y-4343400D03*
G01*
X3695700Y-4089400D03*
G01*
X3695700Y-3835400D03*
G01*
X3695700Y-3581400D03*
G01*
X3695700Y-3327400D03*
G01*
X3695700Y-3073400D03*
G01*
X3695700Y-2819400D03*
G01*
X3695700Y-2565400D03*
G01*
X3695700Y-2311400D03*
G01*
X3695700Y-2057400D03*
G01*
X3695700Y-1803400D03*
G01*
X3695700Y-1549400D03*
G01*
X3695700Y-1295400D03*
G01*
X3695700Y-4851400D03*
G01*
X1155700Y-1041400D03*
G01*
X1155700Y-787400D03*
D15*
G01*
X1155725Y-5105425D03*
G01*
X3695725Y-5105425D03*
D14*
G01*
X3695700Y-1041400D03*
G01*
X3695700Y-787400D03*
D16*
G01*
X901700Y-9423400D03*
D17*
G01*
X901700Y-9169400D03*
G01*
X901700Y-8915400D03*
G01*
X901700Y-8661400D03*
D18*
G01*
X698500Y-330200D03*
G01*
X698500Y-584200D03*
D19*
G01*
X876300Y-11328400D03*
D20*
G01*
X1130300Y-11328400D03*
D19*
G01*
X1625600Y-11328400D03*
D20*
G01*
X1879600Y-11328400D03*
D19*
G01*
X2374900Y-11328400D03*
D20*
G01*
X2628900Y-11328400D03*
D17*
G01*
X2146300Y-3822700D03*
G01*
X2908300Y-3822700D03*
G01*
X660400Y-3187700D03*
G01*
X660400Y-2425700D03*
G01*
X660400Y-4902200D03*
G01*
X660400Y-4140200D03*
G01*
X698500Y-1803400D03*
G01*
X698500Y-1041400D03*
G01*
X4140200Y-11176000D03*
G01*
X4140200Y-11938000D03*
D21*
G01*
X3263900Y-11353800D03*
D22*
G01*
X3390900Y-11353800D03*
G01*
X3517900Y-11353800D03*
D23*
G01*
X3027908Y-6431102D03*
G01*
X3027908Y-6901103D03*
G01*
X3027908Y-7371105D03*
G01*
X3980891Y-7561605D03*
G01*
X3980891Y-6240602D03*
D24*
G01*
X774700Y-7988300D03*
D25*
G01*
X1028700Y-7988300D03*
G01*
X1282700Y-7988300D03*
G01*
X1536700Y-7988300D03*
G01*
X1790700Y-7988300D03*
G01*
X2044700Y-7988300D03*
D11*
G01*
X2311400Y-7988300D03*
G01*
X2311400Y-2514600D03*
G01*
X2057400Y-2514600D03*
D26*
G01*
X1803400Y-2514600D03*
D11*
G01*
X2565400Y-2514600D03*
G01*
X2819400Y-2514600D03*
G01*
X3073400Y-2514600D03*
D27*
G01*
X2108200Y-5613400D03*
D28*
G01*
X2362200Y-5613400D03*
D27*
G01*
X2616200Y-5613400D03*
G01*
X2870200Y-5613400D03*
D11*
G01*
X4203700Y-2832100D03*
G01*
X4203700Y-5372100D03*
D16*
G01*
X1676400Y-9423400D03*
D17*
G01*
X1676400Y-9169400D03*
G01*
X1676400Y-8915400D03*
G01*
X1676400Y-8661400D03*
D29*
G01*
X927100Y-6223000D03*
G01*
X673100Y-6223000D03*
G01*
X1435100Y-6223000D03*
G01*
X1181100Y-6223000D03*
G01*
X1943100Y-6223000D03*
G01*
X1689100Y-6223000D03*
G01*
X2451100Y-6223000D03*
G01*
X2197100Y-6223000D03*
D21*
G01*
X3708400Y-9372600D03*
D22*
G01*
X3835400Y-9372600D03*
G01*
X3962400Y-9372600D03*
D17*
G01*
X2654300Y-9258300D03*
G01*
X3416300Y-9258300D03*
G01*
X3416300Y-9779000D03*
G01*
X4178300Y-9779000D03*
G01*
X2413000Y-9779000D03*
G01*
X3175000Y-9779000D03*
D27*
G01*
X2921000Y-8204200D03*
D28*
G01*
X2921000Y-8458200D03*
D27*
G01*
X2921000Y-8712200D03*
D24*
G01*
X2743200Y-10464800D03*
D25*
G01*
X2997200Y-10464800D03*
D24*
G01*
X3708400Y-10464800D03*
D25*
G01*
X3962400Y-10464800D03*
D30*
G01*
X927912Y-2583637D03*
G01*
X1413230Y-12369190D03*
G01*
X2819400Y-2281631D03*
G01*
X3451021Y-1241983D03*
G01*
X1878126Y-10680928D03*
G01*
X3560546Y-3193059D03*
G01*
X1922475Y-3448685D03*
G01*
X1151026Y-10470997D03*
G01*
X3830040Y-6100190D03*
G01*
X3404108Y-4634992D03*
G01*
X3404108Y-6337249D03*
M02*
