G04 Layer: TopSolderMaskLayer*
G04 EasyEDA v6.5.22, 2023-02-12 16:25:32*
G04 49dac008d54d4cb88ac5759986a8b4bd,6fd1a78a72754d5b9b51f237f625c95f,10*
G04 Gerber Generator version 0.2*
G04 Scale: 100 percent, Rotated: No, Reflected: No *
G04 Dimensions in millimeters *
G04 leading zeros omitted , absolute positions ,4 integer and 5 decimal *
%FSLAX45Y45*%
%MOMM*%

%AMMACRO1*1,1,$1,$2,$3*1,1,$1,$4,$5*1,1,$1,0-$2,0-$3*1,1,$1,0-$4,0-$5*20,1,$1,$2,$3,$4,$5,0*20,1,$1,$4,$5,0-$2,0-$3,0*20,1,$1,0-$2,0-$3,0-$4,0-$5,0*20,1,$1,0-$4,0-$5,$2,$3,0*4,1,4,$2,$3,$4,$5,0-$2,0-$3,0-$4,0-$5,$2,$3,0*%
%ADD10C,1.6256*%
%ADD11C,4.2032*%
%ADD12C,2.1332*%
%ADD13C,1.8016*%
%ADD14MACRO1,0.1016X0.85X0.85X0.85X-0.85*%
%ADD15MACRO1,0.1016X0.9398X-0.9398X-0.9398X-0.9398*%
%ADD16C,1.9812*%
%ADD17C,1.7526*%
%ADD18MACRO1,0.1016X-1X1X1X1*%
%ADD19C,2.1016*%
%ADD20MACRO1,0.1016X-0.45X0.8X0.45X0.8*%
%ADD21O,1.0015981999999999X1.7015968*%
%ADD22C,2.8766*%
%ADD23MACRO1,0.2032X-0.7874X0.7874X0.7874X0.7874*%
%ADD24C,1.7780*%
%ADD25C,1.7272*%
%ADD26R,1.6256X1.6256*%
%ADD27C,1.6002*%
%ADD28MACRO1,0.1016X-0.7493X0.7493X0.7493X0.7493*%
%ADD29MACRO1,0.2X0.85X0.3X0.85X-0.3*%
%ADD30MACRO1,0.2X1.45X0.65X1.45X-0.65*%
%ADD31C,2.0032*%
%ADD32MACRO1,0.1016X0.7493X0.7493X0.7493X-0.7493*%
%ADD33R,1.6764X1.6764*%
%ADD34C,1.6764*%

%LPD*%
D10*
G01*
X165100Y-2844800D03*
G01*
X165100Y-5384800D03*
D11*
G01*
X2171725Y-7495590D03*
G01*
X2171725Y-327609D03*
G01*
X2171700Y-8506409D03*
G01*
X2171700Y-15674390D03*
D12*
G01*
X2286000Y-12306300D03*
G01*
X2540000Y-12306300D03*
G01*
X2032000Y-12306300D03*
G01*
X2794000Y-12306300D03*
G01*
X1778000Y-12306300D03*
D13*
G01*
X1155700Y-4851400D03*
G01*
X1155700Y-4597400D03*
G01*
X1155700Y-4343400D03*
G01*
X1155700Y-4089400D03*
G01*
X1155700Y-3835400D03*
G01*
X1155700Y-3581400D03*
G01*
X1155700Y-3327400D03*
G01*
X1155700Y-3073400D03*
G01*
X1155700Y-2819400D03*
G01*
X1155700Y-2565400D03*
G01*
X1155700Y-2311400D03*
G01*
X1155700Y-2057400D03*
G01*
X1155700Y-1803400D03*
G01*
X1155700Y-1549400D03*
G01*
X1155700Y-1295400D03*
G01*
X3695700Y-4597400D03*
G01*
X3695700Y-4343400D03*
G01*
X3695700Y-4089400D03*
G01*
X3695700Y-3835400D03*
G01*
X3695700Y-3581400D03*
G01*
X3695700Y-3327400D03*
G01*
X3695700Y-3073400D03*
G01*
X3695700Y-2819400D03*
G01*
X3695700Y-2565400D03*
G01*
X3695700Y-2311400D03*
G01*
X3695700Y-2057400D03*
G01*
X3695700Y-1803400D03*
G01*
X3695700Y-1549400D03*
G01*
X3695700Y-1295400D03*
G01*
X3695700Y-4851400D03*
G01*
X1155700Y-1041400D03*
G01*
X1155700Y-787400D03*
D14*
G01*
X1155712Y-5105412D03*
G01*
X3695712Y-5105412D03*
D13*
G01*
X3695700Y-1041400D03*
G01*
X3695700Y-787400D03*
D15*
G01*
X901700Y-9423400D03*
D16*
G01*
X901700Y-9169400D03*
G01*
X901700Y-8915400D03*
G01*
X901700Y-8661400D03*
D17*
G01*
X698500Y-330200D03*
G01*
X698500Y-584200D03*
D18*
G01*
X876300Y-11328400D03*
D19*
G01*
X1130300Y-11328400D03*
D18*
G01*
X1625600Y-11328400D03*
D19*
G01*
X1879600Y-11328400D03*
D18*
G01*
X2374900Y-11328400D03*
D19*
G01*
X2628900Y-11328400D03*
D16*
G01*
X2146300Y-3822700D03*
G01*
X2908300Y-3822700D03*
G01*
X660400Y-3187700D03*
G01*
X660400Y-2425700D03*
G01*
X660400Y-4902200D03*
G01*
X660400Y-4140200D03*
G01*
X698500Y-1803400D03*
G01*
X698500Y-1041400D03*
G01*
X4140200Y-11176000D03*
G01*
X4140200Y-11938000D03*
D20*
G01*
X3263900Y-11353800D03*
D21*
G01*
X3390900Y-11353800D03*
G01*
X3517900Y-11353800D03*
D22*
G01*
X3027908Y-6431102D03*
G01*
X3027908Y-6901103D03*
G01*
X3027908Y-7371105D03*
G01*
X3980891Y-7561605D03*
G01*
X3980891Y-6240602D03*
D23*
G01*
X774700Y-7988300D03*
D24*
G01*
X1028700Y-7988300D03*
G01*
X1282700Y-7988300D03*
G01*
X1536700Y-7988300D03*
G01*
X1790700Y-7988300D03*
G01*
X2044700Y-7988300D03*
D25*
G01*
X2311400Y-7988300D03*
D10*
G01*
X2311400Y-2514600D03*
G01*
X2057400Y-2514600D03*
D26*
G01*
X1803400Y-2514600D03*
D10*
G01*
X2565400Y-2514600D03*
G01*
X2819400Y-2514600D03*
G01*
X3073400Y-2514600D03*
D27*
G01*
X2108200Y-5613400D03*
D28*
G01*
X2362200Y-5613400D03*
D27*
G01*
X2616200Y-5613400D03*
G01*
X2870200Y-5613400D03*
D10*
G01*
X4203700Y-2832100D03*
G01*
X4203700Y-5372100D03*
D29*
G01*
X1003298Y-10487225D03*
G01*
X1003288Y-10362217D03*
G01*
X1003293Y-10237216D03*
G01*
X1003283Y-10112207D03*
D30*
G01*
X668294Y-10677202D03*
G01*
X668319Y-9922212D03*
D29*
G01*
X2006598Y-10474525D03*
G01*
X2006588Y-10349517D03*
G01*
X2006593Y-10224516D03*
G01*
X2006583Y-10099507D03*
D30*
G01*
X1671594Y-10664502D03*
G01*
X1671619Y-9909512D03*
D15*
G01*
X1676400Y-9423400D03*
D16*
G01*
X1676400Y-9169400D03*
G01*
X1676400Y-8915400D03*
G01*
X1676400Y-8661400D03*
D31*
G01*
X927100Y-6223000D03*
G01*
X673100Y-6223000D03*
G01*
X1435100Y-6223000D03*
G01*
X1181100Y-6223000D03*
G01*
X1943100Y-6223000D03*
G01*
X1689100Y-6223000D03*
G01*
X2451100Y-6223000D03*
G01*
X2197100Y-6223000D03*
D20*
G01*
X3708400Y-9372600D03*
D21*
G01*
X3835400Y-9372600D03*
G01*
X3962400Y-9372600D03*
D16*
G01*
X2654300Y-9258300D03*
G01*
X3416300Y-9258300D03*
G01*
X3416300Y-9779000D03*
G01*
X4178300Y-9779000D03*
G01*
X2413000Y-9779000D03*
G01*
X3175000Y-9779000D03*
D27*
G01*
X2921000Y-8204200D03*
D32*
G01*
X2921000Y-8458200D03*
D27*
G01*
X2921000Y-8712200D03*
D33*
G01*
X2743200Y-10464800D03*
D34*
G01*
X2997200Y-10464800D03*
D33*
G01*
X3708400Y-10464800D03*
D34*
G01*
X3962400Y-10464800D03*
M02*
