G04 Layer: TopLayer*
G04 EasyEDA v6.5.22, 2023-02-12 16:25:32*
G04 49dac008d54d4cb88ac5759986a8b4bd,6fd1a78a72754d5b9b51f237f625c95f,10*
G04 Gerber Generator version 0.2*
G04 Scale: 100 percent, Rotated: No, Reflected: No *
G04 Dimensions in millimeters *
G04 leading zeros omitted , absolute positions ,4 integer and 5 decimal *
%FSLAX45Y45*%
%MOMM*%

%ADD10C,0.4000*%
%ADD11R,1.7000X0.6000*%
%ADD12R,2.9000X1.3000*%
%ADD13C,1.5240*%
%ADD14C,4.0000*%
%ADD15C,1.9300*%
%ADD16C,1.7000*%
%ADD17R,1.7000X1.7000*%
%ADD18R,1.8796X1.8796*%
%ADD19C,1.8796*%
%ADD20C,1.6510*%
%ADD21R,2.0000X2.0000*%
%ADD22C,2.0000*%
%ADD23R,0.9000X1.6000*%
%ADD24O,0.8999982X1.5999968*%
%ADD25C,2.7750*%
%ADD26R,1.5748X1.5748*%
%ADD27C,1.5748*%
%ADD28R,1.5240X1.5240*%
%ADD29C,1.4986*%
%ADD30R,1.4986X1.4986*%
%ADD31C,1.8000*%
%ADD32C,0.6100*%
%ADD33C,0.0147*%

%LPD*%
D10*
X3404108Y-4634992D02*
G01*
X3404108Y-6337249D01*
X2997200Y-10464800D02*
G01*
X2997200Y-8978112D01*
X2792095Y-8773007D01*
X2792095Y-8333104D01*
X2921000Y-8204200D01*
X2171700Y-8506409D02*
G01*
X2179853Y-8498255D01*
X2179853Y-7503718D01*
X2171725Y-7495590D01*
X4203700Y-2832100D02*
G01*
X4203700Y-5039232D01*
X3830040Y-5412892D01*
X3830040Y-6100190D01*
X2616200Y-5613400D02*
G01*
X2616200Y-6489395D01*
X3027908Y-6901103D01*
X1033119Y-10487228D02*
G01*
X1138326Y-10487228D01*
X1033119Y-10487228D02*
G01*
X1003300Y-10487228D01*
X774700Y-7988300D02*
G01*
X774700Y-7859521D01*
X1138326Y-10487228D02*
G01*
X1151026Y-10474528D01*
X1151026Y-10470997D01*
X1803400Y-2640837D02*
G01*
X1922475Y-2759913D01*
X1922475Y-3448685D01*
X1803400Y-2514600D02*
G01*
X1803400Y-2640837D01*
X3695700Y-1041400D02*
G01*
X3560546Y-1176553D01*
X3560546Y-3193059D01*
X2006600Y-10474528D02*
G01*
X1871573Y-10474528D01*
X1878126Y-10680928D02*
G01*
X1871573Y-10674375D01*
X1871573Y-10474528D01*
X774700Y-7859521D02*
G01*
X673100Y-7757921D01*
X673100Y-6223000D01*
X673100Y-6223000D02*
G01*
X673100Y-4914900D01*
X660400Y-4902200D01*
X1871548Y-10099497D02*
G01*
X1871548Y-9762566D01*
X1676400Y-9567418D01*
X2006574Y-10099497D02*
G01*
X1871548Y-10099497D01*
X1676400Y-9423400D02*
G01*
X1676400Y-9567418D01*
X1003274Y-10112197D02*
G01*
X868248Y-10112197D01*
X901700Y-9423400D02*
G01*
X901700Y-9567418D01*
X1028700Y-7988300D02*
G01*
X1028700Y-6324600D01*
X927100Y-6223000D01*
X2908300Y-3822700D02*
G01*
X3073400Y-3657600D01*
X3073400Y-2514600D01*
X876300Y-11178362D02*
G01*
X868121Y-11170183D01*
X868121Y-10112324D01*
X868248Y-10112197D01*
X876300Y-11328400D02*
G01*
X876300Y-11178362D01*
X868248Y-9600869D02*
G01*
X807948Y-9600869D01*
X746709Y-9539630D01*
X746709Y-8270290D01*
X1028700Y-7988300D01*
X868248Y-10112197D02*
G01*
X868248Y-9600869D01*
X868248Y-9600869D02*
G01*
X901700Y-9567418D01*
X3695700Y-4597400D02*
G01*
X3451021Y-4352721D01*
X3451021Y-1241983D01*
X4140200Y-11176000D02*
G01*
X4140200Y-9971760D01*
X4023690Y-9855250D01*
X4023690Y-9614788D01*
X4069283Y-9569195D01*
X4069283Y-8145297D01*
X3238830Y-7314844D01*
X3238830Y-5982030D01*
X2870200Y-5613400D01*
X1155700Y-1549400D02*
G01*
X1483944Y-1877644D01*
X1483944Y-3160344D01*
X2146300Y-3822700D01*
X2819400Y-2514600D02*
G01*
X2819400Y-2281631D01*
X1879600Y-11328400D02*
G01*
X1879600Y-12204700D01*
X1778000Y-12306300D01*
X1181100Y-6223000D02*
G01*
X1181100Y-7886700D01*
X1282700Y-7988300D01*
X1003300Y-10362209D02*
G01*
X1138326Y-10362209D01*
X1471828Y-10349509D02*
G01*
X1471828Y-8865971D01*
X1676400Y-8661400D01*
X1471828Y-10349509D02*
G01*
X2006600Y-10349509D01*
X1155700Y-2311400D02*
G01*
X1019810Y-2447289D01*
X1019810Y-6061710D01*
X1181100Y-6223000D01*
X1311427Y-10362209D02*
G01*
X1138326Y-10362209D01*
X1471828Y-10349509D02*
G01*
X1324127Y-10349509D01*
X1311427Y-10362209D01*
X1311427Y-10362209D02*
G01*
X1311427Y-12267387D01*
X1413230Y-12369190D01*
X1138326Y-10237215D02*
G01*
X1151534Y-10224008D01*
X1151534Y-9165234D01*
X901700Y-8915400D01*
X1003300Y-10237215D02*
G01*
X1138326Y-10237215D01*
X1435100Y-6223000D02*
G01*
X1435100Y-7886700D01*
X1536700Y-7988300D01*
X1155700Y-2565400D02*
G01*
X1321257Y-2730957D01*
X1321257Y-6109157D01*
X1435100Y-6223000D01*
X2006600Y-10224515D02*
G01*
X2141626Y-10224515D01*
X1676400Y-8915400D02*
G01*
X1941702Y-9180703D01*
X1941702Y-9723094D01*
X2160346Y-9941737D01*
X2160346Y-10224515D01*
X2540000Y-12306300D02*
G01*
X2160346Y-11926646D01*
X2160346Y-10224515D01*
X2160346Y-10224515D02*
G01*
X2141626Y-10224515D01*
X927912Y-2583637D02*
G01*
X927912Y-3872687D01*
X660400Y-4140200D01*
D11*
G01*
X1003300Y-10487228D03*
G01*
X1003300Y-10362209D03*
G01*
X1003300Y-10237215D03*
G01*
X1003274Y-10112197D03*
D12*
G01*
X668299Y-10677194D03*
G01*
X668324Y-9922205D03*
D11*
G01*
X2006600Y-10474528D03*
G01*
X2006600Y-10349509D03*
G01*
X2006600Y-10224515D03*
G01*
X2006574Y-10099497D03*
D12*
G01*
X1671599Y-10664494D03*
G01*
X1671624Y-9909505D03*
D13*
G01*
X165100Y-2844800D03*
G01*
X165100Y-5384800D03*
D14*
G01*
X2171725Y-7495590D03*
G01*
X2171725Y-327609D03*
G01*
X2171700Y-8506409D03*
G01*
X2171700Y-15674390D03*
D15*
G01*
X2286000Y-12306300D03*
G01*
X2540000Y-12306300D03*
G01*
X2032000Y-12306300D03*
G01*
X2794000Y-12306300D03*
G01*
X1778000Y-12306300D03*
D16*
G01*
X1155700Y-4851400D03*
G01*
X1155700Y-4597400D03*
G01*
X1155700Y-4343400D03*
G01*
X1155700Y-4089400D03*
G01*
X1155700Y-3835400D03*
G01*
X1155700Y-3581400D03*
G01*
X1155700Y-3327400D03*
G01*
X1155700Y-3073400D03*
G01*
X1155700Y-2819400D03*
G01*
X1155700Y-2565400D03*
G01*
X1155700Y-2311400D03*
G01*
X1155700Y-2057400D03*
G01*
X1155700Y-1803400D03*
G01*
X1155700Y-1549400D03*
G01*
X1155700Y-1295400D03*
G01*
X3695700Y-4597400D03*
G01*
X3695700Y-4343400D03*
G01*
X3695700Y-4089400D03*
G01*
X3695700Y-3835400D03*
G01*
X3695700Y-3581400D03*
G01*
X3695700Y-3327400D03*
G01*
X3695700Y-3073400D03*
G01*
X3695700Y-2819400D03*
G01*
X3695700Y-2565400D03*
G01*
X3695700Y-2311400D03*
G01*
X3695700Y-2057400D03*
G01*
X3695700Y-1803400D03*
G01*
X3695700Y-1549400D03*
G01*
X3695700Y-1295400D03*
G01*
X3695700Y-4851400D03*
G01*
X1155700Y-1041400D03*
G01*
X1155700Y-787400D03*
D17*
G01*
X1155725Y-5105425D03*
G01*
X3695725Y-5105425D03*
D16*
G01*
X3695700Y-1041400D03*
G01*
X3695700Y-787400D03*
D18*
G01*
X901700Y-9423400D03*
D19*
G01*
X901700Y-9169400D03*
G01*
X901700Y-8915400D03*
G01*
X901700Y-8661400D03*
D20*
G01*
X698500Y-330200D03*
G01*
X698500Y-584200D03*
D21*
G01*
X876300Y-11328400D03*
D22*
G01*
X1130300Y-11328400D03*
D21*
G01*
X1625600Y-11328400D03*
D22*
G01*
X1879600Y-11328400D03*
D21*
G01*
X2374900Y-11328400D03*
D22*
G01*
X2628900Y-11328400D03*
D19*
G01*
X2146300Y-3822700D03*
G01*
X2908300Y-3822700D03*
G01*
X660400Y-3187700D03*
G01*
X660400Y-2425700D03*
G01*
X660400Y-4902200D03*
G01*
X660400Y-4140200D03*
G01*
X698500Y-1803400D03*
G01*
X698500Y-1041400D03*
G01*
X4140200Y-11176000D03*
G01*
X4140200Y-11938000D03*
D23*
G01*
X3263900Y-11353800D03*
D24*
G01*
X3390900Y-11353800D03*
G01*
X3517900Y-11353800D03*
D25*
G01*
X3027908Y-6431102D03*
G01*
X3027908Y-6901103D03*
G01*
X3027908Y-7371105D03*
G01*
X3980891Y-7561605D03*
G01*
X3980891Y-6240602D03*
D26*
G01*
X774700Y-7988300D03*
D27*
G01*
X1028700Y-7988300D03*
G01*
X1282700Y-7988300D03*
G01*
X1536700Y-7988300D03*
G01*
X1790700Y-7988300D03*
G01*
X2044700Y-7988300D03*
D13*
G01*
X2311400Y-7988300D03*
G01*
X2311400Y-2514600D03*
G01*
X2057400Y-2514600D03*
D28*
G01*
X1803400Y-2514600D03*
D13*
G01*
X2565400Y-2514600D03*
G01*
X2819400Y-2514600D03*
G01*
X3073400Y-2514600D03*
D29*
G01*
X2108200Y-5613400D03*
D30*
G01*
X2362200Y-5613400D03*
D29*
G01*
X2616200Y-5613400D03*
G01*
X2870200Y-5613400D03*
D13*
G01*
X4203700Y-2832100D03*
G01*
X4203700Y-5372100D03*
D18*
G01*
X1676400Y-9423400D03*
D19*
G01*
X1676400Y-9169400D03*
G01*
X1676400Y-8915400D03*
G01*
X1676400Y-8661400D03*
D31*
G01*
X927100Y-6223000D03*
G01*
X673100Y-6223000D03*
G01*
X1435100Y-6223000D03*
G01*
X1181100Y-6223000D03*
G01*
X1943100Y-6223000D03*
G01*
X1689100Y-6223000D03*
G01*
X2451100Y-6223000D03*
G01*
X2197100Y-6223000D03*
D23*
G01*
X3708400Y-9372600D03*
D24*
G01*
X3835400Y-9372600D03*
G01*
X3962400Y-9372600D03*
D19*
G01*
X2654300Y-9258300D03*
G01*
X3416300Y-9258300D03*
G01*
X3416300Y-9779000D03*
G01*
X4178300Y-9779000D03*
G01*
X2413000Y-9779000D03*
G01*
X3175000Y-9779000D03*
D29*
G01*
X2921000Y-8204200D03*
D30*
G01*
X2921000Y-8458200D03*
D29*
G01*
X2921000Y-8712200D03*
D26*
G01*
X2743200Y-10464800D03*
D27*
G01*
X2997200Y-10464800D03*
D26*
G01*
X3708400Y-10464800D03*
D27*
G01*
X3962400Y-10464800D03*
D32*
G01*
X927912Y-2583637D03*
G01*
X1413230Y-12369190D03*
G01*
X2819400Y-2281631D03*
G01*
X3451021Y-1241983D03*
G01*
X1878126Y-10680928D03*
G01*
X3560546Y-3193059D03*
G01*
X1922475Y-3448685D03*
G01*
X1151026Y-10470997D03*
G01*
X3830040Y-6100190D03*
G01*
X3404108Y-4634992D03*
G01*
X3404108Y-6337249D03*
M02*
