G04 Layer: BottomSilkscreenLayer*
G04 EasyEDA v6.5.22, 2023-02-12 16:25:32*
G04 49dac008d54d4cb88ac5759986a8b4bd,6fd1a78a72754d5b9b51f237f625c95f,10*
G04 Gerber Generator version 0.2*
G04 Scale: 100 percent, Rotated: No, Reflected: No *
G04 Dimensions in millimeters *
G04 leading zeros omitted , absolute positions ,4 integer and 5 decimal *
%FSLAX45Y45*%
%MOMM*%

%ADD10C,0.1524*%
%ADD11C,0.2032*%
%ADD12C,0.2540*%

%LPD*%
D10*
X227584Y-4991100D02*
G01*
X305562Y-4991100D01*
X321055Y-4996179D01*
X331470Y-5006594D01*
X336550Y-5022342D01*
X336550Y-5032755D01*
X331470Y-5048250D01*
X321055Y-5058663D01*
X305562Y-5063744D01*
X227584Y-5063744D01*
X227584Y-5170931D02*
G01*
X336550Y-5118862D01*
X227584Y-5098034D02*
G01*
X227584Y-5170931D01*
D11*
X239521Y-2311400D02*
G01*
X433323Y-2311400D01*
X239521Y-2372360D02*
G01*
X433323Y-2372360D01*
X433323Y-2372360D02*
G01*
X433323Y-2483104D01*
X267207Y-2673350D02*
G01*
X248665Y-2655062D01*
X239521Y-2627376D01*
X239521Y-2590292D01*
X248665Y-2562605D01*
X267207Y-2544063D01*
X285750Y-2544063D01*
X304037Y-2553462D01*
X313436Y-2562605D01*
X322579Y-2581147D01*
X341121Y-2636520D01*
X350265Y-2655062D01*
X359410Y-2664205D01*
X377952Y-2673350D01*
X405637Y-2673350D01*
X424179Y-2655062D01*
X433323Y-2627376D01*
X433323Y-2590292D01*
X424179Y-2562605D01*
X405637Y-2544063D01*
X350265Y-2734310D02*
G01*
X350265Y-2900679D01*
X239521Y-2961639D02*
G01*
X433323Y-3007868D01*
X239521Y-3054095D02*
G01*
X433323Y-3007868D01*
X239521Y-3054095D02*
G01*
X433323Y-3100070D01*
X239521Y-3146297D02*
G01*
X433323Y-3100070D01*
X239521Y-3207257D02*
G01*
X433323Y-3207257D01*
X239521Y-3268218D02*
G01*
X433323Y-3268218D01*
X239521Y-3268218D02*
G01*
X239521Y-3388360D01*
X331723Y-3268218D02*
G01*
X331723Y-3342131D01*
X239521Y-3449320D02*
G01*
X433323Y-3449320D01*
D10*
X3379228Y-3937000D02*
G01*
X3301250Y-3937000D01*
X3285756Y-3931920D01*
X3275342Y-3921505D01*
X3270262Y-3905757D01*
X3270262Y-3895344D01*
X3275342Y-3879850D01*
X3285756Y-3869436D01*
X3301250Y-3864355D01*
X3379228Y-3864355D01*
X3379228Y-3767581D02*
G01*
X3379228Y-3819652D01*
X3332492Y-3824731D01*
X3337572Y-3819652D01*
X3342906Y-3803904D01*
X3342906Y-3788410D01*
X3337572Y-3772915D01*
X3327412Y-3762502D01*
X3311664Y-3757168D01*
X3301250Y-3757168D01*
X3285756Y-3762502D01*
X3275342Y-3772915D01*
X3270262Y-3788410D01*
X3270262Y-3803904D01*
X3275342Y-3819652D01*
X3280422Y-3824731D01*
X3290836Y-3830065D01*
D11*
X2649004Y-7528549D02*
G01*
X2482888Y-7528549D01*
X2565946Y-7611607D02*
G01*
X2565946Y-7445237D01*
X2565946Y-411591D02*
G01*
X2565946Y-245221D01*
X2884690Y-4673600D02*
G01*
X2690888Y-4673600D01*
X2884690Y-4673600D02*
G01*
X2884690Y-4590542D01*
X2875546Y-4562855D01*
X2866402Y-4553457D01*
X2847860Y-4544313D01*
X2829318Y-4544313D01*
X2810776Y-4553457D01*
X2801632Y-4562855D01*
X2792488Y-4590542D01*
X2792488Y-4673600D02*
G01*
X2792488Y-4590542D01*
X2783090Y-4562855D01*
X2773946Y-4553457D01*
X2755404Y-4544313D01*
X2727718Y-4544313D01*
X2709176Y-4553457D01*
X2700032Y-4562855D01*
X2690888Y-4590542D01*
X2690888Y-4673600D01*
X2884690Y-4409439D02*
G01*
X2690888Y-4483354D01*
X2884690Y-4409439D02*
G01*
X2690888Y-4335526D01*
X2755404Y-4455668D02*
G01*
X2755404Y-4363212D01*
X2884690Y-4210050D02*
G01*
X2690888Y-4210050D01*
X2884690Y-4274565D02*
G01*
X2884690Y-4145279D01*
X2884690Y-4019550D02*
G01*
X2690888Y-4019550D01*
X2884690Y-4084320D02*
G01*
X2884690Y-3955034D01*
X2884690Y-3894073D02*
G01*
X2690888Y-3894073D01*
X2884690Y-3894073D02*
G01*
X2884690Y-3773931D01*
X2792488Y-3894073D02*
G01*
X2792488Y-3820160D01*
X2690888Y-3894073D02*
G01*
X2690888Y-3773931D01*
X2884690Y-3712971D02*
G01*
X2690888Y-3712971D01*
X2884690Y-3712971D02*
G01*
X2884690Y-3629913D01*
X2875546Y-3602228D01*
X2866402Y-3592829D01*
X2847860Y-3583686D01*
X2829318Y-3583686D01*
X2810776Y-3592829D01*
X2801632Y-3602228D01*
X2792488Y-3629913D01*
X2792488Y-3712971D01*
X2792488Y-3648455D02*
G01*
X2690888Y-3583686D01*
X2884690Y-3522726D02*
G01*
X2792488Y-3448812D01*
X2690888Y-3448812D01*
X2884690Y-3374897D02*
G01*
X2792488Y-3448812D01*
X2773946Y-3313937D02*
G01*
X2773946Y-3147821D01*
X2847860Y-3086862D02*
G01*
X2857004Y-3068320D01*
X2884690Y-3040634D01*
X2690888Y-3040634D01*
X2884690Y-2933445D02*
G01*
X2875546Y-2961131D01*
X2857004Y-2970529D01*
X2838462Y-2970529D01*
X2820174Y-2961131D01*
X2810776Y-2942589D01*
X2801632Y-2905760D01*
X2792488Y-2878073D01*
X2773946Y-2859531D01*
X2755404Y-2850387D01*
X2727718Y-2850387D01*
X2709176Y-2859531D01*
X2700032Y-2868929D01*
X2690888Y-2896615D01*
X2690888Y-2933445D01*
X2700032Y-2961131D01*
X2709176Y-2970529D01*
X2727718Y-2979673D01*
X2755404Y-2979673D01*
X2773946Y-2970529D01*
X2792488Y-2951987D01*
X2801632Y-2924302D01*
X2810776Y-2887218D01*
X2820174Y-2868929D01*
X2838462Y-2859531D01*
X2857004Y-2859531D01*
X2875546Y-2868929D01*
X2884690Y-2896615D01*
X2884690Y-2933445D01*
X2857004Y-2678429D02*
G01*
X2875546Y-2687828D01*
X2884690Y-2715513D01*
X2884690Y-2734055D01*
X2875546Y-2761742D01*
X2847860Y-2780029D01*
X2801632Y-2789428D01*
X2755404Y-2789428D01*
X2718574Y-2780029D01*
X2700032Y-2761742D01*
X2690888Y-2734055D01*
X2690888Y-2724657D01*
X2700032Y-2696971D01*
X2718574Y-2678429D01*
X2746260Y-2669286D01*
X2755404Y-2669286D01*
X2783090Y-2678429D01*
X2801632Y-2696971D01*
X2810776Y-2724657D01*
X2810776Y-2734055D01*
X2801632Y-2761742D01*
X2783090Y-2780029D01*
X2755404Y-2789428D01*
X2884690Y-2497581D02*
G01*
X2884690Y-2589784D01*
X2801632Y-2599181D01*
X2810776Y-2589784D01*
X2820174Y-2562097D01*
X2820174Y-2534412D01*
X2810776Y-2506726D01*
X2792488Y-2488184D01*
X2764802Y-2479039D01*
X2746260Y-2479039D01*
X2718574Y-2488184D01*
X2700032Y-2506726D01*
X2690888Y-2534412D01*
X2690888Y-2562097D01*
X2700032Y-2589784D01*
X2709176Y-2599181D01*
X2727718Y-2608326D01*
X2884690Y-2362707D02*
G01*
X2875546Y-2390394D01*
X2847860Y-2408936D01*
X2801632Y-2418079D01*
X2773946Y-2418079D01*
X2727718Y-2408936D01*
X2700032Y-2390394D01*
X2690888Y-2362707D01*
X2690888Y-2344165D01*
X2700032Y-2316479D01*
X2727718Y-2297937D01*
X2773946Y-2288794D01*
X2801632Y-2288794D01*
X2847860Y-2297937D01*
X2875546Y-2316479D01*
X2884690Y-2344165D01*
X2884690Y-2362707D01*
X1349001Y-8028548D02*
G01*
X1182885Y-8028548D01*
X1265943Y-8111606D02*
G01*
X1265943Y-7945236D01*
X1008717Y-507883D02*
G01*
X1008717Y-341767D01*
D10*
X964184Y-12065000D02*
G01*
X1042162Y-12065000D01*
X1057655Y-12070079D01*
X1068070Y-12080494D01*
X1073150Y-12096242D01*
X1073150Y-12106655D01*
X1068070Y-12122150D01*
X1057655Y-12132563D01*
X1042162Y-12137644D01*
X964184Y-12137644D01*
X979678Y-12234418D02*
G01*
X969263Y-12229084D01*
X964184Y-12213589D01*
X964184Y-12203176D01*
X969263Y-12187681D01*
X985012Y-12177268D01*
X1010920Y-12171934D01*
X1036828Y-12171934D01*
X1057655Y-12177268D01*
X1068070Y-12187681D01*
X1073150Y-12203176D01*
X1073150Y-12208510D01*
X1068070Y-12224004D01*
X1057655Y-12234418D01*
X1042162Y-12239497D01*
X1036828Y-12239497D01*
X1021334Y-12234418D01*
X1010920Y-12224004D01*
X1005839Y-12208510D01*
X1005839Y-12203176D01*
X1010920Y-12187681D01*
X1021334Y-12177268D01*
X1036828Y-12171934D01*
D11*
X1694408Y-8473450D02*
G01*
X1860524Y-8473450D01*
X1777466Y-8390392D02*
G01*
X1777466Y-8556762D01*
X1777466Y-15590408D02*
G01*
X1777466Y-15756778D01*
X2030222Y-12014189D02*
G01*
X2224024Y-12014189D01*
X2030222Y-12014189D02*
G01*
X2030222Y-12097247D01*
X2039365Y-12124933D01*
X2048509Y-12134331D01*
X2067052Y-12143475D01*
X2085593Y-12143475D01*
X2104136Y-12134331D01*
X2113279Y-12124933D01*
X2122424Y-12097247D01*
X2122424Y-12014189D02*
G01*
X2122424Y-12097247D01*
X2131822Y-12124933D01*
X2140965Y-12134331D01*
X2159508Y-12143475D01*
X2187193Y-12143475D01*
X2205736Y-12134331D01*
X2214879Y-12124933D01*
X2224024Y-12097247D01*
X2224024Y-12014189D01*
X2030222Y-12278349D02*
G01*
X2224024Y-12204435D01*
X2030222Y-12278349D02*
G01*
X2224024Y-12352263D01*
X2159508Y-12232121D02*
G01*
X2159508Y-12324577D01*
X2030222Y-12477739D02*
G01*
X2224024Y-12477739D01*
X2030222Y-12413223D02*
G01*
X2030222Y-12542509D01*
X2030222Y-12668239D02*
G01*
X2224024Y-12668239D01*
X2030222Y-12603469D02*
G01*
X2030222Y-12732755D01*
X2030222Y-12793715D02*
G01*
X2224024Y-12793715D01*
X2030222Y-12793715D02*
G01*
X2030222Y-12913857D01*
X2122424Y-12793715D02*
G01*
X2122424Y-12867629D01*
X2224024Y-12793715D02*
G01*
X2224024Y-12913857D01*
X2030222Y-12974817D02*
G01*
X2224024Y-12974817D01*
X2030222Y-12974817D02*
G01*
X2030222Y-13057875D01*
X2039365Y-13085561D01*
X2048509Y-13094959D01*
X2067052Y-13104103D01*
X2085593Y-13104103D01*
X2104136Y-13094959D01*
X2113279Y-13085561D01*
X2122424Y-13057875D01*
X2122424Y-12974817D01*
X2122424Y-13039333D02*
G01*
X2224024Y-13104103D01*
X2030222Y-13165063D02*
G01*
X2122424Y-13238977D01*
X2224024Y-13238977D01*
X2030222Y-13312891D02*
G01*
X2122424Y-13238977D01*
X2140965Y-13373851D02*
G01*
X2140965Y-13539967D01*
X2067052Y-13600927D02*
G01*
X2057908Y-13619469D01*
X2030222Y-13647155D01*
X2224024Y-13647155D01*
X2030222Y-13754343D02*
G01*
X2039365Y-13726657D01*
X2057908Y-13717259D01*
X2076450Y-13717259D01*
X2094738Y-13726657D01*
X2104136Y-13745199D01*
X2113279Y-13782029D01*
X2122424Y-13809715D01*
X2140965Y-13828257D01*
X2159508Y-13837401D01*
X2187193Y-13837401D01*
X2205736Y-13828257D01*
X2214879Y-13818859D01*
X2224024Y-13791173D01*
X2224024Y-13754343D01*
X2214879Y-13726657D01*
X2205736Y-13717259D01*
X2187193Y-13708115D01*
X2159508Y-13708115D01*
X2140965Y-13717259D01*
X2122424Y-13735801D01*
X2113279Y-13763487D01*
X2104136Y-13800571D01*
X2094738Y-13818859D01*
X2076450Y-13828257D01*
X2057908Y-13828257D01*
X2039365Y-13818859D01*
X2030222Y-13791173D01*
X2030222Y-13754343D01*
X2057908Y-14009359D02*
G01*
X2039365Y-13999961D01*
X2030222Y-13972275D01*
X2030222Y-13953733D01*
X2039365Y-13926047D01*
X2067052Y-13907759D01*
X2113279Y-13898361D01*
X2159508Y-13898361D01*
X2196338Y-13907759D01*
X2214879Y-13926047D01*
X2224024Y-13953733D01*
X2224024Y-13963131D01*
X2214879Y-13990817D01*
X2196338Y-14009359D01*
X2168652Y-14018503D01*
X2159508Y-14018503D01*
X2131822Y-14009359D01*
X2113279Y-13990817D01*
X2104136Y-13963131D01*
X2104136Y-13953733D01*
X2113279Y-13926047D01*
X2131822Y-13907759D01*
X2159508Y-13898361D01*
X2030222Y-14190207D02*
G01*
X2030222Y-14098005D01*
X2113279Y-14088607D01*
X2104136Y-14098005D01*
X2094738Y-14125691D01*
X2094738Y-14153377D01*
X2104136Y-14181063D01*
X2122424Y-14199605D01*
X2150109Y-14208749D01*
X2168652Y-14208749D01*
X2196338Y-14199605D01*
X2214879Y-14181063D01*
X2224024Y-14153377D01*
X2224024Y-14125691D01*
X2214879Y-14098005D01*
X2205736Y-14088607D01*
X2187193Y-14079463D01*
X2030222Y-14325081D02*
G01*
X2039365Y-14297395D01*
X2067052Y-14278853D01*
X2113279Y-14269709D01*
X2140965Y-14269709D01*
X2187193Y-14278853D01*
X2214879Y-14297395D01*
X2224024Y-14325081D01*
X2224024Y-14343623D01*
X2214879Y-14371309D01*
X2187193Y-14389851D01*
X2140965Y-14398995D01*
X2113279Y-14398995D01*
X2067052Y-14389851D01*
X2039365Y-14371309D01*
X2030222Y-14343623D01*
X2030222Y-14325081D01*
X2994411Y-7973451D02*
G01*
X3160527Y-7973451D01*
X3077469Y-7890393D02*
G01*
X3077469Y-8056763D01*
X3372794Y-15176616D02*
G01*
X3372794Y-15342732D01*
D12*
X158242Y-4191000D02*
G01*
X234442Y-3911600D01*
X285242Y-4292600D02*
G01*
X285242Y-3784600D01*
X56642Y-4292600D02*
G01*
X56642Y-3784600D01*
X158242Y-3911600D02*
G01*
X165100Y-2844800D01*
X158242Y-4191000D02*
G01*
X165100Y-5384800D01*
X3221697Y-7811592D02*
G01*
X3221697Y-11582D01*
X1121702Y-11582D01*
X1121702Y-7811592D01*
X3221697Y-7811592D01*
X1121714Y-8190407D02*
G01*
X1121714Y-15990417D01*
X3221710Y-15990417D01*
X3221710Y-8190407D01*
X1121714Y-8190407D01*
G75*
G01*
X56642Y-4292600D02*
G03*
X285242Y-4292600I114300J0D01*
G75*
G01*
X285242Y-3784600D02*
G03*
X56642Y-3784600I-114300J0D01*
M02*
