<?xml version="1.0" encoding="UTF-8" standalone="no"?>
<!-- Created with Inkscape (http://www.inkscape.org/) -->

<svg
   version="1.1"
   id="svg1"
   width="80mm"
   height="60mm"
   viewBox="0 0 302.36223 226.77164"
   sodipodi:docname="No_OSOCTD.svg"
   inkscape:version="1.3.2 (091e20e, 2023-11-25, custom)"
   xml:space="preserve"
   xmlns:inkscape="http://www.inkscape.org/namespaces/inkscape"
   xmlns:sodipodi="http://sodipodi.sourceforge.net/DTD/sodipodi-0.dtd"
   xmlns="http://www.w3.org/2000/svg"
   xmlns:svg="http://www.w3.org/2000/svg"><defs
     id="defs1"><rect
       x="488.66904"
       y="82.071342"
       width="264.38248"
       height="88.96283"
       id="rect8" /><rect
       x="541.92145"
       y="108.38429"
       width="191.70863"
       height="72.047363"
       id="rect4" /><rect
       x="303.89905"
       y="813.35083"
       width="365.03326"
       height="189.60466"
       id="rect3" /><rect
       x="389.84134"
       y="772.59467"
       width="507.67975"
       height="151.50652"
       id="rect2" /><rect
       x="263.12949"
       y="849.53235"
       width="361.67468"
       height="143.85814"
       id="rect1" /></defs><sodipodi:namedview
     id="namedview1"
     pagecolor="#ffffff"
     bordercolor="#666666"
     borderopacity="1.0"
     inkscape:showpageshadow="2"
     inkscape:pageopacity="0.0"
     inkscape:pagecheckerboard="0"
     inkscape:deskcolor="#d1d1d1"
     inkscape:zoom="1.7750678"
     inkscape:cx="98.306105"
     inkscape:cy="117.4603"
     inkscape:window-width="1920"
     inkscape:window-height="974"
     inkscape:window-x="-11"
     inkscape:window-y="-11"
     inkscape:window-maximized="1"
     inkscape:current-layer="svg1"
     inkscape:document-units="mm"
     showguides="false"
     showborder="true"
     shape-rendering="auto"
     borderlayer="true"><inkscape:page
       x="0"
       y="0"
       inkscape:label="1"
       id="page1"
       width="302.36221"
       height="226.77164"
       margin="61.514534 96.884003 58.751999 56.558132"
       bleed="0" /></sodipodi:namedview><text
     xml:space="preserve"
     transform="matrix(1.2471046,0,0,1.2482162,-477.73231,-866.77654)"
     id="text3"
     style="font-style:normal;font-variant:normal;font-weight:normal;font-stretch:normal;line-height:0;font-family:Verdana;-inkscape-font-specification:Verdana;text-align:center;letter-spacing:0px;writing-mode:lr-tb;direction:ltr;text-orientation:sideways;baseline-shift:baseline;white-space:pre;shape-inside:url(#rect3);display:inline;opacity:1;fill:#000000;fill-opacity:1;stroke:none;stroke-width:0.00302929;stroke-dasharray:none;stroke-opacity:1"
     inkscape:label="Identifiant"><tspan
       x="445.10059"
       y="816.79953"
       id="tspan1">OSOCTD_034</tspan></text><text
     xml:space="preserve"
     style="font-size:11.3386px;line-height:1.95;font-family:'Royal Wedding';-inkscape-font-specification:'Royal Wedding';fill:#000000;fill-opacity:1;stroke:none;stroke-width:0.00377953;stroke-dasharray:none"
     x="76.337494"
     y="79.929901"
     id="text10"
     inkscape:label="Numéro"><tspan
       sodipodi:role="line"
       id="tspan10"
       x="76.337494"
       y="79.929901"
       style="font-style:normal;font-variant:normal;font-weight:normal;font-stretch:normal;font-size:11.3386px;font-family:Verdana;-inkscape-font-specification:Verdana;fill:#000000;fill-opacity:1;stroke:none;stroke-width:0.00377953;stroke-dasharray:none">+33 7 79 46 64 69</tspan></text><path
     style="fill:#000000;stroke:none;stroke-width:0.00377953;stroke-dasharray:none"
     d="m 96.31283,136.07364 c -0.552336,-0.76565 -0.993148,-1.39578 -0.979582,-1.4003 0.01357,-0.005 0.302396,0.0434 0.641844,0.10653 0.339449,0.0631 0.638876,0.11475 0.665394,0.11475 0.02652,0 0.279653,-0.19268 0.562524,-0.42818 0.282871,-0.23549 0.519208,-0.42328 0.525195,-0.41729 0.01509,0.0151 -0.380784,3.41763 -0.397564,3.41704 -0.0075,-2.6e-4 -0.465476,-0.62691 -1.017811,-1.39255 z m -6.169731,-2.95924 c -0.07628,-0.005 -0.325918,-0.0212 -0.554754,-0.0358 -2.169092,-0.13861 -4.428954,-0.65454 -6.493142,-1.48239 -4.958024,-1.98844 -8.964267,-5.81429 -11.157514,-10.65512 -1.066708,-2.35439 -1.6689,-4.74924 -1.896735,-7.54313 -0.05094,-0.6247 -0.04301,-2.56374 0.01316,-3.21505 0.188513,-2.18607 0.634359,-4.11637 1.393104,-6.03146 2.265876,-5.719117 6.99354,-10.041062 12.820535,-11.7203 2.53761,-0.731295 5.207854,-0.961502 8.333917,-0.718483 1.705508,0.132585 2.959366,0.354165 4.299343,0.759774 0.03101,0.0094 0.03681,-0.0149 0.03217,-0.134882 -0.0031,-0.08048 -0.0175,-0.486747 -0.03197,-0.902813 -0.01448,-0.416065 -0.04353,-1.136615 -0.06456,-1.601221 -0.03291,-0.726819 -0.05949,-1.2265 -0.152274,-2.862026 -0.01871,-0.329883 -0.03771,-0.345037 0.284415,0.226944 3.517665,6.24622 5.890835,12.765801 6.930015,19.038147 0.44506,2.68636 0.64311,5.40909 0.54201,7.45135 -0.0394,0.7953 0.004,0.67487 -0.44423,1.22351 -1.05684,1.29259 -2.13898,2.4203 -3.04839,3.17679 -1.634997,1.36006 -3.32271,2.16103 -5.383632,2.55502 -0.525506,0.10046 -0.529538,0.10106 -0.529538,0.0782 0,-0.011 0.05594,-0.2562 0.124322,-0.54496 1.046403,-4.4189 1.679215,-10.40374 1.833132,-17.33687 l 0.01719,-0.77445 -0.08585,0.0119 c -0.04722,0.007 -0.363856,0.0461 -0.703643,0.0879 -3.863192,0.47511 -7.67689,1.4936 -11.20855,2.99336 -5.725096,2.43124 -9.902211,5.96483 -11.007435,9.31164 -0.185871,0.56285 -0.300969,1.30926 -0.266194,1.72625 0.03105,0.37233 0.340765,1.48664 0.486584,1.75066 0.510767,0.92481 1.371342,1.74932 2.514404,2.40902 2.509624,1.44838 6.343486,2.21602 10.731209,2.14865 1.164225,-0.0179 2.307717,-0.0756 2.283188,-0.11531 -0.0059,-0.01 -0.106489,-0.0759 -0.22347,-0.14742 -0.116981,-0.0715 -0.421186,-0.28531 -0.676012,-0.47517 -0.449107,-0.33461 -0.486571,-0.3566 -1.221391,-0.71682 -0.95767,-0.46946 -1.077121,-0.56903 -0.830541,-0.69232 0.153534,-0.0768 0.757532,-0.0725 1.117129,0.008 0.793463,0.17736 1.915858,0.63149 2.75354,1.1141 0.65104,0.37508 0.836134,0.43924 1.538182,0.5332 0.48063,0.0643 1.488621,0.0887 2.029895,0.049 1.491568,-0.10927 2.786461,-0.45192 3.958925,-1.04761 0.646785,-0.32861 1.116049,-0.63668 1.206976,-0.79238 0.04457,-0.0763 0.04657,-0.0977 0.01885,-0.20127 -0.01705,-0.0638 -0.05978,-0.15364 -0.09495,-0.19975 -0.0938,-0.12297 -0.06717,-0.18969 0.111455,-0.27928 0.26663,-0.13373 0.450123,-0.16634 0.938853,-0.16686 0.34363,-3.6e-4 0.48579,0.01 0.6424,0.0466 0.27813,0.0652 0.4414,0.0468 0.70229,-0.079 0.43366,-0.20914 0.85659,-0.58279 1.95033,-1.72311 1.3996,-1.45921 1.79263,-1.81723 2.80743,-2.55741 2.192,-1.59879 5.07667,-3.20058 6.29126,-3.49338 0.48672,-0.11734 0.73777,-0.0127 0.92046,0.38365 0.17426,0.37806 0.1461,0.49797 -0.35134,1.49639 -0.2073,0.41607 -0.41898,0.86996 -0.47041,1.00864 -0.0514,0.13869 -0.18194,0.6096 -0.29003,1.04647 -0.22915,0.92617 -0.37614,1.42959 -0.57059,1.95425 -0.74155,2.00077 -1.93629,3.65467 -3.62652,5.02026 -1.79743,1.4522 -4.19999,2.57947 -6.34091,2.97514 -1.38751,0.25642 -2.826553,0.26481 -4.169435,0.0243 -1.573694,-0.28184 -3.73696,-1.0321 -4.958896,-1.71984 -0.145623,-0.082 -0.296953,-0.1704 -0.336289,-0.19653 l -0.07152,-0.0475 0.06521,0.0961 c 0.08374,0.12339 0.09066,0.34379 0.01543,0.49126 -0.114684,0.2248 -0.552149,0.55601 -0.73438,0.55601 -0.08882,0 -0.102066,-0.0112 -0.232089,-0.19542 -0.217496,-0.30824 -0.513482,-0.64598 -0.894962,-1.02123 -0.19385,-0.19068 -0.370773,-0.3853 -0.393164,-0.43248 -0.07758,-0.16349 -0.04032,-0.276 0.119529,-0.36089 0.03784,-0.0201 0.02232,-0.0277 -0.0813,-0.04 -0.07044,-0.008 -0.195766,-0.0425 -0.278506,-0.0759 l -0.150438,-0.0608 -0.272582,0.047 c -1.369158,0.23606 -3.271722,0.45799 -4.874519,0.56862 -0.920688,0.0635 -3.430993,0.0636 -4.211087,1.7e-4 -1.612607,-0.13122 -2.868262,-0.34846 -4.016032,-0.69479 -0.176624,-0.0533 -0.321135,-0.0918 -0.321135,-0.0856 0,0.0271 0.562298,0.83436 0.822039,1.1801 3.154535,4.19897 7.984854,6.98551 13.261146,7.65015 0.949452,0.1196 1.286883,0.1384 2.483785,0.1384 1.194813,0 1.543119,-0.0193 2.471176,-0.13723 1.355682,-0.1722 3.289748,-0.69349 4.754249,-1.2814 2.87959,-1.15599 5.28789,-2.87541 7.52888,-5.37532 0.58635,-0.65408 1.47299,-1.7915 2.03856,-2.61512 0.14489,-0.211 0.26745,-0.37962 0.27236,-0.37471 0.005,0.005 -0.0605,0.1662 -0.14542,0.35842 -1.58485,3.58837 -4.95354,6.92155 -9.10988,9.01383 -2.595478,1.30655 -5.031309,1.982 -7.999046,2.21811 -0.324843,0.0258 -2.216995,0.0515 -2.483785,0.0336 z M 74.146137,110.02797 c 3.167875,-2.88233 7.928115,-5.22271 13.731262,-6.75102 2.78104,-0.73241 5.484011,-1.14369 8.498879,-1.29316 l 0.6226,-0.0309 0.01314,-0.15286 c 0.06871,-0.79938 -0.0047,-8.96907 -0.0813,-9.046113 -0.0094,-0.0095 -0.221349,-0.04047 -0.470989,-0.0689 -2.386079,-0.271798 -4.931647,-0.213339 -7.702197,0.17688 -1.356651,0.191078 -2.378531,0.427497 -3.582002,0.828719 -1.515666,0.505305 -2.888696,1.175539 -4.184669,2.042714 -1.865346,1.24816 -3.487707,2.891644 -4.730154,4.791743 -1.859774,2.84418 -2.943969,6.37202 -3.053319,9.93513 l -0.01586,0.51693 0.302117,-0.3152 c 0.166164,-0.17336 0.459788,-0.45866 0.652496,-0.63399 z m 19.275054,10.85436 c -0.301609,-0.0227 -0.846463,-0.0918 -1.082046,-0.13718 -0.526545,-0.10143 -0.75481,-0.19651 -1.478741,-0.61596 -0.727117,-0.4213 -1.479699,-0.7708 -2.085277,-0.96841 -0.09361,-0.0306 -0.170209,-0.0615 -0.170209,-0.0689 0,-0.007 0.293297,-0.4518 0.651771,-0.98768 3.526917,-5.27238 5.732587,-9.25615 6.082058,-10.98512 0.02715,-0.13432 0.03317,-0.14433 0.0537,-0.0893 0.04891,0.13127 0.172493,0.8128 0.215085,1.18616 0.03627,0.31796 0.04451,0.60247 0.04416,1.52558 -4.19e-4,1.09915 -0.01115,1.34639 -0.101248,2.33248 -0.211824,2.31838 -0.752204,5.4223 -1.476145,8.47891 l -0.08212,0.34673 -0.228755,-0.004 c -0.125814,-0.002 -0.279816,-0.008 -0.342226,-0.013 z m 92.465569,-1.60277 c -0.22851,-0.31481 -0.67977,-1.24008 -0.69849,-1.43218 l -0.0112,-0.11465 0.29901,-0.0833 c 0.53925,-0.15025 0.68085,-0.21607 0.8687,-0.40382 0.19589,-0.19578 0.2602,-0.34752 0.25747,-0.60743 -0.003,-0.28842 -0.0976,-0.46556 -0.57307,-1.07369 -0.49375,-0.63147 -0.62494,-0.96522 -0.62862,-1.59922 -0.002,-0.41228 0.0289,-0.56929 0.17387,-0.87271 0.24551,-0.5138 0.79188,-0.9609 1.47406,-1.20626 0.25693,-0.0924 0.56813,-0.16487 0.70898,-0.16508 l 0.1164,-1.8e-4 0.0705,0.19542 c 0.0771,0.21352 0.41774,1.02163 0.49388,1.17155 0.0568,0.11186 0.0614,0.21092 0.0107,0.23039 -0.0203,0.008 -0.10254,0.003 -0.18282,-0.01 -0.28112,-0.046 -0.59871,0.0562 -0.80776,0.25995 -0.14165,0.13806 -0.19185,0.27341 -0.17859,0.48155 0.0148,0.23286 0.14678,0.47837 0.59137,1.10028 0.5576,0.78 0.65292,1.02153 0.6518,1.65165 -5.6e-4,0.3144 -0.0102,0.41139 -0.0569,0.57462 -0.0869,0.30337 -0.16765,0.48256 -0.32215,0.71475 -0.39407,0.59225 -1.04943,1.04099 -1.80145,1.2335 -0.33589,0.086 -0.36226,0.0834 -0.45571,-0.0454 z m -13.72834,0.0158 c -0.759,-0.11501 -1.25735,-0.36427 -1.77821,-0.88942 -0.55482,-0.55938 -0.89756,-1.232 -1.04853,-2.05777 -0.071,-0.38856 -0.066,-1.283 0.01,-1.68141 0.0769,-0.40576 0.20426,-0.77891 0.38441,-1.12635 0.4531,-0.87387 1.1723,-1.47844 2.03766,-1.71287 0.22833,-0.0619 0.27908,-0.0661 0.79858,-0.0661 0.52801,-7e-5 0.56691,0.003 0.80692,0.0695 1.24842,0.34444 2.17221,1.46006 2.42505,2.92865 0.0537,0.31193 0.0608,1.18376 0.0121,1.48775 -0.14265,0.89009 -0.49568,1.61309 -1.06693,2.18505 -0.4126,0.4131 -0.91242,0.68578 -1.49626,0.81629 -0.17272,0.0386 -0.92413,0.071 -1.0843,0.0467 z m 0.73085,-1.95596 c 0.48203,-0.12248 0.9348,-0.61717 1.12649,-1.23078 0.0524,-0.16759 0.059,-0.23793 0.0586,-0.6178 -5.1e-4,-0.41864 -0.002,-0.43427 -0.0834,-0.66822 -0.1976,-0.57084 -0.58537,-0.97982 -1.06164,-1.11971 -0.0788,-0.0232 -0.22941,-0.0402 -0.35475,-0.0402 -0.37143,0 -0.62652,0.10381 -0.90832,0.36964 -0.30951,0.29197 -0.5301,0.68989 -0.60587,1.09289 -0.0415,0.22077 -0.0359,0.67804 0.011,0.8972 0.20578,0.96187 0.98737,1.52807 1.818,1.31701 z m -46.57369,1.84104 c -0.0694,-0.0127 -1.01684,-0.0291 -2.10555,-0.0365 -1.7248,-0.0118 -1.98726,-0.0185 -2.04007,-0.0524 l -0.0606,-0.0389 0.0172,-0.58316 c 0.009,-0.32074 0.0346,-0.93492 0.0559,-1.36486 0.0617,-1.24791 0.0494,-2.5798 -0.0421,-4.55075 -0.0315,-0.67787 -0.0462,-0.64345 0.26668,-0.62132 0.44979,0.0318 2.29742,0.0435 3.09503,0.0196 0.90023,-0.027 1.00052,-0.0195 1.06406,0.079 0.0466,0.0723 0.077,0.30574 0.13115,1.00781 0.0387,0.50098 0.0396,0.57858 0.008,0.60942 -0.0312,0.0302 -0.0984,0.0304 -0.46518,9.2e-4 -1.08472,-0.0871 -1.95567,-0.10868 -2.09172,-0.0518 -0.13215,0.0552 -0.14568,0.10412 -0.13596,0.49146 0.007,0.28189 0.0171,0.35804 0.0547,0.41543 0.0917,0.13984 0.13383,0.14453 1.05675,0.11768 0.46134,-0.0134 0.96781,-0.0384 1.12548,-0.0556 0.27044,-0.0294 0.28861,-0.0286 0.32096,0.0157 0.0189,0.0258 0.0288,0.0706 0.022,0.0996 -0.0335,0.1439 -0.11273,1.08295 -0.11273,1.33631 0,0.22888 -0.008,0.29697 -0.0396,0.32838 -0.048,0.048 -0.0296,0.0479 -0.4007,0.002 -0.21184,-0.0264 -0.54661,-0.0376 -1.12451,-0.0376 -0.78082,0 -0.82513,0.002 -0.86691,0.0486 -0.0388,0.0429 -0.043,0.0956 -0.0354,0.44326 l 0.009,0.3946 0.0922,0.0844 c 0.13836,0.12673 0.22976,0.1443 0.8156,0.15678 0.40945,0.009 0.65915,-6.4e-4 1.10108,-0.0413 0.6633,-0.061 0.79218,-0.0643 0.8201,-0.0211 0.0476,0.0738 -0.012,0.75737 -0.12006,1.37682 -0.0561,0.32136 -0.0958,0.41895 -0.17997,0.44149 -0.0654,0.0175 -0.0631,0.0176 -0.23426,-0.0136 z m 20.05939,2.8e-4 c -0.0763,-0.0123 -1.0374,-0.0306 -2.13583,-0.0406 -1.59265,-0.0145 -2.00377,-0.0249 -2.02989,-0.0512 -0.042,-0.0423 -0.0349,-0.57833 0.0237,-1.76996 0.0668,-1.36018 0.0522,-3.06512 -0.0421,-4.91714 -0.0207,-0.40583 -0.0181,-0.4422 0.0328,-0.46171 0.0168,-0.006 0.5026,-4e-5 1.07955,0.0142 0.7197,0.0178 1.37531,0.0178 2.08846,-2e-5 0.66543,-0.0166 1.07093,-0.0173 1.12692,-0.002 0.0634,0.0175 0.0966,0.0462 0.12055,0.10436 0.038,0.092 0.10969,0.7818 0.13179,1.26756 0.0126,0.2774 0.009,0.33227 -0.0222,0.34428 -0.0205,0.008 -0.22357,-0.001 -0.45129,-0.0199 -0.51021,-0.0422 -1.4113,-0.0868 -1.75303,-0.0869 -0.44576,-1.2e-4 -0.48981,0.0424 -0.48807,0.47148 0.001,0.35565 0.0486,0.50562 0.17887,0.56933 0.0856,0.0419 0.14803,0.0432 0.93299,0.0199 0.46271,-0.0137 0.96923,-0.0389 1.12562,-0.0559 0.39116,-0.0425 0.37108,-0.0757 0.30798,0.50881 -0.0277,0.25619 -0.0577,0.6446 -0.0668,0.86315 -0.0115,0.27784 -0.0264,0.40552 -0.0492,0.42452 -0.0235,0.0195 -0.1249,0.0159 -0.36063,-0.0128 -0.23706,-0.0289 -0.55364,-0.04 -1.14285,-0.04 -0.71436,0 -0.82224,0.005 -0.87397,0.0413 -0.0583,0.0409 -0.0589,0.0457 -0.0486,0.42833 0.009,0.3385 0.0168,0.39572 0.0613,0.45668 0.0638,0.0872 0.18767,0.14994 0.36139,0.18288 0.22241,0.0422 1.05276,0.0293 1.62698,-0.0252 0.71651,-0.068 0.76339,-0.0671 0.80069,0.0147 0.0342,0.0751 1.8e-4,0.52958 -0.0809,1.08093 -0.0705,0.47974 -0.0994,0.5947 -0.16594,0.66126 -0.0628,0.0628 -0.0741,0.064 -0.28816,0.0294 z m -10.58541,-0.045 c -0.46176,-0.0113 -0.56623,-0.0205 -0.58562,-0.0516 -0.0145,-0.0233 -0.0176,-0.90268 -0.008,-2.28206 0.0157,-2.24968 0.002,-3.0176 -0.078,-4.24891 -0.0175,-0.27044 -0.0271,-0.50478 -0.0214,-0.52075 0.006,-0.016 0.0351,-0.036 0.0653,-0.0446 0.28075,-0.0794 3.0174,-0.0815 3.45917,-0.003 0.77867,0.1391 1.35536,0.55276 1.71473,1.22999 0.24965,0.47046 0.32745,0.87853 0.30804,1.61575 -0.0111,0.42294 -0.024,0.55351 -0.0766,0.77573 -0.2721,1.15041 -0.99264,1.81536 -2.03808,1.88084 -0.13375,0.008 -0.47561,0.001 -0.75968,-0.0163 -0.59964,-0.0366 -0.66584,-0.0288 -0.70968,0.0835 -0.0325,0.0833 -0.029,0.18633 0.0373,1.07663 0.0181,0.24335 0.0255,0.46179 0.0164,0.48541 -0.0181,0.0473 -0.1115,0.0486 -1.32396,0.0189 z m 2.39385,-3.32049 c 0.32242,-0.0957 0.52963,-0.3396 0.60226,-0.70874 0.0453,-0.23027 0.0197,-0.73665 -0.0465,-0.92015 -0.11065,-0.30678 -0.29633,-0.48801 -0.59223,-0.57803 -0.15209,-0.0463 -0.22045,-0.051 -0.60519,-0.0419 -0.45153,0.0106 -0.53008,0.0278 -0.56021,0.12276 -0.021,0.0663 -0.0219,1.99613 -9.6e-4,2.06222 0.0201,0.0634 0.0934,0.0827 0.40481,0.10626 0.31786,0.0241 0.62999,0.008 0.79797,-0.0424 z m 10.85186,3.32188 c -0.27737,-0.008 -0.52027,-0.0254 -0.53977,-0.038 -0.039,-0.0251 -0.0331,-0.63175 0.0246,-2.53835 0.0214,-0.70783 0.0214,-1.19555 -2e-5,-1.92903 -0.0158,-0.53992 -0.0357,-1.3448 -0.0443,-1.7886 -0.0141,-0.7298 -0.0116,-0.81022 0.0259,-0.84133 0.0752,-0.0624 0.64202,-0.0848 1.76922,-0.0699 1.3005,0.0172 1.60176,0.0497 2.16858,0.23417 0.86849,0.28264 1.46545,0.93327 1.81272,1.97569 0.14581,0.43769 0.19393,0.71641 0.20974,1.21482 0.0256,0.80825 -0.1,1.4231 -0.42177,2.06434 -0.48944,0.97535 -1.15252,1.49758 -2.13022,1.67775 -0.18448,0.034 -0.42748,0.0429 -1.29863,0.0477 -0.58943,0.003 -1.29863,-9.4e-4 -1.57601,-0.009 z m 2.51577,-1.67569 c 0.38721,-0.13188 0.66239,-0.36552 0.88051,-0.7476 0.28537,-0.49985 0.35966,-1.37049 0.16784,-1.96685 -0.0987,-0.3068 -0.21891,-0.50118 -0.46199,-0.74692 -0.1812,-0.18318 -0.26598,-0.24827 -0.41661,-0.31981 -0.26993,-0.12821 -0.55167,-0.17952 -0.88211,-0.16066 -0.29547,0.0169 -0.42196,0.0458 -0.50907,0.11627 l -0.0588,0.0476 -0.008,1.67281 c -0.004,0.92004 -6.1e-4,1.75547 0.009,1.8565 0.0145,0.15982 0.025,0.1892 0.0811,0.22593 0.11539,0.0756 0.32957,0.10666 0.67495,0.0979 0.274,-0.007 0.35997,-0.0193 0.5237,-0.0751 z m 4.7969,1.68312 c -0.20257,-0.0286 -0.24078,-0.0408 -0.26402,-0.0842 -0.0168,-0.0314 -0.0132,-0.31594 0.011,-0.86257 0.0745,-1.68532 0.0963,-2.63723 0.08,-3.48861 -0.0522,-2.73743 -0.0523,-2.75157 -0.006,-2.76919 0.0235,-0.009 0.25588,-0.006 0.51643,0.007 0.26055,0.013 0.49555,0.0192 0.52223,0.0138 0.0267,-0.005 0.21505,-0.0162 0.41863,-0.024 0.31989,-0.0122 0.37566,-0.009 0.41094,0.0267 0.0455,0.0455 0.0446,0.1073 -0.0262,1.7905 -0.0418,0.99471 -0.0454,2.31488 -0.0108,4.02833 0.0134,0.66399 0.0179,1.23306 0.01,1.2646 -0.0106,0.0423 -0.0387,0.0615 -0.10685,0.073 -0.11046,0.0187 -1.44665,0.0398 -1.55499,0.0245 z m 4.81339,-0.006 c -0.2112,-0.028 -0.21146,-0.0286 -0.21146,-0.47616 0,-0.21482 0.0183,-0.90845 0.0407,-1.5414 0.0376,-1.0641 0.0382,-3.51363 8.9e-4,-3.55098 -0.007,-0.007 -0.21448,0.005 -0.46182,0.0264 -0.24735,0.0212 -0.58589,0.042 -0.75231,0.0462 l -0.3026,0.008 -0.008,-0.0658 c -0.004,-0.0362 0.0261,-0.24614 0.0674,-0.4665 0.0413,-0.22036 0.082,-0.52423 0.0906,-0.67526 0.0157,-0.276 0.0533,-0.51015 0.0852,-0.52983 0.009,-0.006 0.14183,0.005 0.29425,0.0237 0.83785,0.10358 2.21273,0.10831 3.29044,0.0113 0.32592,-0.0293 0.67768,-0.0554 0.7817,-0.058 l 0.18912,-0.005 v 0.52954 c 0,0.29125 0.0102,0.67237 0.0226,0.84693 0.0192,0.26926 0.017,0.31954 -0.0141,0.3315 -0.0202,0.008 -0.20626,0.005 -0.41345,-0.007 -0.20718,-0.0114 -0.52523,-0.0288 -0.70677,-0.0385 l -0.33006,-0.0178 -0.0166,0.98046 c -0.009,0.53925 -0.006,1.32087 0.007,1.73694 0.069,2.19599 0.0822,2.73702 0.0679,2.79384 -0.0113,0.045 -0.0386,0.0671 -0.0979,0.0793 -0.11545,0.0237 -1.46689,0.0386 -1.62326,0.0179 z m 4.75014,-0.002 c -0.23181,-0.0323 -0.2308,-0.0301 -0.21203,-0.45531 0.0264,-0.59805 0.0878,-2.29114 0.10476,-2.88747 0.009,-0.31355 -0.001,-1.20711 -0.0237,-2.05511 -0.0497,-1.89344 -0.0503,-1.75762 0.008,-1.78879 0.0311,-0.0166 0.19915,-0.0183 0.48541,-0.005 0.24083,0.0114 0.63412,0.011 0.87396,-9.6e-4 0.2959,-0.0147 0.45194,-0.0132 0.48541,0.005 0.0454,0.0243 0.0493,0.0549 0.0493,0.38485 -3e-5,0.19714 -0.0193,0.74992 -0.0429,1.22839 -0.0335,0.68151 -0.0405,1.1977 -0.0323,2.38292 0.006,0.83213 0.0109,1.88129 0.0113,2.33145 l 8.8e-4,0.81848 -0.0883,0.0215 c -0.11917,0.029 -1.43837,0.0453 -1.6198,0.0201 z m -37.47488,-0.0282 c -0.0678,-0.0113 -0.13447,-0.0319 -0.1482,-0.0456 -0.0351,-0.0351 -0.0361,-1.17565 -0.001,-1.293 0.015,-0.0505 0.26786,-0.42886 0.56181,-0.84083 0.55096,-0.77219 0.76145,-1.08448 0.85641,-1.27062 l 0.0548,-0.10751 -0.056,-0.11571 c -0.0778,-0.16074 -0.38652,-0.61494 -0.9216,-1.35594 -0.25037,-0.34672 -0.46962,-0.65784 -0.48724,-0.69138 -0.0234,-0.0446 -0.0329,-0.24834 -0.0352,-0.75648 l -0.003,-0.6955 0.68071,0.002 0.68072,0.002 0.17192,0.25012 c 0.0946,0.13757 0.3556,0.54269 0.58009,0.90026 0.22449,0.35758 0.43182,0.67997 0.46073,0.71642 l 0.0526,0.0663 0.11498,-0.16167 c 0.0633,-0.0889 0.23658,-0.36024 0.38519,-0.60295 0.4013,-0.65538 0.62177,-1.00048 0.70147,-1.09803 l 0.0712,-0.0871 h 0.62353 c 0.45134,0 0.63188,0.008 0.65378,0.0303 0.022,0.022 0.0303,0.20985 0.0303,0.68714 l 0,0.65687 -0.11437,0.20173 c -0.0629,0.11095 -0.37012,0.55917 -0.6827,0.99604 -0.31259,0.43687 -0.59652,0.84182 -0.63098,0.89989 -0.0611,0.10293 -0.0616,0.10768 -0.0195,0.18912 0.0655,0.12685 0.39658,0.61604 0.91847,1.35695 0.25888,0.36752 0.48667,0.69659 0.5062,0.73127 0.028,0.0497 0.0355,0.20056 0.0355,0.71142 0,0.58844 -0.004,0.65254 -0.045,0.69344 -0.0392,0.0393 -0.10373,0.0461 -0.50432,0.0534 -0.25265,0.005 -0.5407,8.6e-4 -0.64011,-0.008 l -0.18075,-0.0166 -0.14706,-0.20711 c -0.0809,-0.1139 -0.34375,-0.5191 -0.58416,-0.90043 -0.24041,-0.38133 -0.45775,-0.72069 -0.48298,-0.75414 l -0.0459,-0.0608 -0.18746,0.28867 c -0.1031,0.15877 -0.30465,0.48158 -0.44789,0.71735 -0.31281,0.51487 -0.48883,0.78291 -0.57542,0.87625 l -0.0643,0.0694 -0.50591,-0.003 c -0.27825,-0.002 -0.56136,-0.0123 -0.62913,-0.0236 z m 49.07397,0.01 c -0.0243,-0.007 -0.0518,-0.0424 -0.0612,-0.0795 -0.0167,-0.0661 0.0163,-1.19464 0.0709,-2.4252 0.0281,-0.63401 0.0154,-1.96849 -0.0285,-2.9755 -0.013,-0.29818 -0.024,-0.78873 -0.0245,-1.09011 l -8.9e-4,-0.54797 0.0567,-0.0115 c 0.0312,-0.006 0.2008,-0.018 0.37689,-0.026 0.17608,-0.008 0.41438,-0.0316 0.52954,-0.0525 0.45752,-0.083 0.6017,-0.0989 0.6457,-0.0713 0.0235,0.0147 0.23569,0.31795 0.47146,0.67377 0.23577,0.35582 0.79614,1.20204 1.24527,1.8805 0.81886,1.23698 0.98137,1.45392 1.04305,1.39238 0.0449,-0.0448 0.0536,-0.58104 0.0214,-1.321 -0.0681,-1.56444 -0.088,-2.36065 -0.0605,-2.42097 l 0.0276,-0.0606 0.87423,-0.033 c 0.67472,-0.0255 0.88103,-0.0262 0.90405,-0.003 0.0345,0.0346 0.0289,0.86065 -0.0117,1.72928 -0.0136,0.29124 -0.0309,1.62023 -0.0385,2.9533 -0.008,1.33307 -0.0215,2.43628 -0.031,2.45158 -0.0261,0.0422 -0.5848,0.0637 -1.09935,0.0424 l -0.45389,-0.0188 -0.0831,-0.0918 c -0.0457,-0.0505 -0.49764,-0.70374 -1.00429,-1.45171 -1.44254,-2.12963 -1.55955,-2.29501 -1.60426,-2.26737 -0.0263,0.0162 -0.0229,0.49963 0.0205,2.93387 0.01,0.54779 0.006,0.83206 -0.0115,0.85735 -0.0223,0.0322 -0.15221,0.0384 -0.87811,0.0417 -0.46859,0.002 -0.87183,-0.002 -0.89609,-0.008 z M 105.50011,113.899 c 2.2e-4,-0.026 0.0113,-0.17769 0.0247,-0.33719 0.0875,-1.0452 0.0819,-2.59132 -0.0138,-3.84545 -0.32223,-4.22169 -1.56872,-8.93848 -3.88432,-14.698525 -0.20017,-0.497929 -0.36011,-0.909171 -0.35541,-0.913871 0.0107,-0.01065 0.80406,0.524144 1.12689,0.75959 1.84194,1.343355 3.47318,2.936905 4.91033,4.796869 1.89544,2.453097 3.43433,5.436247 4.37086,8.472947 0.17353,0.56268 0.41977,1.51258 0.44272,1.70789 0.0151,0.12829 0.0139,0.13097 -0.13451,0.31744 -0.29372,0.36895 -0.70286,0.7087 -1.24877,1.03697 -0.413,0.24836 -0.89541,0.48455 -1.89792,0.92923 -0.91895,0.40762 -1.67203,0.77326 -2.13076,1.03454 -0.25414,0.14475 -0.93749,0.58663 -1.1632,0.75217 -0.0416,0.0305 -0.0471,0.029 -0.0468,-0.0126 z m 25.94127,-4.84434 c -0.20766,-0.21902 -0.76316,-1.35437 -0.74595,-1.52459 0.008,-0.0758 0.0115,-0.0777 0.35497,-0.17443 0.61017,-0.17187 0.82846,-0.31001 0.98167,-0.62121 0.0714,-0.14512 0.0825,-0.19362 0.0825,-0.36057 0,-0.17615 -0.009,-0.21127 -0.10591,-0.40466 -0.0651,-0.13018 -0.23783,-0.38178 -0.44829,-0.65305 -0.47015,-0.60599 -0.59339,-0.87702 -0.64921,-1.42778 -0.046,-0.45357 0.0408,-0.86347 0.26214,-1.23865 0.17907,-0.3035 0.62713,-0.68674 1.05378,-0.90133 0.19229,-0.0967 0.68366,-0.25393 0.91388,-0.29239 0.15871,-0.0265 0.20074,-0.0264 0.23325,5.7e-4 0.0218,0.0181 0.0397,0.0435 0.0397,0.0565 0,0.038 0.26038,0.684 0.42685,1.05907 0.0842,0.18975 0.15312,0.37262 0.15312,0.40638 v 0.0614 l -0.29629,-0.003 c -0.27338,-0.003 -0.30767,0.002 -0.44345,0.066 -0.215,0.10072 -0.3329,0.20479 -0.40959,0.36156 -0.059,0.12048 -0.0661,0.16047 -0.0555,0.30901 0.0175,0.24424 0.10715,0.41279 0.55365,1.04071 0.43388,0.61018 0.55113,0.825 0.64212,1.17649 0.0575,0.22209 0.0624,0.2797 0.0514,0.59876 -0.0138,0.40209 -0.0765,0.6627 -0.235,0.97808 -0.12625,0.25118 -0.21545,0.37518 -0.43572,0.60573 -0.41027,0.42942 -0.94489,0.73775 -1.53248,0.8838 -0.29744,0.0739 -0.31932,0.0738 -0.39168,-0.003 z m 22.85145,-0.032 c -0.70678,-0.0687 -1.32155,-0.36039 -1.82978,-0.86827 -0.57009,-0.5697 -0.91791,-1.26815 -1.07437,-2.15744 -0.0497,-0.28278 -0.0432,-1.23308 0.0106,-1.53848 0.15016,-0.85226 0.50566,-1.5525 1.07565,-2.11876 0.45125,-0.4483 0.94838,-0.71109 1.57832,-0.83432 0.22824,-0.0447 0.89931,-0.0444 1.14734,3.3e-4 0.99652,0.17992 1.85152,0.87642 2.33082,1.8987 0.45192,0.9639 0.51725,2.25283 0.16725,3.29966 -0.44659,1.33569 -1.48238,2.20566 -2.76081,2.31885 -0.30551,0.027 -0.36423,0.027 -0.64504,-2.7e-4 z m 0.63788,-1.95375 c 0.43775,-0.11402 0.8485,-0.49354 1.0657,-0.98468 0.21612,-0.48868 0.21909,-1.18293 0.007,-1.69333 -0.39802,-0.95898 -1.40729,-1.30361 -2.15793,-0.73687 -0.30124,0.22743 -0.60845,0.72351 -0.70138,1.13254 -0.0629,0.27678 -0.0578,0.73162 0.0115,1.02126 0.15151,0.63379 0.59615,1.12992 1.12805,1.25868 0.19647,0.0476 0.46956,0.0486 0.64684,0.002 z m 8.75511,1.84992 c -0.4022,-0.0113 -1.24978,-0.0303 -1.88351,-0.0423 -0.91499,-0.0172 -1.16083,-0.0288 -1.19395,-0.0563 -0.0383,-0.0318 -0.041,-0.21363 -0.0329,-2.25478 0.005,-1.22109 -0.002,-2.81705 -0.0141,-3.54658 l -0.0229,-1.32642 0.0607,-0.015 c 0.0334,-0.008 0.24795,-0.005 0.47678,0.007 0.25636,0.0133 0.59356,0.0117 0.87848,-0.004 0.30569,-0.017 0.47088,-0.0173 0.48741,-7.2e-4 0.0165,0.0165 0.0157,0.20337 -0.003,0.55129 -0.0152,0.28945 -0.0444,0.94612 -0.065,1.45926 -0.0437,1.0871 -0.0513,3.41954 -0.0114,3.49409 0.0234,0.0438 0.055,0.0487 0.3089,0.0485 0.15554,-1.4e-4 0.5608,-0.0166 0.90059,-0.0366 0.33978,-0.02 0.82451,-0.0443 1.07716,-0.054 l 0.45937,-0.0176 0.0232,0.0611 c 0.0519,0.13659 -0.0514,1.55366 -0.12303,1.68755 -0.0437,0.0816 -0.0513,0.0819 -1.32325,0.0461 z m 24.27048,-0.0229 c -0.11788,-0.0103 -1.05584,-0.0272 -2.08436,-0.0376 -1.02851,-0.0104 -1.88523,-0.0282 -1.90381,-0.0397 -0.0433,-0.0268 -0.0365,-0.5634 0.0222,-1.73742 0.0678,-1.35578 0.0518,-3.25214 -0.0419,-4.98018 -0.0116,-0.2131 -0.01,-0.37165 0.005,-0.40003 0.0229,-0.0451 0.0585,-0.0461 0.8977,-0.0252 0.4806,0.012 1.24261,0.0161 1.69335,0.009 1.51223,-0.0233 1.75294,-0.0189 1.81005,0.0328 0.0276,0.025 0.0575,0.0817 0.0665,0.12609 0.0311,0.15358 0.11553,1.13736 0.11553,1.34614 v 0.20966 h -0.0764 c -0.042,0 -0.30587,-0.0185 -0.58627,-0.0412 -0.2891,-0.0233 -0.81785,-0.0424 -1.2213,-0.0441 -0.89443,-0.004 -0.82682,-0.0412 -0.82645,0.45801 2.9e-4,0.37841 0.0252,0.4675 0.15419,0.55204 0.0975,0.0639 0.9132,0.0515 2.15549,-0.0328 0.16322,-0.0111 0.2477,-0.008 0.25906,0.0108 0.009,0.015 -0.006,0.24635 -0.0345,0.51411 -0.0282,0.26777 -0.0597,0.66274 -0.0699,0.8777 l -0.0186,0.39085 -0.1639,-0.001 c -0.0901,-6e-4 -0.32277,-0.0147 -0.51693,-0.0314 -0.19416,-0.0167 -0.64369,-0.0304 -0.99894,-0.0304 -0.62333,-1e-4 -0.64833,0.002 -0.71501,0.0542 l -0.0691,0.0543 0.01,0.36802 c 0.0117,0.43031 0.0357,0.49859 0.20262,0.57815 0.17943,0.0855 0.48278,0.11434 1.01515,0.0965 0.26377,-0.009 0.63845,-0.0329 0.83262,-0.0534 0.19416,-0.0206 0.45209,-0.0377 0.57318,-0.0381 0.21937,-7.5e-4 0.22023,-5e-4 0.23766,0.0686 0.0334,0.13227 -0.0935,1.23623 -0.18017,1.56825 -0.0559,0.21402 -0.0698,0.21857 -0.54242,0.17715 z m -65.62038,-0.0257 c -0.21341,-0.0298 -0.26925,-0.0584 -0.26925,-0.13786 0,-0.11162 0.27041,-0.96067 1.34908,-4.2358 0.35172,-1.0679 0.70943,-2.15957 0.79492,-2.42594 0.0855,-0.26637 0.17174,-0.49784 0.19168,-0.51439 0.0281,-0.0233 0.11985,-0.0232 0.40738,6.1e-4 0.20412,0.0169 0.5697,0.0271 0.8124,0.0227 l 0.44129,-0.008 0.0691,0.13869 c 0.19864,0.39867 2.35769,6.6423 2.40423,6.95265 0.0126,0.0838 0.007,0.12192 -0.0213,0.15036 -0.0743,0.0743 -0.96255,0.10793 -1.55539,0.0589 -0.37778,-0.0312 -0.37935,-0.0328 -0.47792,-0.46704 -0.0409,-0.18029 -0.0955,-0.38454 -0.12125,-0.45389 l -0.0468,-0.12608 -0.22621,-0.0203 c -0.34943,-0.0314 -1.75224,-0.009 -1.82087,0.0284 -0.0837,0.0462 -0.12616,0.14704 -0.2217,0.52637 -0.0934,0.37084 -0.13103,0.45058 -0.23046,0.48839 -0.0895,0.034 -1.26799,0.0517 -1.47895,0.0222 z m 3.39587,-2.84487 c 0.065,-0.054 0.0514,-0.20702 -0.0576,-0.64809 -0.16733,-0.67751 -0.37078,-1.31621 -0.40743,-1.27907 -0.0426,0.0432 -0.4584,1.37108 -0.53695,1.71488 -0.0413,0.1807 -0.0285,0.2038 0.13081,0.23667 0.16229,0.0335 0.82376,0.015 0.87112,-0.0244 z m 12.42827,2.84696 c -0.12871,-0.0116 -0.25207,-0.0361 -0.27414,-0.0544 -0.0357,-0.0296 -0.0387,-0.12407 -0.0271,-0.85349 0.007,-0.4511 0.0272,-1.29678 0.0446,-1.87927 0.0221,-0.7414 0.0248,-1.32002 0.009,-1.92903 l -0.0226,-0.86995 -0.0756,0.006 c -0.0416,0.003 -0.2896,0.023 -0.5511,0.0441 -0.2615,0.0211 -0.57071,0.0384 -0.68714,0.0384 h -0.21168 l 1e-4,-0.0946 c 5e-5,-0.052 0.0282,-0.23796 0.0625,-0.41323 0.0343,-0.17527 0.0742,-0.47446 0.0887,-0.66487 0.0252,-0.33162 0.0553,-0.53012 0.085,-0.55983 0.008,-0.008 0.18168,0.005 0.38678,0.0277 0.2051,0.0229 0.70721,0.0531 1.11579,0.0672 0.79202,0.0272 1.16017,0.0144 2.23093,-0.0777 0.68383,-0.0589 0.82082,-0.0619 0.82224,-0.0183 5.6e-4,0.0173 0.005,0.29818 0.009,0.6241 0.005,0.32591 0.017,0.69161 0.0277,0.81266 0.0178,0.20008 0.0154,0.22168 -0.0265,0.23773 -0.0253,0.01 -0.35312,-1.1e-4 -0.72848,-0.0218 -0.41459,-0.024 -0.69217,-0.0304 -0.70717,-0.0164 -0.036,0.0337 -0.0319,2.82812 0.005,3.72841 0.0375,0.90416 0.0497,1.78095 0.0252,1.80545 -0.0385,0.0385 -0.27971,0.0594 -0.81282,0.0707 -0.30512,0.006 -0.66007,0.002 -0.78878,-0.009 z m 29.28744,-0.002 c -0.20897,-0.0292 -0.26925,-0.0588 -0.26925,-0.13194 1e-5,-0.11055 0.29756,-1.04817 1.21008,-3.81305 0.32041,-0.97082 0.69614,-2.11689 0.83495,-2.54682 0.13881,-0.42994 0.26821,-0.79775 0.28756,-0.81736 0.03,-0.0304 0.0893,-0.031 0.40195,-0.004 0.24329,0.021 0.51448,0.0255 0.80548,0.0135 l 0.4387,-0.0182 0.043,0.0657 c 0.0582,0.0888 0.19331,0.44139 0.50884,1.32767 0.86607,2.43265 1.94884,5.63462 1.94951,5.76509 2.3e-4,0.0434 -0.0164,0.0928 -0.0369,0.10983 -0.081,0.0672 -0.99308,0.0974 -1.54978,0.0514 -0.37763,-0.0312 -0.37914,-0.0327 -0.47742,-0.46704 -0.0408,-0.18029 -0.0954,-0.38454 -0.12138,-0.45389 l -0.0472,-0.12608 -0.22621,-0.0203 c -0.34943,-0.0314 -1.75224,-0.009 -1.82087,0.0284 -0.0822,0.0454 -0.11695,0.12806 -0.2181,0.51927 -0.0983,0.38031 -0.13493,0.4578 -0.23406,0.49549 -0.0895,0.034 -1.26799,0.0517 -1.47895,0.0222 z m 3.39587,-2.84487 c 0.0653,-0.0542 0.0513,-0.20718 -0.0603,-0.6607 -0.16706,-0.67897 -0.36654,-1.30601 -0.4031,-1.26706 -0.027,0.0288 -0.33364,0.97506 -0.45441,1.40237 -0.10468,0.3704 -0.11964,0.48163 -0.069,0.51293 0.10671,0.0659 0.91019,0.0761 0.98677,0.0125 z m 5.70265,2.84404 c -0.18029,-0.011 -0.37319,-0.035 -0.42867,-0.0533 l -0.10086,-0.0333 0.001,-0.54189 c 7.9e-4,-0.29804 0.0178,-0.85394 0.0378,-1.23533 0.0226,-0.43156 0.0356,-1.16006 0.0342,-1.92903 -0.002,-1.09307 -0.0166,-1.66521 -0.0773,-3.00416 l -0.0162,-0.35646 0.0604,-0.0344 c 0.0484,-0.0275 0.32239,-0.036 1.37167,-0.0425 1.71046,-0.0106 2.17788,0.0235 2.72221,0.19838 0.57995,0.18634 0.94038,0.56255 1.09812,1.1462 0.0773,0.28622 0.0971,0.82112 0.0387,1.04645 -0.0572,0.22074 -0.22944,0.53885 -0.43235,0.7987 -0.0919,0.11774 -0.15731,0.22252 -0.14527,0.23285 0.012,0.0103 0.0817,0.0616 0.15482,0.11395 0.23696,0.16968 0.43008,0.49263 0.5406,0.9041 0.0732,0.27243 0.0782,0.80716 0.0107,1.12723 -0.20753,0.98334 -0.84483,1.52792 -1.94504,1.66206 -0.2594,0.0316 -2.40816,0.0319 -2.92507,4.4e-4 z m 2.50607,-1.61295 c 0.37925,-0.0615 0.56633,-0.2686 0.5684,-0.62912 0.001,-0.22976 -0.0387,-0.3533 -0.15703,-0.48423 -0.18776,-0.20783 -0.39402,-0.25508 -1.05995,-0.24282 -0.33095,0.006 -0.46453,0.0174 -0.4883,0.0412 -0.025,0.025 -0.0327,0.1729 -0.0327,0.62321 0,0.66154 -7.6e-4,0.65866 0.1811,0.69384 0.14791,0.0286 0.80791,0.0272 0.98851,-0.002 z m -0.0791,-2.93905 c 0.19924,-0.0519 0.34768,-0.14452 0.42937,-0.26797 0.0608,-0.0918 0.0688,-0.12787 0.0688,-0.30948 0,-0.18459 -0.008,-0.21793 -0.0756,-0.32697 -0.0984,-0.15801 -0.26635,-0.2536 -0.51247,-0.29174 -0.22738,-0.0352 -0.94859,-0.0232 -0.98822,0.0165 -0.0154,0.0154 -0.0397,0.18075 -0.054,0.36742 -0.0299,0.38923 -0.002,0.73177 0.0655,0.79915 0.0823,0.0824 0.76832,0.0908 1.06666,0.0131 z m -35.22802,4.52981 c -0.0527,-0.0102 -0.10945,-0.0322 -0.12608,-0.0489 -0.0372,-0.0373 -0.0307,-0.59897 0.0213,-1.84318 0.0586,-1.40166 0.0466,-3.45118 -0.0285,-4.85758 -0.0172,-0.32278 -0.0163,-0.33204 0.0369,-0.36051 0.0821,-0.0439 0.72024,-0.0738 1.98252,-0.0927 0.81166,-0.0122 1.19687,-0.009 1.353,0.0124 1.05104,0.14183 1.75924,0.72654 1.9526,1.61213 0.0533,0.24409 0.072,0.75573 0.0388,1.05868 -0.0741,0.67465 -0.24471,1.01644 -0.73458,1.47142 -0.13865,0.12877 -0.2521,0.24921 -0.2521,0.26763 0,0.0184 0.16604,0.41027 0.36898,0.87077 0.47743,1.08338 0.74499,1.7497 0.73546,1.83157 -0.007,0.0588 -0.0214,0.0666 -0.15883,0.0849 -0.0832,0.0111 -0.49222,0.0168 -0.9089,0.0126 -0.64648,-0.006 -0.76668,-0.0135 -0.81952,-0.0483 -0.0475,-0.0312 -0.0933,-0.13117 -0.19632,-0.42868 -0.17529,-0.506 -0.65452,-1.75879 -0.70049,-1.83123 -0.0755,-0.11896 -0.20851,-0.15793 -0.53901,-0.15793 h -0.30422 l -0.0274,0.0694 c -0.0334,0.0845 -0.0156,0.6167 0.0414,1.23787 0.0221,0.2405 0.0424,0.59226 0.0452,0.7817 l 0.005,0.34444 -0.13869,0.0164 c -0.18965,0.0225 -1.52782,0.0201 -1.64663,-0.003 z m 2.70857,-3.78341 c 0.34149,-0.0637 0.5859,-0.26494 0.66898,-0.55075 0.0644,-0.22149 0.0385,-0.62639 -0.053,-0.82964 -0.1671,-0.3711 -0.48571,-0.51916 -1.12318,-0.52192 -0.33946,-0.001 -0.45774,0.0267 -0.51069,0.12186 -0.0204,0.0367 -0.0328,0.30965 -0.0396,0.87675 -0.01,0.80773 -0.009,0.824 0.0414,0.85096 0.12311,0.0659 0.76663,0.0993 1.01607,0.0527 z m -39.74144,-12.260776 -0.0328,-0.169794 -0.14852,-0.03068 c -0.0817,-0.01687 -0.14852,-0.03828 -0.14852,-0.04757 0,-0.0093 0.0664,-0.02996 0.14762,-0.04593 l 0.14762,-0.02904 0.0366,-0.169663 0.0366,-0.169662 0.0339,0.151296 c 0.0187,0.08321 0.0501,0.164537 0.0699,0.180719 0.0198,0.01618 0.0918,0.03711 0.16009,0.0465 0.14563,0.02003 0.14219,0.05116 -0.008,0.07611 -0.14587,0.02416 -0.19495,0.05401 -0.19723,0.11993 -0.001,0.03072 -0.016,0.101238 -0.0331,0.156713 l -0.0311,0.100864 z m 1.6003,-0.731682 c -0.0385,-0.183762 -0.0799,-0.346584 -0.0922,-0.361827 -0.0122,-0.01524 -0.18061,-0.0602 -0.37418,-0.09991 -0.19358,-0.0397 -0.34586,-0.0783 -0.3384,-0.08576 0.007,-0.0075 0.17373,-0.04761 0.36951,-0.08922 l 0.35595,-0.07565 0.0748,-0.359329 c 0.0411,-0.197631 0.0815,-0.35933 0.0898,-0.35933 0.008,0 0.0489,0.161529 0.0904,0.358953 l 0.0754,0.358952 0.30259,0.06525 c 0.50672,0.109273 0.5007,0.09565 0.0822,0.18638 -0.20442,0.04432 -0.37581,0.08544 -0.38087,0.09137 -0.005,0.0059 -0.0417,0.166804 -0.0814,0.3575 -0.0397,0.190697 -0.0793,0.346722 -0.088,0.346722 -0.009,0 -0.0472,-0.150351 -0.0857,-0.334114 z m -2.45643,-1.257456 c -0.0872,-0.407505 -0.16609,-0.747779 -0.1754,-0.756163 -0.009,-0.0084 -0.32897,-0.08096 -0.71036,-0.161268 -0.38139,-0.08031 -0.70217,-0.153669 -0.71284,-0.163013 -0.0107,-0.0093 0.2333,-0.0709 0.54215,-0.136791 0.30884,-0.06589 0.63633,-0.136525 0.72773,-0.156964 l 0.16619,-0.03716 0.14596,-0.683744 c 0.0803,-0.376059 0.1534,-0.711536 0.16248,-0.745505 0.0113,-0.04205 0.0668,0.17404 0.174,0.677191 0.0866,0.406423 0.16168,0.743142 0.1668,0.748265 0.005,0.0051 0.33378,0.079 0.73036,0.164162 0.39658,0.08517 0.71261,0.162204 0.7023,0.171193 -0.0103,0.009 -0.3308,0.08206 -0.7122,0.162368 -0.38139,0.08031 -0.70165,0.153154 -0.71169,0.161869 -0.01,0.0087 -0.0872,0.338971 -0.17153,0.733903 -0.0843,0.394931 -0.15602,0.728074 -0.15938,0.740317 -0.003,0.01224 -0.0774,-0.311153 -0.16457,-0.718658 z M 83.848862,90.24954 c 0.0084,-0.05548 0.095,-0.804393 0.192443,-1.664262 0.09744,-0.859868 0.185419,-1.600964 0.195503,-1.646878 0.01787,-0.08137 0.044,-0.04784 1.03155,1.323475 0.557269,0.773826 1.010119,1.410053 1.006335,1.413837 -0.0038,0.0038 -0.310572,-0.05035 -0.68175,-0.120297 -0.560568,-0.105639 -0.681851,-0.121689 -0.716095,-0.09477 -0.0723,0.05684 -0.896196,0.756075 -0.971172,0.824228 l -0.07209,0.06553 z"
     id="path1"
     inkscape:label="Logo" /></svg>
